<?xml version="1.0" encoding="utf-8"?>
<!-- Generator: Adobe Illustrator 22.0.1, SVG Export Plug-In . SVG Version: 6.00 Build 0)  -->
<svg version="1.1" id="Layer_1" xmlns="http://www.w3.org/2000/svg" xmlns:xlink="http://www.w3.org/1999/xlink" x="0px" y="0px"
	 viewBox="0 0 574.3 179.8" style="enable-background:new 0 0 574.3 179.8;" xml:space="preserve">
<style type="text/css">
	.st0{fill:#FFFFFF;}
	.st1{fill:#005087;}
	.st2{fill:#666666;}
</style>
<g id="Contract_Number">
</g>
<g id="Star_Mark_and_Schedule_Logo">
	<path class="st0" d="M91.2,124.4c3.6,1.8,7.2,4.1,7.2,8.7c0,6-5.2,8.4-10.3,8.4c-4,0.1-8.7-1.6-12.3-3.1l-1,9.1
		c4.3,1.4,8.2,2.4,12.3,2.6c11.4,0.4,21.3-4.9,21.3-17.5c0-11.6-8.6-15-16.9-19.2c-3.1-1.5-7.2-3.6-7.2-7.7c0-5.2,4.6-6.8,9.1-6.8
		c4.1,0,6.2,0.7,11.2,2.6l1.4-8.9c-4.5-1.6-9.1-2.3-12.8-2.3c-10.4,0-18.8,5.5-18.8,16.1C74.3,117.6,83.3,120.4,91.2,124.4z"/>
	<polygon class="st0" points="140.8,109.7 145,119.9 154.7,119.9 140.8,89.1 127,119.9 136.6,119.9 	"/>
	<polygon class="st0" points="147.8,137.3 140.8,131.9 128.6,138.3 133.7,126.7 126.8,120.3 114,149 123.8,149 	"/>
	<path class="st0" d="M43.4,150c8.9,0,14.4-1.5,18.1-2.7v-30H40.9v8.4h10.8v14.9c-2.1,0.5-4.9,0.8-8.3,0.8
		c-11.3,0-20.4-8.2-20.5-21.3c0.1-12.1,8.5-21.2,21-21.2c7.1,0,11.3,1.3,16.1,4.4l0.8-10c-5.3-1.8-9-3.1-17.3-3.1
		C26,90.4,13,102.2,13,120C13,138.3,25.2,150,43.4,150z"/>
	<polygon class="st0" points="157.6,149 167.7,149 154.8,120.3 148,126.7 	"/>
	<path class="st1" d="M0,0v179.7h179.4V0H0z M43.5,141.5c3.4,0,6.2-0.2,8.3-0.8v-14.9H40.9v-8.4h20.6v30c-3.6,1.2-9.2,2.7-18.1,2.7
		C25.2,150,13,138.3,13,120c0-17.8,12.9-29.6,30.5-29.6c8.3,0,12,1.2,17.3,3.1l-0.8,10c-4.8-3.2-9-4.4-16.1-4.4
		c-12.5,0-20.9,9.1-20.9,21.3C23.1,133.3,32.2,141.5,43.5,141.5z M91.6,113.4c8.4,4.2,16.9,7.6,16.9,19.2c0,12.6-9.9,17.9-21.3,17.5
		c-4.1-0.1-8-1.2-12.3-2.6l1-9.1c3.6,1.5,8.4,3.1,12.3,3.1c5.2-0.1,10.3-2.5,10.3-8.4c0-4.6-3.7-6.9-7.2-8.7
		c-7.9-4-16.9-6.8-16.9-17.9c0-10.6,8.4-16.1,18.8-16.1c3.8,0,8.3,0.7,12.8,2.3l-1.4,8.9c-4.9-1.9-7.1-2.6-11.2-2.6
		c-4.5,0-9.1,1.6-9.1,6.8C84.3,109.7,88.5,111.8,91.6,113.4z M133.7,126.7l-5.1,11.6l12.2-6.4l7,5.4l-24,11.7H114l12.9-28.8
		L133.7,126.7z M127,119.9l13.8-30.8l13.8,30.8H145l-4.2-10.2l-4.2,10.2C136.6,119.9,127,119.9,127,119.9z M157.6,149l-9.6-22.3
		l6.9-6.4l12.9,28.8L157.6,149L157.6,149z"/>
	<g>
		<path class="st1" d="M193.4,7.3c1.2-0.1,2-0.9,2-2c0-0.7-0.5-1.3-1.1-1.6c-0.5-0.2-0.8-0.2-1.9-0.2H190v7h1.1v-3h0.7
			c0.9,0,1.2,0.3,2.1,1.9l0.6,1.1h1.4L195,9.1C194.3,8,193.9,7.6,193.4,7.3z M192.5,6.5h-1.4V4.4h1.3c1.3,0,1.8,0.3,1.8,1
			C194.2,6.2,193.6,6.5,192.5,6.5z"/>
		<path class="st1" d="M192.8,0.3c-3.6,0-6.5,2.9-6.5,6.5s2.9,6.5,6.5,6.5s6.5-2.9,6.5-6.5C199.4,3.3,196.4,0.3,192.8,0.3z
			 M192.8,12.3c-3,0-5.5-2.4-5.5-5.5c0-3,2.5-5.4,5.5-5.4s5.4,2.4,5.4,5.4C198.3,9.9,195.8,12.3,192.8,12.3z"/>
	</g>
</g>
<g>
	<path class="st2" d="M196.8,132.2c2.9,1.8,7.2,3.3,11.7,3.3c6.7,0,10.6-3.5,10.6-8.6c0-4.7-2.7-7.4-9.5-10.1
		c-8.3-2.9-13.4-7.2-13.4-14.3c0-7.9,6.5-13.7,16.4-13.7c5.2,0,8.9,1.2,11.2,2.5l-1.8,5.3c-1.6-0.9-5-2.4-9.6-2.4
		c-6.9,0-9.5,4.1-9.5,7.6c0,4.7,3.1,7.1,10.1,9.8c8.6,3.3,12.9,7.4,12.9,14.9c0,7.8-5.8,14.6-17.7,14.6c-4.9,0-10.2-1.4-12.9-3.2
		L196.8,132.2z"/>
	<path class="st2" d="M260.8,138.8c-1.7,0.9-5.6,2.1-10.4,2.1c-11,0-18.1-7.4-18.1-18.5c0-11.2,7.7-19.3,19.5-19.3
		c3.9,0,7.4,1,9.2,1.9l-1.5,5.1c-1.6-0.9-4.1-1.7-7.7-1.7c-8.3,0-12.8,6.2-12.8,13.7c0,8.4,5.4,13.6,12.6,13.6c3.8,0,6.2-1,8.1-1.8
		L260.8,138.8z"/>
	<path class="st2" d="M268.5,86.9h6.6v22.7h0.1c1.1-1.9,2.7-3.5,4.7-4.7c2-1.1,4.3-1.9,6.8-1.9c4.9,0,12.7,3,12.7,15.5v21.6h-6.6
		v-20.9c0-5.9-2.2-10.8-8.4-10.8c-4.3,0-7.7,3-8.9,6.6c-0.4,0.9-0.5,1.9-0.5,3.2v21.9h-6.6V86.9z"/>
	<path class="st2" d="M313.8,123.2c0.2,8.9,5.9,12.6,12.5,12.6c4.7,0,7.6-0.8,10.1-1.9l1.1,4.7c-2.3,1-6.3,2.2-12.1,2.2
		c-11.2,0-17.9-7.4-17.9-18.3c0-11,6.5-19.6,17-19.6c11.9,0,15,10.4,15,17.1c0,1.4-0.2,2.4-0.2,3.1H313.8z M333.2,118.4
		c0.1-4.2-1.7-10.7-9.2-10.7c-6.7,0-9.6,6.2-10.1,10.7H333.2z"/>
	<path class="st2" d="M379.1,86.9v43.9c0,3.2,0.1,6.9,0.3,9.4h-5.9l-0.3-6.3H373c-2,4.1-6.5,7.1-12.4,7.1c-8.8,0-15.5-7.4-15.5-18.5
		c-0.1-12.1,7.4-19.5,16.3-19.5c5.6,0,9.3,2.6,11,5.6h0.1V86.9H379.1z M372.5,118.6c0-0.8-0.1-2-0.3-2.8c-1-4.2-4.6-7.7-9.5-7.7
		c-6.8,0-10.9,6-10.9,14c0,7.4,3.6,13.4,10.7,13.4c4.4,0,8.5-2.9,9.7-7.9c0.2-0.9,0.3-1.8,0.3-2.9V118.6z"/>
	<path class="st2" d="M420.4,130.2c0,3.8,0.1,7.1,0.3,9.9h-5.9l-0.4-5.9h-0.1c-1.7,2.9-5.6,6.8-12,6.8c-5.7,0-12.5-3.2-12.5-15.9
		v-21.2h6.6v20.1c0,6.9,2.1,11.6,8.1,11.6c4.4,0,7.5-3.1,8.7-6c0.4-1,0.6-2.2,0.6-3.4v-22.3h6.6V130.2z"/>
	<path class="st2" d="M431.3,86.9h6.6v53.3h-6.6V86.9z"/>
	<path class="st2" d="M452.7,123.2c0.2,8.9,5.9,12.6,12.5,12.6c4.7,0,7.6-0.8,10.1-1.9l1.1,4.7c-2.3,1-6.3,2.2-12.1,2.2
		c-11.2,0-17.9-7.4-17.9-18.3c0-11,6.5-19.6,17-19.6c11.9,0,15,10.4,15,17.1c0,1.4-0.2,2.4-0.2,3.1H452.7z M472.1,118.4
		c0.1-4.2-1.7-10.7-9.2-10.7c-6.7,0-9.6,6.2-10.1,10.7H472.1z"/>
	<path class="st2" d="M532.1,91.4v4.4l-21.2,44.4H504L525.2,97v-0.2h-23.9v-5.5H532.1z"/>
	<path class="st2" d="M571.3,115.2c0,16.6-6.2,25.7-17,25.7c-9.5,0-16-8.9-16.1-25.1c0-16.4,7.1-25.4,17-25.4
		C565.5,90.5,571.3,99.7,571.3,115.2z M544.8,116c0,12.7,3.9,19.9,9.9,19.9c6.8,0,10-7.9,10-20.3c0-12-3.1-19.9-9.9-19.9
		C549,95.6,544.8,102.7,544.8,116z"/>
</g>
<g>
	<path class="st2" d="M212.1,175c-1.1,0.5-3.2,1.1-5.9,1.1c-6.3,0-11-4-11-11.3c0-7,4.7-11.7,11.6-11.7c2.8,0,4.5,0.6,5.3,1
		l-0.7,2.3c-1.1-0.5-2.6-0.9-4.5-0.9c-5.2,0-8.7,3.3-8.7,9.2c0,5.5,3.1,9,8.6,9c1.8,0,3.5-0.4,4.7-0.9L212.1,175z"/>
	<path class="st2" d="M229.7,167.5c0,5.9-4.1,8.5-8,8.5c-4.3,0-7.7-3.2-7.7-8.2c0-5.4,3.5-8.5,7.9-8.5
		C226.6,159.3,229.7,162.6,229.7,167.5z M217,167.7c0,3.5,2,6.2,4.9,6.2c2.8,0,4.9-2.6,4.9-6.2c0-2.7-1.4-6.2-4.8-6.2
		S217,164.7,217,167.7z"/>
	<path class="st2" d="M233.4,164c0-1.7,0-3-0.1-4.3h2.6l0.2,2.6h0.1c0.8-1.5,2.6-3,5.3-3c2.2,0,5.7,1.3,5.7,6.8v9.6h-2.9v-9.2
		c0-2.6-1-4.7-3.7-4.7c-1.9,0-3.4,1.4-3.9,3c-0.1,0.4-0.2,0.9-0.2,1.4v9.6h-2.9V164z"/>
	<path class="st2" d="M255.1,155.1v4.6h4.2v2.2h-4.2v8.6c0,2,0.6,3.1,2.2,3.1c0.8,0,1.3-0.1,1.7-0.2l0.1,2.2
		c-0.6,0.2-1.5,0.4-2.6,0.4c-1.4,0-2.4-0.4-3.1-1.2c-0.8-0.9-1.1-2.3-1.1-4.2v-8.7h-2.5v-2.2h2.5v-3.8L255.1,155.1z"/>
	<path class="st2" d="M262.6,164.7c0-1.9,0-3.5-0.1-5h2.5l0.1,3.1h0.1c0.7-2.2,2.5-3.5,4.4-3.5c0.3,0,0.6,0,0.8,0.1v2.7
		c-0.3-0.1-0.6-0.1-1-0.1c-2.1,0-3.5,1.6-3.9,3.7c-0.1,0.4-0.1,0.9-0.1,1.4v8.5h-2.9V164.7z"/>
	<path class="st2" d="M282.1,175.7l-0.2-2h-0.1c-0.9,1.3-2.6,2.4-4.9,2.4c-3.2,0-4.9-2.3-4.9-4.6c0-3.9,3.4-6,9.6-6v-0.3
		c0-1.3-0.4-3.7-3.6-3.7c-1.5,0-3,0.5-4.2,1.2l-0.7-1.9c1.3-0.9,3.2-1.4,5.3-1.4c4.9,0,6.1,3.3,6.1,6.5v6c0,1.4,0.1,2.7,0.3,3.8
		H282.1z M281.7,167.5c-3.2-0.1-6.8,0.5-6.8,3.6c0,1.9,1.3,2.8,2.7,2.8c2.1,0,3.4-1.3,3.9-2.7c0.1-0.3,0.2-0.6,0.2-0.9V167.5z"/>
	<path class="st2" d="M300.6,175.1c-0.8,0.4-2.4,0.9-4.6,0.9c-4.8,0-8-3.3-8-8.2c0-4.9,3.4-8.5,8.6-8.5c1.7,0,3.2,0.4,4,0.8
		l-0.7,2.2c-0.7-0.4-1.8-0.8-3.4-0.8c-3.7,0-5.7,2.7-5.7,6.1c0,3.7,2.4,6,5.6,6c1.7,0,2.7-0.4,3.6-0.8L300.6,175.1z"/>
	<path class="st2" d="M307.9,155.1v4.6h4.2v2.2h-4.2v8.6c0,2,0.6,3.1,2.2,3.1c0.8,0,1.3-0.1,1.7-0.2l0.1,2.2
		c-0.6,0.2-1.5,0.4-2.6,0.4c-1.4,0-2.4-0.4-3.1-1.2c-0.8-0.9-1.1-2.3-1.1-4.2v-8.7h-2.5v-2.2h2.5v-3.8L307.9,155.1z"/>
	<path class="st2" d="M323,175.7l0.9-6.5h-2.7v-2h3l0.6-4.8H322v-2h3.1l0.9-6.3h1.9l-0.8,6.3h3.4l0.9-6.3h2l-0.8,6.3h2.7v2h-3
		l-0.6,4.8h2.8v2h-3.1l-0.9,6.5h-2l0.9-6.5h-3.4l-0.9,6.5H323z M329.6,167.2l0.6-4.8h-3.4l-0.6,4.8H329.6z"/>
	<path class="st2" d="M346.9,175.7v-5.9h-10v-1.9l9.6-13.7h3.1v13.4h3v2.3h-3v5.9H346.9z M346.9,167.5v-7.2c0-1.1,0-2.2,0.1-3.4
		h-0.1c-0.7,1.3-1.2,2.2-1.8,3.2l-5.3,7.3v0.1H346.9z"/>
	<path class="st2" d="M368.8,154.2v1.9l-9.4,19.6h-3l9.3-19v-0.1h-10.5v-2.4H368.8z"/>
	<path class="st2" d="M391.2,179c-3-0.8-6-1.7-8.5-2.6c-0.5-0.2-0.9-0.3-1.4-0.3c-5.3-0.2-9.8-4.1-9.8-11.3
		c0-7.1,4.4-11.7,10.4-11.7c6.1,0,10,4.7,10,11.3c0,5.7-2.6,9.4-6.4,10.7v0.1c2.2,0.6,4.6,1.1,6.5,1.4L391.2,179z M388.8,164.4
		c0-4.5-2.3-9.1-7-9.1c-4.9,0-7.2,4.5-7.2,9.3c0,4.7,2.6,9,7.1,9C386.3,173.7,388.8,169.5,388.8,164.4z"/>
	<path class="st2" d="M399,155.8h-6.8v-2.4h16.5v2.4h-6.8v19.8H399V155.8z"/>
	<path class="st2" d="M425.9,175c-1.1,0.5-3.2,1.1-5.9,1.1c-6.3,0-11-4-11-11.3c0-7,4.7-11.7,11.6-11.7c2.8,0,4.5,0.6,5.3,1
		l-0.7,2.3c-1.1-0.5-2.6-0.9-4.5-0.9c-5.2,0-8.7,3.3-8.7,9.2c0,5.5,3.1,9,8.6,9c1.8,0,3.5-0.4,4.7-0.9L425.9,175z"/>
	<path class="st2" d="M433.3,168.7l-2.3,7h-3l7.6-22.3h3.5l7.6,22.3h-3.1l-2.4-7H433.3z M440.6,166.4l-2.2-6.4
		c-0.5-1.5-0.8-2.8-1.2-4.1h-0.1c-0.3,1.3-0.7,2.7-1.1,4l-2.2,6.5H440.6z"/>
	<path class="st2" d="M455.2,156.9L455.2,156.9l-3.8,2l-0.6-2.2l4.7-2.5h2.5v21.5h-2.8V156.9z"/>
	<path class="st2" d="M465.6,170.2c0-2.7,1.6-4.6,4.3-5.8l0-0.1c-2.4-1.1-3.4-3-3.4-4.8c0-3.4,2.9-5.7,6.6-5.7
		c4.2,0,6.3,2.6,6.3,5.3c0,1.8-0.9,3.8-3.5,5v0.1c2.7,1.1,4.3,2.9,4.3,5.6c0,3.7-3.2,6.3-7.3,6.3C468.3,176,465.6,173.4,465.6,170.2
		z M477.2,170.1c0-2.6-1.8-3.9-4.7-4.7c-2.5,0.7-3.9,2.4-3.9,4.4c-0.1,2.2,1.6,4.1,4.3,4.1C475.5,173.9,477.2,172.3,477.2,170.1z
		 M469.2,159.3c0,2.2,1.6,3.3,4.1,4c1.9-0.6,3.3-2,3.3-3.9c0-1.7-1-3.5-3.6-3.5C470.5,155.9,469.2,157.5,469.2,159.3z"/>
	<path class="st2" d="M483.8,153.7c1.8-0.3,3.8-0.5,6.1-0.5c4.1,0,7.1,1,9,2.8c2,1.8,3.1,4.4,3.1,8c0,3.6-1.1,6.6-3.2,8.7
		c-2.1,2.1-5.5,3.2-9.9,3.2c-2.1,0-3.8-0.1-5.2-0.3V153.7z M486.7,173.4c0.7,0.1,1.8,0.2,2.9,0.2c6.2,0,9.5-3.4,9.5-9.5
		c0-5.3-2.9-8.6-9-8.6c-1.5,0-2.6,0.1-3.4,0.3V173.4z"/>
	<path class="st2" d="M519.1,164.7c0,7.3-2.7,11.3-7.5,11.3c-4.2,0-7-3.9-7.1-11c0-7.2,3.1-11.2,7.5-11.2
		C516.5,153.8,519.1,157.8,519.1,164.7z M507.5,165c0,5.6,1.7,8.8,4.4,8.8c3,0,4.4-3.5,4.4-9c0-5.3-1.4-8.8-4.4-8.8
		C509.3,156.1,507.5,159.2,507.5,165z"/>
	<path class="st2" d="M536.1,164.7c0,7.3-2.7,11.3-7.5,11.3c-4.2,0-7-3.9-7.1-11c0-7.2,3.1-11.2,7.5-11.2
		C533.5,153.8,536.1,157.8,536.1,164.7z M524.4,165c0,5.6,1.7,8.8,4.4,8.8c3,0,4.4-3.5,4.4-9c0-5.3-1.4-8.8-4.4-8.8
		C526.3,156.1,524.4,159.2,524.4,165z"/>
	<path class="st2" d="M551.6,156.6h-8.2l-0.8,5.5c0.5-0.1,1-0.1,1.8-0.1c1.7,0,3.3,0.4,4.6,1.2c1.7,1,3.1,2.8,3.1,5.5
		c0,4.2-3.3,7.3-8,7.3c-2.3,0-4.3-0.7-5.4-1.3l0.7-2.2c0.9,0.5,2.6,1.2,4.6,1.2c2.7,0,5.1-1.8,5.1-4.7c0-2.8-1.9-4.8-6.2-4.8
		c-1.2,0-2.2,0.1-3,0.2l1.4-10.3h10.3V156.6z"/>
	<path class="st2" d="M569.7,154.2v1.9l-9.4,19.6h-3l9.3-19v-0.1h-10.5v-2.4H569.7z"/>
</g>
</svg>
