<?xml version="1.0" encoding="UTF-8"?>
<svg width="32px" height="34px" viewBox="0 0 32 34" version="1.1" xmlns="http://www.w3.org/2000/svg" xmlns:xlink="http://www.w3.org/1999/xlink">
    <!-- Generator: Sketch 49 (51002) - http://www.bohemiancoding.com/sketch -->
    <title>hash</title>
    <desc>Created with Sketch.</desc>
    <defs></defs>
    <g id="Page-1" stroke="none" stroke-width="1" fill="none" fill-rule="evenodd">
        <g id="Desktop-HD" transform="translate(-66.000000, -1561.000000)" fill="#FFBD00">
            <g id="hash" transform="translate(66.000000, 1561.000000)">
                <path d="M22.5083675,11.7866113 L21.6580711,19.0561798 L23.9342848,19.0561798 C24.7558198,19.0561798 25.4218055,19.7221655 25.4218055,20.5437005 C25.4218055,20.6105781 25.4172953,20.6773796 25.4083058,20.7436503 C25.2771918,21.7102166 24.4518953,22.4311208 23.4764767,22.4311208 L21.2633159,22.4311208 L20.3377897,30.3438633 C20.2273458,31.2880982 19.427322,32 18.4766499,32 C17.6571911,32 16.9928885,31.3356974 16.9928885,30.5162386 C16.9928885,30.4586338 16.9962431,30.401078 17.0029353,30.3438633 L17.9284615,22.4311208 L11.56404,22.4311208 L10.6385138,30.3438633 C10.5280699,31.2880982 9.72804612,32 8.77737402,32 C7.95791521,32 7.29361259,31.3356974 7.29361259,30.5162386 C7.29361259,30.4586338 7.29696721,30.401078 7.30365942,30.3438633 L8.22918563,22.4311208 L5.66842988,22.4311208 C4.84689487,22.4311208 4.18090916,21.7651351 4.18090916,20.9436 C4.18090916,20.8767224 4.18541929,20.8099209 4.19440886,20.7436503 C4.32552281,19.7770839 5.15081934,19.0561798 6.12623793,19.0561798 L8.62394083,19.0561798 L9.4742372,11.7866113 L7.06571524,11.7866113 C6.24418023,11.7866113 5.57819452,11.1206256 5.57819452,10.2990906 C5.57819452,10.2322129 5.58270466,10.1654115 5.59169422,10.0991408 C5.72280818,9.1325744 6.5481047,8.41167029 7.5235233,8.41167029 L9.8689924,8.41167029 L10.6591639,1.65613674 C10.7696078,0.711901816 11.5696316,1.114543e-14 12.5203037,8.43769499e-15 C13.3397625,6.10368596e-15 14.0040651,0.664302618 14.0040651,1.48376143 C14.0040651,1.54136617 14.0007105,1.59892204 13.9940183,1.65613674 L13.2038468,8.41167029 L19.5682683,8.41167029 L20.3584397,1.65613674 C20.4688836,0.711901816 21.2689074,1.114543e-14 22.2195796,8.43769499e-15 C23.0390384,6.10368596e-15 23.703341,0.664302618 23.703341,1.48376143 C23.703341,1.54136617 23.6999864,1.59892204 23.6932941,1.65613674 L22.9031227,8.41167029 L25.3315701,8.41167029 C26.1531051,8.41167029 26.8190908,9.077656 26.8190908,9.899191 C26.8190908,9.96606861 26.8145807,10.0328701 26.8055911,10.0991408 C26.6744772,11.0657072 25.8491807,11.7866113 24.8737621,11.7866113 L22.5083675,11.7866113 Z M19.1735131,11.7866113 L12.8090916,11.7866113 L11.9587952,19.0561798 L18.3232167,19.0561798 L19.1735131,11.7866113 Z" id="Combined-Shape"></path>
                <path d="M30,12 C28.8954305,12 28,11.1045695 28,10 C28,8.8954305 28.8954305,8 30,8 C31.1045695,8 32,8.8954305 32,10 C32,11.1045695 31.1045695,12 30,12 Z M30,10.6666667 C30.3681898,10.6666667 30.6666667,10.3681898 30.6666667,10 C30.6666667,9.63181017 30.3681898,9.33333333 30,9.33333333 C29.6318102,9.33333333 29.3333333,9.63181017 29.3333333,10 C29.3333333,10.3681898 29.6318102,10.6666667 30,10.6666667 Z" id="Combined-Shape"></path>
                <path d="M2,23 C0.8954305,23 0,22.1045695 0,21 C0,19.8954305 0.8954305,19 2,19 C3.1045695,19 4,19.8954305 4,21 C4,22.1045695 3.1045695,23 2,23 Z M2,21.6666667 C2.36818983,21.6666667 2.66666667,21.3681898 2.66666667,21 C2.66666667,20.6318102 2.36818983,20.3333333 2,20.3333333 C1.63181017,20.3333333 1.33333333,20.6318102 1.33333333,21 C1.33333333,21.3681898 1.63181017,21.6666667 2,21.6666667 Z" id="Combined-Shape"></path>
                <path d="M0.507866985,33.9030936 C0.0585622625,33.9030936 -0.0279604059,33.6960777 0.00692117382,33.3243635 C0.352685811,29.3573626 0.785997466,25.4681146 1.30685614,21.6566194 L2.36956194,21.6566194 L1.13158928,32.8208615 L26.3101026,32.8208615 L28.9372942,11 L30,11 C29.1865675,18.3876416 28.2894469,25.8466476 27.3086382,33.3770181 C27.2431416,33.7339143 27.1701338,33.9008044 26.7419573,33.9008044 C13.4887903,34.0219093 13.8000385,34.0429388 0.507866985,33.9030936 Z" id="Combined-Shape"></path>
            </g>
        </g>
    </g>
</svg>