<svg xmlns="http://www.w3.org/2000/svg" viewBox="0 0 451 207.33"><defs><style>.cls-1,.cls-2{fill:#3b4755;}.cls-2{stroke:#201751;stroke-miterlimit:10;}</style></defs><title>fischer logo</title><g id="Layer_2" data-name="Layer 2"><g id="Layer_1-2" data-name="Layer 1"><path class="cls-1" d="M439,65.37V57.88h2.79v-1h-6.71v1h2.79v7.49Z"/><path class="cls-1" d="M442.88,65.37V56.88h1.69l2,6c.19.56.32,1,.41,1.26l.45-1.36,2.06-5.91H451v8.49h-1.09v-7.1l-2.49,7.1h-1L444,58.14v7.23Z"/><g id="IDENTITY"><path class="cls-2" d="M80.1,127h3.31v20H80.1Z"/><path class="cls-2" d="M124.75,127h4.5a10.24,10.24,0,0,1,5.23,1.15,7.25,7.25,0,0,1,3,3.45,12.44,12.44,0,0,1,1,5.07,14.21,14.21,0,0,1-.9,5.22,8.36,8.36,0,0,1-2.76,3.7,8.67,8.67,0,0,1-5.29,1.4h-4.75Zm3.31,2.65V144.3h1.38a4.65,4.65,0,0,0,4.2-2A9.64,9.64,0,0,0,135,137q0-7.35-5.51-7.35Z"/><path class="cls-2" d="M179.11,127h11.46v2.65h-8.15v5.71h6.39V138h-6.39v6.25h8.28V147H179.11Z"/><path class="cls-2" d="M230.31,127h3.9l6.57,14.41V127h2.77v20h-3.09l-7.38-16v16h-2.77Z"/><path class="cls-2" d="M282.37,127h12.22v2.81h-4.47V147h-3.31V129.77h-4.44Z"/><path class="cls-2" d="M333.52,127h3.31v20h-3.31Z"/><path class="cls-2" d="M375.77,127H388v2.81h-4.46V147h-3.31V129.77h-4.44Z"/><path class="cls-2" d="M426,127h3.59l3.68,8.34L437,127h3.17L434.6,138.5V147h-3.31V138.5Z"/></g><polygon class="cls-1" points="79.14 118.39 81.24 118.39 81.24 57.9 79.14 55.71 79.14 118.39"/><polygon class="cls-1" points="79.14 55.7 81.25 57.94 119.18 57.94 121.63 55.7 79.14 55.7"/><path class="cls-1" d="M81.29,116.1l2.35-55.9,35.54-2.31,2.43-2.18v17H99.08V82.93l16.81-2.29,2.43-2.21V94.66H99.08v23.76H79.14Z"/><polygon class="cls-1" points="99.1 78.41 96.72 80.64 115.89 80.64 118.33 78.41 99.1 78.41"/><path class="cls-1" d="M81.24,57.92h38V70.39H96.69V80.64h19.23V92.37H96.69v23.77H81.24Z"/><polygon class="cls-1" points="129.16 118.39 131.19 118.39 131.19 57.9 129.16 55.71 129.16 118.39"/><polygon class="cls-1" points="129.16 55.7 131.2 57.94 145.48 57.94 147.79 55.7 129.16 55.7"/><path class="cls-1" d="M131.16,116.17l2.33-56L145.42,58l2.39-2.23-.05,62.69H129.15Z"/><path class="cls-1" d="M131.18,57.92h14.27v58.22H131.18Z"/><path class="cls-1" d="M155,97l15.1.77,2-1.89c-1.12,4.23,1.59,7.76,3,9,2.36,2,3.85,3.13,7,3.13a4.13,4.13,0,0,0,4.17-3.49,10.07,10.07,0,0,0-.1-4.56c-1-3.13-3-5.09-7.43-6.18-7.29-1.83-13-3.29-16.09-6.31a18,18,0,0,1-5.55-12.39,17.81,17.81,0,0,1,2.67-8.86c1.6-2.74,4.59-3.93,7.81-5.49s7.62-2.35,13.21-2.35c6.87,0,10.19-1.13,13.79,1.71s7.67,9.12,7.79,14.77l-17,1.12s.6-1.85.6-1.85c-.3-1.53-1.08-1.07-1.62-2.28-.81-1.82-3.09-2.7-5.44-2.7a6.37,6.37,0,0,0-4.42,1.45c-1,.91-1.39,2.8-.57,3.8s3,1.87,3.86,2.53.38,1.55,2.35,2.07c7.23,1.89,11.23,1.19,14.38,3s5.89,5.49,7.32,8.13a20.93,20.93,0,0,1,2.26,9.81A19.9,19.9,0,0,1,201,110a19.63,19.63,0,0,1-7.45,7.11,25.41,25.41,0,0,1-12.63,3.22c-9.49.09-14.95-1.87-18.73-5.87S155,104.19,155,97Z"/><path class="cls-1" d="M159.85,64.88a15.77,15.77,0,0,1,6.78-6.46q4.53-2.34,12.41-2.35,9.66,0,14.74,4.28a14.55,14.55,0,0,1,2.88,3.38,9.59,9.59,0,0,0-3.56-5c-3.38-2.85-8.18-4.59-14.62-4.59A27.42,27.42,0,0,0,166,56.81a15.78,15.78,0,0,0-6.77,6.45A18.21,18.21,0,0,0,156.73,72a18.42,18.42,0,0,0,3.12,10.31,16.76,16.76,0,0,1-2.26-8.75A17.88,17.88,0,0,1,159.85,64.88Z"/><path class="cls-1" d="M179.48,67.17a5.43,5.43,0,0,1,1.89.83c1.16.93,3,1.39,4.06,8L186,74l-.11-.21c-.39-2.7-1.06-4.29-2.5-5.27A7.61,7.61,0,0,0,179.48,67.17Z"/><path class="cls-1" d="M178.39,76.69c6.78,1.9,11.7,3.51,14.65,5.3a16.63,16.63,0,0,1,6.44,6.64c.09.19.16.4.25.59a16.49,16.49,0,0,0-.93-2.2,15.32,15.32,0,0,0-6.14-6.47c-2.88-1.75-6.74-2.6-14.26-4.44a48.93,48.93,0,0,1-5.13-1.49,7.25,7.25,0,0,0,2.41,1.24A16.48,16.48,0,0,0,178.39,76.69Z"/><path class="cls-1" d="M172.17,95.91,155,97s.18,1.43.25,2l14.85-1.16S171.84,96.21,172.17,95.91Z"/><path class="cls-1" d="M155.27,98.92l14.8-1.11A10.92,10.92,0,0,0,172,103a8.48,8.48,0,0,0,7.3,3.65,7.31,7.31,0,0,0,5.33-1.88c1.2-1.24,2.26-2.41,2.26-4a6.13,6.13,0,0,0-2.31-4.37,20.33,20.33,0,0,0-7.92-3.87Q166.38,89.7,162,85.16a15.92,15.92,0,0,1-4.41-11.56,17.88,17.88,0,0,1,2.26-8.72,15.77,15.77,0,0,1,6.78-6.46,31.64,31.64,0,0,1,13.49-3.16c6.45,0,11.15,2.06,14.53,4.91s5.4,6.69,6,12.91l-14.67,1a8.8,8.8,0,0,0-2.77-5.44c-1.26-1.23-3.55-1.47-5.76-1.47a5.61,5.61,0,0,0-4.1,1.37A4.51,4.51,0,0,0,172,71.91a3.59,3.59,0,0,0,1.14,2.58q1.11,1.19,5.24,2.2Q188.61,79.32,193,82a16.63,16.63,0,0,1,6.44,6.64,19.28,19.28,0,0,1,2,8.86,21.6,21.6,0,0,1-2.69,10.62,17.81,17.81,0,0,1-7.51,7.38A26.23,26.23,0,0,1,179.13,118q-12.88,0-17.85-5.89C158,108.19,155.7,105,155.27,98.92Z"/><path class="cls-1" d="M179.91,108a7.49,7.49,0,0,0,5.53-1.94,6.17,6.17,0,0,0,1.95-4.5,5.82,5.82,0,0,0-1.69-4.28,7,7,0,0,0-1-.89,6.86,6.86,0,0,1,1.92,3.48c.3,1.68-.86,3.45-1.94,4.5a7.57,7.57,0,0,1-5.53,1.94,8.4,8.4,0,0,1-7.4-3.81c-.15-.22-.28-.47-.41-.71a10.71,10.71,0,0,0,1.13,2.4A8.43,8.43,0,0,0,179.91,108Z"/><polygon class="cls-1" points="302.88 118.31 305.03 118.31 305.03 58.04 302.88 55.86 302.88 118.31"/><polygon class="cls-1" points="282.48 76.11 284.64 78.34 305.06 78.34 302.89 76.11 282.48 76.11"/><path class="cls-1" d="M270.63,116l2.43-55.71,11.26-2.2,2.54-2.27V76.14l-2.49,2.25,2.49,2.22h20.52V60.33l11-2.25,2.49-2.19v62.35l-18.07.11,2-2.22,2.56-21.32H286.86v23.54H268.6Z"/><polygon class="cls-1" points="268.6 118.34 270.71 116.07 270.71 58.04 268.57 55.86 268.6 118.34"/><polygon class="cls-1" points="268.57 55.85 270.72 58.08 284.51 58.08 286.95 55.85 268.57 55.85"/><polygon class="cls-1" points="302.88 55.85 305.04 58.08 318.49 58.08 320.99 55.85 302.88 55.85"/><path class="cls-1" d="M270.71,58.06h13.8V78.33H305V58.06h13.48v58H305V92.54H284.51v23.53h-13.8Z"/><path class="cls-1" d="M331.88,115.93l2.39-55.74,38.3-2.31,2.51-2.17V70.86H349.47V83l21.24-2.28,2.49-2.17V92.67H349.47V107l23.9-2.28,2.47-2.21v15.7H329.63Z"/><polygon class="cls-1" points="329.63 118.21 331.84 116 331.91 57.89 329.63 55.71 329.63 118.21"/><polygon class="cls-1" points="329.67 55.7 331.81 57.93 372.52 57.93 375.1 55.7 329.67 55.7"/><polygon class="cls-1" points="349.43 78.55 347.02 80.77 370.71 80.77 373.19 78.55 349.43 78.55"/><polygon class="cls-1" points="349.43 102.55 346.99 104.78 373.38 104.78 375.86 102.55 349.43 102.55"/><path class="cls-1" d="M331.84,57.91h40.81V68.58H347V80.72h23.73V90.4H347v14.36H373.4V116H331.84Z"/><path class="cls-1" d="M383.46,118.84l2.25-2.3,2.53-56.31h26.6c4.93,0,5.17-3.31,9.15-1.64,4.18,1.75,7.8,5.71,8.86,8.58A14.51,14.51,0,0,1,434,74.83a20,20,0,0,1-2.85,8.49,18.54,18.54,0,0,1-7.84,7.49c1.55.82,5,5.43,5.89,7.14s1.85,3.35,2.22,4.21l8.24,16.68H417.14l1.36-2.36-6-15.54a17.62,17.62,0,0,0-3.41-5.12A11.56,11.56,0,0,0,403,93.91h-.76V119ZM401.6,83.93,411,84a16.47,16.47,0,0,0,3.17-.8c1.05-.24,4.37-.86,5-1.85a5.92,5.92,0,0,0,1-3.41c0-1.9-3.31.79-3.6-.66-.93-4.78-2.59-6.82-5.49-7.11l-9.52-.08Z"/><polygon class="cls-1" points="383.41 118.87 385.71 116.57 385.76 57.91 383.41 55.71 383.41 118.87"/><path class="cls-1" d="M408.31,98.52c.55,1.44,8.89,20.32,8.89,20.32l1.28-2.32s-7.92-22.27-10.07-23.58a6.57,6.57,0,0,0-3.89-1S406.48,93.78,408.31,98.52Z"/><path class="cls-1" d="M383.49,55.78,385.7,58s18-.18,30.76.1a22.35,22.35,0,0,1,7.14,1.25,13.64,13.64,0,0,1,5.26,3.74,14.58,14.58,0,0,0-12.5-7.29C411,55.71,383.49,55.78,383.49,55.78Z"/><path class="cls-1" d="M418.05,77a19.82,19.82,0,0,0-1.78-4.51c-.67-1.07-1.31-2.41-2.86-2.84a10.16,10.16,0,0,1,1.39,2.52c.35,1.2,1.65,5.45-1.61,7.54-3.33,1.69-11.5.59-11.5.59l-2.15,1.36,14.66.06a16,16,0,0,0,3-1.13c.2-.14,0-1.12-.19-2.05Z"/><path class="cls-1" d="M385.73,116.54V57.93h26.6q7.4,0,11.31,1.44A13.08,13.08,0,0,1,430,64.72c1.59,2.6,1.72,6.81,1.53,8.33a25,25,0,0,1-2.28,8.4,19.37,19.37,0,0,1-3.9,5.51,32.58,32.58,0,0,1-3.91,3.56S424,92.8,424,92.86c.36.38,1.77,2.24,2.89,3.82a43.88,43.88,0,0,1,3.05,5.63l6.6,14.23h-18l-8.19-17.86c-1.08-2.32-2.52-5.07-3.37-5.76-1.15-.91-4.34-1.32-5.79-1.32h-1.4v25.14ZM399.55,81.7h9.33a11.29,11.29,0,0,0,4.24-.59,4.77,4.77,0,0,0,2.54-2.06,5.92,5.92,0,0,0,1-3.41,7,7,0,0,0-1.57-4.37,7.79,7.79,0,0,0-5.93-3.11h-9.61Z"/><path class="cls-1" d="M248.74,96l10.71,2.1,3.28-.79a26.14,26.14,0,0,1-3.25,10.44,25.37,25.37,0,0,1-7.42,7.77c-2.62,1.8-8.14,3.43-12.75,3.69-6.64.37-12.3-1.09-15.84-3.56A30.47,30.47,0,0,1,213.74,105c-2.57-4.67-3.44-9.55-3.44-16.85,0-9.73,5-17.43,9.51-22.65s12.77-9,21.12-8.87c7.11.15,11.42,1.7,15.3,7.14a37.49,37.49,0,0,1,5.57,11.36l-16.62,4s.79-2,.79-2c-.21-.5-1.07.61-1.64-1.32-.7-2.4-3.38-4.69-5.47-4.74-4.17-.09-6.66,1.23-8.58,4.54-1.45,2.46-2.17,7-2.17,12.23,0,6.52,1.53,13.44,4.91,15.2,3.07,1.6,5.76,2.75,8.91,2.75s3.23-3.28,4.78-5.22S248,99.68,248.74,96Z"/><path class="cls-1" d="M237.18,105.47c3.06-.25,6.08-1.13,7.65-3.07s2.17-4.47,2.87-8.18l9.42,3.06v0l-9.46-3.08-1-2.18c-.43,2.94-1.43,6.81-2.78,8.91s-4.41,3.24-7.48,3.14c-3.53-.12-5-2-8.23-5.44C229.76,102.16,232,105.91,237.18,105.47Z"/><path class="cls-1" d="M244.39,73.3a9.71,9.71,0,0,0-2.46-2.56,11.56,11.56,0,0,1,.66,1c1.28,2,1.8,4.41,2.59,7.42l.78-1.9h0A14.64,14.64,0,0,0,244.39,73.3Z"/><path class="cls-1" d="M262.68,97.29,246.7,92s1,2.15,1,2.21l11.76,3.87S262.66,97.24,262.68,97.29Z"/><path class="cls-1" d="M247.7,94.22l11.74,3.85c-.95,4.46-1.35,6-3.38,9a19.82,19.82,0,0,1-7.55,6.76,26.14,26.14,0,0,1-11.72,2.66,28.58,28.58,0,0,1-13.56-3.16q-5.35-2.79-9.24-9.8t-3.89-18q0-14.59,6.83-22.44t19.35-7.84q9.78,0,15.39,4.5T260,73.63l-14,3.59a14.63,14.63,0,0,0-1.68-4,9.53,9.53,0,0,0-3.28-3.2,8.55,8.55,0,0,0-4.35-1.13,9.15,9.15,0,0,0-8.34,5q-2.19,3.69-2.19,11.57c0,6.52,1.08,10.63,2.32,13.5.85,2,3.4,6.8,8.75,6.49,3.07-.18,6.08-1.29,7.65-3.23S247,97.93,247.7,94.22Z"/><path class="cls-1" d="M211.28,86.62q0-14.59,6.84-22.43t19.34-7.84q9.79,0,15.39,4.5A21.3,21.3,0,0,1,256,64.59a15.06,15.06,0,0,0-3.7-5c-3.73-3-9.94-4.92-16.47-4.92q-12.51,0-19.34,7.84t-6.84,22.43q0,10.95,3.89,18a28.26,28.26,0,0,0,5.12,6.81,30.66,30.66,0,0,1-3.53-5.14Q211.29,97.57,211.28,86.62Z"/><path class="cls-1" d="M255.93,201.15c-8.36.41-16.26-1.15-24.87-1.15C110.64,200,15.41,153.67,0,105.14c1.69,58.54,104.74,102.19,231.92,102.19,93.17,0,183-27.26,213.85-59.32C410.71,179.1,339,200.55,255.93,201.15Z"/><path class="cls-1" d="M23.89,101.72c-2.05,53.85,105.31,97.6,226.26,97.6,2,0,4.74-.32,6.7-.34-117.91-1.54-220.43-44.35-220.53-97.26C36.21,43.25,143.9,4.28,258.41,4.28c12.93,0,50.31,2.07,50.31,2.07s-6-.91-7-1C155.1-14,26.42,35.08,23.89,101.72Z"/><path class="cls-1" d="M27.59,100C27.79,43,130,.51,253.77,2.18A498.45,498.45,0,0,1,341.7,11.7C309,4.18,272.34,0,233.2,0,103.17,0,.52,45.5,0,103c-.36,40.18,103.1,99,233.13,99,97.29,0,180.86-19.88,216.74-57.1-36,31.9-109.24,52.7-194.84,53.16C153.86,198.59,27.4,153.84,27.59,100Z"/><path class="cls-1" d="M199.52,200.65c9.2.45,17.33,1.06,17.33,1.06s-9-1.27-11.39-1.48c-96.83-8.68-171-54.24-177-92.39C22.15,68.35,71.3,31.55,131.67,16.59,47.31,31.94-.6,71.88,4.66,113.22,8.81,145.77,87.27,195.13,199.52,200.65Z"/></g></g></svg>