<?xml version="1.0" encoding="utf-8"?>
<!-- Svg Vector Icons : http://www.onlinewebfonts.com/icon -->
<!DOCTYPE svg PUBLIC "-//W3C//DTD SVG 1.1//EN" "http://www.w3.org/Graphics/SVG/1.1/DTD/svg11.dtd">
<svg version="1.1" xmlns="http://www.w3.org/2000/svg" xmlns:xlink="http://www.w3.org/1999/xlink" x="0px" y="0px" viewBox="0 0 1000 1000" enable-background="new 0 0 1000 1000" xml:space="preserve">
<metadata> Svg Vector Icons : http://www.onlinewebfonts.com/icon </metadata>
<g fill="#CCCCCC"><path d="M448.6,988.5c-6.4,0-12.8-2.2-18.1-6.6c-11.9-10-13.5-27.8-3.4-39.7c6.2-7.4,12.4-15.1,18.3-22.7c5.9-7.7,11.7-15.6,17.3-23.5c5.6-7.9,11.1-16.1,16.3-24.2c5.3-8.2,10.4-16.6,15.3-25c4.9-8.4,9.7-17,14.2-25.7c4.6-8.7,9-17.5,13.2-26.3c4.2-8.8,8.2-17.9,12.1-26.9c3.8-9.1,7.5-18.3,10.9-27.5c3.4-9.3,6.7-18.7,9.7-28.1c3-9.4,5.9-19.1,8.5-28.7c2.6-9.6,5.1-19.4,7.3-29.2c2.2-9.8,4.3-19.8,6-29.7c1.8-9.9,3.4-20.1,4.8-30.1c1.4-10.1,2.5-20.4,3.4-30.5c0.9-10.2,1.6-20.6,2.1-30.9c0.5-10.4,0.7-20.9,0.7-31.3c0-0.1,0-0.1,0-0.2s0-0.1,0-0.2c0-3-0.2-6-0.5-9c-0.3-2.9-0.7-5.8-1.3-8.7c-0.6-2.8-1.3-5.6-2.1-8.3c-0.8-2.7-1.8-5.4-2.9-8c-1.1-2.6-2.3-5.1-3.7-7.6c-1.3-2.5-2.8-4.9-4.4-7.2c-1.6-2.3-3.3-4.6-5-6.7c-1.8-2.1-3.7-4.2-5.6-6.2c-2-2-4.1-3.9-6.2-5.6c-2.2-1.8-4.4-3.5-6.7-5c-2.3-1.6-4.7-3-7.2-4.4c-2.5-1.3-5-2.6-7.6-3.7c-2.6-1.1-5.3-2.1-8-2.9c-2.7-0.8-5.5-1.6-8.4-2.1c-2.8-0.6-5.8-1-8.7-1.3c-5.9-0.6-12-0.6-17.9,0c-2.9,0.3-5.8,0.7-8.7,1.3c-2.8,0.6-5.6,1.3-8.3,2.1c-2.7,0.8-5.4,1.8-8,2.9c-2.6,1.1-5.1,2.3-7.6,3.7c-2.5,1.3-4.9,2.8-7.2,4.4c-2.3,1.6-4.6,3.2-6.7,5c-2.1,1.8-4.2,3.7-6.2,5.6c-2,2-3.9,4.1-5.6,6.2c-1.8,2.2-3.5,4.4-5,6.7c-1.6,2.3-3,4.7-4.4,7.2c-1.3,2.5-2.6,5-3.7,7.6c-1.1,2.6-2.1,5.3-2.9,8c-0.8,2.7-1.6,5.5-2.1,8.3c-0.6,2.9-1,5.8-1.3,8.7c-0.3,3-0.5,6-0.5,9c0,0.1,0,0.2,0,0.2c0,0.1,0,0.1,0,0.2c0,9.6-0.3,19.2-0.8,28.8c-0.5,9.4-1.3,19-2.4,28.3c-1,9.3-2.4,18.7-3.9,27.9c-1.6,9.1-3.4,18.3-5.4,27.4c-2,9-4.4,18-6.9,26.8c-2.5,8.8-5.3,17.6-8.3,26.2c-3,8.6-6.2,17.2-9.7,25.6c-3.4,8.4-7.1,16.7-11,24.9c-3.9,8.1-8,16.3-12.3,24.2c-4.3,7.9-8.8,15.7-13.5,23.4c-4.7,7.6-9.6,15.2-14.7,22.6c-5.1,7.3-10.4,14.6-15.9,21.7c-5.5,7.1-11.2,14.1-17,20.8c-5.8,6.7-11.9,13.4-18,19.8c-6.2,6.4-12.6,12.8-19.1,18.9c-6.5,6.1-13.2,12.1-20,17.8c-11.9,10-29.7,8.5-39.7-3.4c-10-11.9-8.5-29.7,3.4-39.7c6-5.1,12-10.4,17.8-15.8c5.8-5.4,11.5-11.1,16.9-16.8c5.5-5.7,10.9-11.6,16-17.6c5.2-6,10.2-12.2,15.1-18.5c4.8-6.3,9.6-12.8,14.1-19.3c4.5-6.5,8.9-13.3,13.1-20c4.2-6.8,8.2-13.8,12-20.8c3.8-7,7.5-14.2,10.9-21.4c3.4-7.2,6.7-14.7,9.8-22.1c3.1-7.5,5.9-15.1,8.6-22.7c2.7-7.6,5.1-15.5,7.4-23.3c2.2-7.8,4.3-15.8,6.1-23.8c1.8-8,3.4-16.2,4.8-24.3c1.4-8.2,2.6-16.5,3.5-24.8c0.9-8.3,1.7-16.8,2.1-25.2c0.5-8.5,0.7-17.1,0.7-25.6c0-0.1,0-0.2,0-0.2c0-0.1,0-0.1,0-0.2c0-4.9,0.2-9.8,0.7-14.7c0.5-4.8,1.2-9.6,2.2-14.3c0.9-4.6,2.1-9.3,3.5-13.8c1.4-4.5,3-8.9,4.8-13.2c1.8-4.3,3.8-8.5,6-12.6c2.2-4,4.6-8,7.2-11.8c2.6-3.8,5.3-7.5,8.3-11.1c2.9-3.5,6-7,9.3-10.2c3.2-3.2,6.7-6.4,10.2-9.3c3.5-2.9,7.2-5.7,11-8.3c3.8-2.6,7.8-5,11.8-7.2c4.1-2.2,8.3-4.2,12.6-6c4.3-1.8,8.8-3.4,13.2-4.8c4.5-1.4,9.1-2.6,13.8-3.5c4.7-1,9.5-1.7,14.3-2.2c9.7-1,19.6-1,29.3,0c4.8,0.5,9.6,1.2,14.3,2.2c4.6,1,9.3,2.1,13.8,3.5c4.5,1.4,8.9,3,13.2,4.8c4.3,1.8,8.5,3.8,12.6,6.1c4,2.2,8,4.6,11.8,7.2c3.8,2.6,7.5,5.3,11,8.3c3.5,2.9,7,6,10.2,9.3c3.2,3.2,6.4,6.7,9.3,10.2c2.9,3.5,5.7,7.2,8.3,11c2.6,3.8,5,7.8,7.2,11.8c2.2,4.1,4.2,8.3,6,12.6c1.8,4.3,3.4,8.8,4.8,13.2c1.4,4.5,2.6,9.1,3.5,13.8c1,4.7,1.7,9.5,2.2,14.3c0.5,4.8,0.7,9.8,0.7,14.7c0,0.1,0,0.2,0,0.2c0,0.1,0,0.1,0,0.2c0,11.3-0.3,22.6-0.8,33.8c-0.5,11.1-1.3,22.4-2.3,33.5c-1,11-2.2,22.1-3.7,33c-1.5,10.9-3.2,21.8-5.1,32.6c-1.9,10.7-4.1,21.5-6.5,32.1c-2.4,10.5-5.1,21.2-7.9,31.6c-2.8,10.4-6,20.8-9.2,31c-3.3,10.2-6.8,20.4-10.5,30.4c-3.7,10-7.7,20-11.8,29.8c-4.1,9.8-8.5,19.6-13.1,29.2c-4.5,9.5-9.3,19.1-14.3,28.5c-4.9,9.3-10.1,18.7-15.4,27.8c-5.3,9.1-10.9,18.2-16.6,27c-5.7,8.8-11.6,17.7-17.7,26.2c-6,8.6-12.3,17.1-18.7,25.4c-6.4,8.3-13,16.6-19.8,24.6C464.7,985.1,456.7,988.5,448.6,988.5z M598.4,980.9c-5.2,0-10.5-1.5-15.3-4.5c-13.1-8.4-16.8-25.9-8.4-38.9c5-7.8,10-15.8,14.8-23.8c4.8-8,9.5-16.2,14-24.3c4.5-8.2,8.9-16.5,13.1-24.9c4.2-8.4,8.4-16.9,12.3-25.4c3.9-8.5,7.8-17.2,11.4-25.9c3.6-8.7,7.2-17.5,10.5-26.3c3.3-8.8,6.6-17.8,9.6-26.8c3-9,6-18.1,8.7-27.2c2.7-9.1,5.3-18.4,7.7-27.6c2.4-9.3,4.7-18.7,6.8-28c3.4-15.2,18.4-24.8,33.6-21.4c15.2,3.4,24.8,18.4,21.4,33.6c-2.2,10-4.6,20.1-7.2,30c-2.6,9.9-5.3,19.8-8.3,29.6c-2.9,9.7-6,19.5-9.3,29.1c-3.2,9.6-6.7,19.2-10.3,28.7c-3.6,9.4-7.4,18.9-11.3,28.2c-3.9,9.2-8,18.5-12.2,27.7c-4.2,9.1-8.6,18.2-13.1,27.2c-4.5,8.9-9.2,17.9-14.1,26.6c-4.8,8.7-9.8,17.5-14.9,26.1c-5.1,8.5-10.4,17.1-15.8,25.5C616.7,976.3,607.7,980.9,598.4,980.9z M320.8,955.4c-7.3,0-14.6-2.8-20.2-8.5c-10.9-11.1-10.6-29,0.5-39.8c6.6-6.4,13-13,19.3-19.7c6.2-6.7,12.4-13.7,18.3-20.7c5.9-7,11.7-14.2,17.3-21.5c5.6-7.3,11-14.8,16.2-22.4c5.2-7.6,10.3-15.4,15.2-23.2c4.9-7.8,9.6-15.9,14-24c4.5-8.1,8.8-16.4,12.9-24.7c4.1-8.3,8-16.9,11.7-25.4c3.7-8.5,7.2-17.3,10.4-26c3.3-8.8,6.3-17.7,9.2-26.7c2.8-9,5.5-18.1,7.9-27.2c2.4-9.2,4.6-18.5,6.5-27.8c1.9-9.3,3.7-18.9,5.1-28.3c1.5-9.5,2.7-19.2,3.7-28.8c1-9.7,1.8-19.5,2.3-29.2c0.5-9.8,0.8-19.8,0.8-29.6c0-15.6,12.6-28.2,28.2-28.2c15.6,0,28.2,12.6,28.2,28.2c0,10.8-0.3,21.8-0.8,32.5c-0.6,10.7-1.4,21.5-2.5,32.1c-1.1,10.6-2.5,21.2-4.1,31.6c-1.6,10.4-3.5,20.8-5.6,31.1c-2.1,10.2-4.5,20.5-7.2,30.6c-2.6,10-5.5,20.1-8.6,30c-3.1,9.8-6.5,19.7-10.1,29.3c-3.6,9.6-7.4,19.2-11.5,28.6c-4,9.4-8.3,18.8-12.8,27.9c-4.5,9.1-9.2,18.3-14.2,27.2c-4.9,8.9-10.1,17.7-15.4,26.3c-5.3,8.6-10.9,17.2-16.7,25.5c-5.7,8.3-11.7,16.6-17.9,24.6c-6.1,8-12.5,16-19,23.7c-6.5,7.7-13.3,15.3-20.1,22.7c-6.9,7.4-14,14.7-21.2,21.7C335,952.8,327.9,955.4,320.8,955.4z M769.9,904.4c-3.7,0-7.5-0.7-11.1-2.3c-14.3-6.1-20.9-22.7-14.8-37c3-6.9,5.9-14,8.7-21c2.8-7,5.6-14.2,8.2-21.3c2.6-7.1,5.2-14.4,7.7-21.5c2.5-7.2,4.9-14.5,7.2-21.8c2.3-7.3,4.5-14.7,6.6-22c2.1-7.4,4.2-14.8,6.1-22.2c1.9-7.4,3.8-15,5.5-22.5c1.8-7.5,3.4-15.2,5-22.7c1.6-7.6,3.1-15.3,4.4-22.9c1.4-7.7,2.7-15.4,3.9-23.1c1.2-7.7,2.3-15.5,3.3-23.3c1-7.8,1.9-15.7,2.7-23.5c0.8-7.8,1.5-15.8,2.1-23.6c0.6-7.9,1.1-15.9,1.5-23.8c0.4-7.9,0.7-16,0.9-24c0.2-8,0.3-16.1,0.3-24.1c0-0.1,0-0.1,0-0.2s0-0.1,0-0.2c0-10.9-0.6-21.8-1.6-32.6c-1.1-10.6-2.7-21.2-4.8-31.6c-2.1-10.2-4.7-20.5-7.8-30.5c-3.1-9.9-6.7-19.7-10.7-29.2c-4-9.4-8.5-18.8-13.4-27.8c-4.9-9-10.2-17.8-15.9-26.2c-5.7-8.4-11.8-16.7-18.3-24.5c-6.5-7.8-13.4-15.4-20.5-22.6c-7.2-7.2-14.8-14.1-22.6-20.5c-7.8-6.5-16.1-12.6-24.5-18.3c-8.5-5.7-17.3-11.1-26.2-15.9c-9-4.9-18.4-9.4-27.8-13.4c-9.5-4-19.4-7.6-29.2-10.7c-10-3.1-20.2-5.7-30.5-7.8c-10.4-2.1-21-3.7-31.6-4.8c-14.5-1.5-25.3-13.7-25.3-28c0-1,0-1.9,0.1-2.9c1.6-15.5,15.4-26.8,30.9-25.2c12.5,1.3,25,3.2,37.2,5.7c12.1,2.5,24.2,5.6,35.9,9.2c11.6,3.6,23.2,7.9,34.4,12.6c11.1,4.7,22.1,10,32.8,15.8c10.5,5.7,20.9,12,30.9,18.8c9.9,6.7,19.6,13.9,28.8,21.5c9.2,7.6,18.1,15.7,26.6,24.2c8.4,8.4,16.6,17.4,24.2,26.6c7.6,9.2,14.9,18.9,21.5,28.8c6.7,10,13,20.3,18.8,30.9c5.8,10.6,11.1,21.6,15.8,32.8c4.7,11.2,9,22.8,12.6,34.4c3.7,11.8,6.8,23.9,9.2,35.9c2.5,12.2,4.4,24.7,5.7,37.2c1.3,12.6,1.9,25.5,1.9,38.3c0,0.1,0,0.2,0,0.2c0,0.1,0,0.1,0,0.2c0,8.5-0.1,17.1-0.3,25.6c-0.2,8.4-0.5,17-1,25.4c-0.4,8.4-1,16.9-1.6,25.2c-0.6,8.3-1.4,16.8-2.3,25.1c-0.9,8.3-1.8,16.6-2.9,24.9c-1.1,8.2-2.2,16.5-3.5,24.7c-1.3,8.1-2.6,16.4-4.1,24.5c-1.5,8.1-3,16.3-4.7,24.3c-1.6,8-3.4,16.1-5.3,24.1c-1.9,8-3.8,16-5.9,23.8c-2,7.8-4.2,15.8-6.5,23.6c-2.2,7.8-4.6,15.7-7,23.4c-2.4,7.7-5,15.5-7.6,23.1c-2.6,7.6-5.3,15.3-8.1,22.9c-2.8,7.5-5.7,15.1-8.7,22.6c-3,7.5-6.1,15-9.2,22.3C791.3,898,780.9,904.4,769.9,904.4z M133.3,810.3c-8.3,0-16.6-3.7-22.2-10.8c-9.6-12.2-7.5-29.9,4.7-39.6c4.8-3.7,9.5-7.7,14-11.7c4.5-4,9-8.2,13.3-12.4c4.3-4.2,8.6-8.7,12.6-13.1c4.1-4.5,8.1-9.1,11.9-13.8c3.8-4.7,7.6-9.5,11.1-14.4c3.6-4.9,7-10,10.3-15.1c3.3-5.1,6.5-10.4,9.5-15.6c3-5.3,5.9-10.7,8.6-16.2c2.7-5.5,5.3-11.1,7.7-16.7c2.4-5.6,4.7-11.4,6.8-17.2c2.1-5.8,4.1-11.7,5.8-17.7c1.8-6,3.4-12,4.8-18.1c1.4-6.1,2.7-12.3,3.8-18.5c1.1-6.2,2-12.6,2.8-18.9c0.7-6.4,1.3-12.8,1.7-19.2c0.3-5.2,0.5-10.4,0.5-15.6c-0.2-1.4-0.3-2.9-0.3-4.4c0-8.8,0.4-17.7,1.3-26.5c0.9-8.6,2.2-17.3,3.9-25.7c1.7-8.4,3.9-16.7,6.4-24.9c2.5-8,5.4-16.1,8.7-23.8c3.3-7.7,6.9-15.3,10.9-22.7c4-7.3,8.3-14.5,13-21.4c4.6-6.8,9.6-13.6,14.9-19.9c5.3-6.4,10.9-12.6,16.7-18.4c11-11,28.8-11,39.8,0c5.5,5.5,8.3,12.7,8.3,19.9s-2.8,14.4-8.3,19.9c-4.6,4.6-9,9.4-13.1,14.4c-4.1,5-8.1,10.3-11.7,15.6c-3.6,5.4-7.1,11-10.1,16.7c-3.1,5.7-6,11.7-8.5,17.7c-2.6,6.1-4.9,12.3-6.8,18.6c-2,6.4-3.7,12.9-5,19.4c-1.4,6.6-2.4,13.4-3.1,20.1c-0.6,5.6-0.9,11.3-1,16.9c0.2,1.4,0.3,2.8,0.3,4.3c0,7.6-0.2,15.3-0.7,22.8c-0.4,7.5-1.1,15.1-2,22.5c-0.9,7.4-2,14.8-3.3,22.1c-1.3,7.2-2.8,14.5-4.5,21.7c-1.7,7.1-3.6,14.2-5.7,21.2c-2.1,6.9-4.4,13.9-6.8,20.7c-2.5,6.8-5.1,13.6-8,20.2c-2.8,6.6-5.9,13.2-9.1,19.6c-3.2,6.4-6.6,12.8-10.1,19c-3.5,6.2-7.3,12.4-11.1,18.3c-3.8,6-7.9,11.9-12.1,17.6c-4.2,5.7-8.6,11.4-13,16.9c-4.5,5.5-9.1,10.9-13.9,16.1c-4.8,5.2-9.7,10.4-14.8,15.3c-5.1,5-10.3,9.9-15.6,14.5c-5.3,4.7-10.8,9.3-16.4,13.6C145.5,808.4,139.4,810.3,133.3,810.3z M73.8,707.8c-7.8,0-15.5-3.2-21.1-9.5c-10.3-11.6-9.3-29.4,2.4-39.8c2.7-2.4,5.3-4.9,7.9-7.4c2.6-2.5,5.1-5.1,7.5-7.8c2.4-2.6,4.8-5.4,7.1-8.2c2.3-2.8,4.5-5.6,6.7-8.5c2.2-2.9,4.3-5.9,6.2-8.9c2-3,3.9-6.1,5.8-9.2c1.8-3.1,3.6-6.3,5.3-9.5c1.7-3.2,3.3-6.5,4.8-9.8c1.5-3.3,3-6.7,4.3-10.1c1.3-3.4,2.6-6.9,3.8-10.4c1.2-3.5,2.3-7.1,3.3-10.6c1-3.6,1.9-7.2,2.7-10.8c0.8-3.6,1.5-7.4,2.1-11.1c0.6-3.7,1.1-7.5,1.5-11.3c0.4-3.8,0.7-7.6,0.9-11.5c0.2-3.8,0.3-7.8,0.3-11.6c0-0.1,0-0.1,0-0.2c0-0.1,0-0.1,0-0.2c0-12.8,0.6-25.6,1.9-38.3c1.3-12.5,3.2-25,5.7-37.2c2.5-12.1,5.6-24.2,9.2-35.9c3.6-11.6,7.8-23.2,12.6-34.4c4.7-11.1,10-22.1,15.8-32.8c7.4-13.7,24.5-18.7,38.2-11.3c9.4,5.1,14.7,14.8,14.7,24.8c0,4.5-1.1,9.2-3.4,13.4c-4.9,9-9.4,18.4-13.4,27.8c-4,9.5-7.6,19.4-10.7,29.2c-3.1,10-5.7,20.2-7.8,30.5c-2.1,10.4-3.7,21-4.8,31.6c-1.1,10.8-1.6,21.7-1.6,32.6c0,0.1,0,0.2,0,0.2c0,0.1,0,0.1,0,0.2c0,4.9-0.1,9.8-0.4,14.7c-0.3,4.8-0.7,9.7-1.2,14.5c-0.5,4.8-1.2,9.6-2,14.3c-0.8,4.7-1.7,9.4-2.7,14c-1,4.6-2.2,9.3-3.4,13.8c-1.3,4.5-2.6,9-4.1,13.5c-1.5,4.4-3.1,8.8-4.8,13.2c-1.7,4.3-3.6,8.6-5.5,12.8c-1.9,4.2-4,8.4-6.1,12.5c-2.1,4.1-4.4,8.1-6.7,12.1c-2.3,3.9-4.8,7.9-7.3,11.7c-2.5,3.8-5.2,7.6-7.9,11.3c-2.7,3.7-5.6,7.3-8.5,10.8c-2.9,3.5-5.9,7-9,10.4c-3.1,3.4-6.3,6.7-9.5,9.9c-3.3,3.2-6.6,6.4-10,9.4C87.1,705.4,80.4,707.8,73.8,707.8z M728.7,591.8c-0.7,0-1.4,0-2.1-0.1c-15.5-1.1-27.2-14.6-26-30.2c0.7-9.8,1.3-19.8,1.6-29.7c0.4-9.9,0.5-20,0.5-30c0-0.1,0-0.1,0-0.2c0-0.1,0-0.1,0-0.2c0-6.9-0.4-13.9-1-20.8c-0.7-6.7-1.7-13.5-3.1-20.1c-1.3-6.5-3-13.1-5-19.4c-0.9-2.8-1.3-5.6-1.3-8.4c0-12,7.7-23.1,19.8-26.9c14.9-4.6,30.6,3.7,35.3,18.5c2.5,8.1,4.7,16.5,6.4,24.9c1.7,8.5,3,17.1,3.9,25.7c0.9,8.7,1.3,17.6,1.3,26.5c0,0.1,0,0.2,0,0.2c0,0.1,0,0.1,0,0.2c0,10.6-0.2,21.4-0.6,32.1c-0.4,10.6-1,21.3-1.7,31.8C755.7,580.5,743.3,591.8,728.7,591.8z M38.3,532.4c-0.2,0-0.4,0-0.6,0c0,0,0,0,0,0c0,0,0,0,0,0c-2.3-0.1-4.6-0.4-6.7-1c-4.8-1.3-9.1-3.9-12.6-7.3h0c0,0,0,0,0,0c0,0,0,0,0,0c0,0,0,0,0,0c0,0,0,0,0,0c0,0,0,0,0,0c-2.6-2.6-4.6-5.7-6-9.1c-1.3-3.3-2.1-6.8-2.1-10.5c0,0,0,0,0,0c0,0,0-0.1,0-0.1l0-0.8c0,0,0-0.2,0-0.2c0-0.1,0-0.1,0-0.2l0-0.8c0-0.1,0-0.2,0-0.2l0-0.6c0-16.7,0.8-33.6,2.5-50.1c1.7-16.3,4.1-32.7,7.4-48.7c3.2-15.8,7.3-31.6,12.1-47c4.7-15.2,10.3-30.4,16.5-45c6.1-14.5,13.1-29,20.6-42.8c7.5-13.8,15.7-27.4,24.5-40.4c8.7-13,18.2-25.6,28.2-37.7c9.9-12,20.6-23.7,31.6-34.8c11-11,28.8-11,39.8,0c11,11,11,28.8,0,39.8c-9.8,9.8-19.2,20.1-28,30.8c-8.8,10.7-17.2,21.9-25,33.4c-7.8,11.5-15.1,23.6-21.7,35.8c-6.7,12.3-12.8,25-18.2,37.9c-5.5,13-10.4,26.4-14.6,39.8C81.6,386,78,400,75.1,414c-2.9,14.2-5.1,28.6-6.6,43.1c-1.4,13.7-2.1,27.7-2.2,41.6c0.1,1.1,0.2,2.1,0.2,3.2c0,0.2,0,0.4,0,0.6c0,0.2,0,0.4,0,0.6l0,1c0,0.1,0,0.2,0,0.3l0,0.3l0,0c0,0.1,0,0.2,0,0.2c0,0.1,0,0.1,0,0.2c0,0,0,0.1,0,0.1C65.9,520.4,53.4,532.4,38.3,532.4z M961.8,529.6c-15.6,0-28.2-12.6-28.2-28.2c0-14.8-0.8-29.8-2.2-44.4c-1.5-14.4-3.7-28.9-6.6-43.1c-2.9-14-6.4-28-10.7-41.6c-4.2-13.4-9.1-26.8-14.6-39.8c-5.4-12.9-11.6-25.6-18.2-37.9c-6.6-12.2-13.9-24.2-21.7-35.8c-7.7-11.5-16.1-22.7-25-33.4c-8.8-10.7-18.2-21-28-30.8c-11-11-11-28.8,0-39.8c11-11,28.8-11,39.8,0c11,11,21.7,22.7,31.6,34.8c10,12.1,19.4,24.8,28.2,37.7c8.8,13,17,26.6,24.5,40.4c7.5,13.9,14.5,28.3,20.6,42.8c6.2,14.7,11.7,29.8,16.5,45c4.8,15.4,8.8,31.2,12.1,47c3.3,16,5.8,32.4,7.4,48.7c1.7,16.5,2.5,33.4,2.5,50.1C990,517,977.4,529.6,961.8,529.6z M663.3,366.3c-7.2,0-14.4-2.8-19.9-8.3c-4.6-4.6-9.4-9-14.4-13.1c-5-4.1-10.2-8-15.6-11.7c-5.4-3.6-11-7.1-16.7-10.1c-5.7-3.1-11.7-6-17.7-8.5c-6.1-2.6-12.3-4.9-18.6-6.8c-6.4-2-12.9-3.7-19.4-5c-6.6-1.4-13.4-2.4-20.1-3.1c-13.7-1.4-27.9-1.4-41.6,0c-6.7,0.7-13.5,1.7-20.1,3.1c-15.2,3.1-30.1-6.7-33.2-22c-0.4-1.9-0.6-3.8-0.6-5.7c0-13.1,9.2-24.8,22.5-27.6c8.5-1.7,17.1-3.1,25.7-3.9c17.5-1.8,35.5-1.8,52.9,0c8.6,0.9,17.3,2.2,25.7,3.9c8.4,1.7,16.7,3.9,24.9,6.4c8,2.5,16.1,5.4,23.8,8.7c7.7,3.3,15.3,6.9,22.7,10.9c7.3,4,14.5,8.3,21.4,13c6.8,4.6,13.6,9.6,19.9,14.9c6.4,5.3,12.6,10.9,18.4,16.7c5.5,5.5,8.3,12.7,8.3,19.9c0,7.2-2.8,14.4-8.3,19.9S670.5,366.3,663.3,366.3z M255,284.6c-7.2,0-14.4-2.8-19.9-8.3c-5.5-5.5-8.3-12.7-8.3-19.9c0-7.2,2.8-14.4,8.3-19.9c8.4-8.4,17.4-16.6,26.6-24.2c9.2-7.6,18.9-14.9,28.8-21.5c9.9-6.7,20.3-13,30.9-18.8c10.6-5.8,21.6-11.1,32.8-15.8c11.2-4.7,22.8-9,34.4-12.6c11.8-3.7,23.9-6.8,35.9-9.2c15.2-3.1,30.1,6.7,33.2,22c0.4,1.9,0.6,3.8,0.6,5.7c0,13.1-9.2,24.8-22.5,27.6c-10.2,2.1-20.5,4.7-30.5,7.8c-9.9,3.1-19.7,6.7-29.2,10.7c-9.4,4-18.8,8.5-27.8,13.4c-9,4.9-17.8,10.2-26.2,15.9c-8.4,5.7-16.7,11.8-24.5,18.3c-7.8,6.5-15.4,13.4-22.6,20.5C269.4,281.9,262.2,284.6,255,284.6z M758.3,146.6c-5.4,0-10.9-1.6-15.7-4.8c-11.5-7.8-23.6-15.1-35.8-21.7c-12.3-6.7-25-12.8-37.9-18.2c-13-5.5-26.4-10.4-39.8-14.6c-14.9-4.6-23.2-20.4-18.5-35.3c4.6-14.9,20.4-23.2,35.3-18.5c15.2,4.7,30.4,10.3,45,16.5c14.5,6.1,29,13.1,42.9,20.6c13.8,7.5,27.4,15.7,40.4,24.5c12.9,8.7,16.3,26.2,7.6,39.1C776.2,142.3,767.3,146.6,758.3,146.6z M279.8,123.5c-10,0-19.7-5.3-24.8-14.7c-7.4-13.7-2.4-30.8,11.3-38.2c13.9-7.5,28.3-14.5,42.8-20.6c14.7-6.2,29.8-11.7,45.1-16.5c15.4-4.8,31.2-8.8,47-12.1c16-3.3,32.4-5.8,48.7-7.4c16.5-1.7,33.4-2.5,50.1-2.5c15.6,0,28.2,12.6,28.2,28.2S515.6,67.8,500,67.8c-14.8,0-29.8,0.8-44.4,2.2c-14.4,1.5-28.9,3.7-43.1,6.6c-14,2.9-28,6.4-41.6,10.7c-13.4,4.2-26.9,9.1-39.8,14.6c-12.9,5.4-25.6,11.6-37.9,18.2C288.9,122.4,284.3,123.5,279.8,123.5z"/></g>
</svg>