<?xml version="1.0" encoding="iso-8859-1"?>
<!-- Generator: Adobe Illustrator 19.0.0, SVG Export Plug-In . SVG Version: 6.00 Build 0)  -->
<svg version="1.1" id="Layer_1" xmlns="http://www.w3.org/2000/svg" xmlns:xlink="http://www.w3.org/1999/xlink" x="0px" y="0px"
	 viewBox="0 0 482.072 482.072" style="enable-background:new 0 0 482.072 482.072;" xml:space="preserve">
<g>
	<g>
		<g>
			<path fill="#CCCCCC" d="M381.036,72.071H265.178l57.929-57.929L308.964,0l-67.929,67.929L173.107,0l-14.143,14.143l57.929,57.929H101.036
				c-5.523,0-10,4.477-10,10v390c0,5.523,4.477,10,10,10h280c5.522,0,10-4.477,10-10v-390
				C391.036,76.548,386.558,72.071,381.036,72.071z M371.036,462.071h-260v-75h260V462.071z M226.036,287.071h30
				c16.542,0,30,13.458,30,30v50h-90v-50C196.036,300.529,209.494,287.071,226.036,287.071z M216.036,242.071v-25
				c0-13.785,11.215-25,25-25c13.785,0,25,11.215,25,25v25c0,13.785-11.215,25-25,25
				C227.251,267.071,216.036,255.856,216.036,242.071z M371.036,122.071h-60v20h60v225h-65v-50
				c0-20.682-12.622-38.471-30.568-46.069c6.589-7.829,10.568-17.922,10.568-28.931v-25c0-24.813-20.187-45-45-45s-45,20.187-45,45
				v25c0,11.009,3.98,21.102,10.568,28.931c-17.946,7.598-30.568,25.387-30.568,46.069v50h-65v-225h175v-20h-175v-30h260V122.071z"
				/>
			<rect fill="#CCCCCC" x="131.036" y="402.071" width="45" height="20"/>
			<rect fill="#CCCCCC" x="131.036" y="432.071" width="90" height="20"/>
			<circle fill="#CCCCCC" cx="331.036" cy="427.071" r="20"/>
		</g>
	</g>
</g>
<g>
</g>
<g>
</g>
<g>
</g>
<g>
</g>
<g>
</g>
<g>
</g>
<g>
</g>
<g>
</g>
<g>
</g>
<g>
</g>
<g>
</g>
<g>
</g>
<g>
</g>
<g>
</g>
<g>
</g>
</svg>
