<?xml version="1.0" encoding="UTF-8"?>
<svg width="1487px" height="907px" viewBox="0 0 1487 907" version="1.1" xmlns="http://www.w3.org/2000/svg" xmlns:xlink="http://www.w3.org/1999/xlink">
    <!-- Generator: Sketch 49 (51002) - http://www.bohemiancoding.com/sketch -->
    <title>triangles</title>
    <desc>Created with Sketch.</desc>
    <defs></defs>
    <g id="triangles" stroke="none" stroke-width="1" fill="none" fill-rule="evenodd" fill-opacity="0" opacity="0.502660779" stroke-linejoin="round">
        <g id="triangles-download" transform="translate(-5.000000, -3.000000)" fill-rule="nonzero" stroke="#193A5E">
            <polygon id="Shape" fill="#1C3F64" points="1217 915 1061 868 965 865"></polygon>
            <polygon id="Shape" fill="#132942" points="1217 915 965 865 748 915"></polygon>
            <polygon id="Shape" fill="#173352" points="1492 866 1469 791 1420 839"></polygon>
            <polygon id="Shape" fill="#12283F" points="1497 565 1417 635 1432 714"></polygon>
            <polygon id="Shape" fill="#173352" points="1497 565 1481 543 1419 574"></polygon>
            <polygon id="Shape" fill="#132941" points="1497 565 1419 574 1417 635"></polygon>
            <polygon id="Shape" fill="#142D47" points="1497 232 1391 148 1398 347"></polygon>
            <polygon id="Shape" fill="#142D48" points="1497 232 1398 347 1451 422"></polygon>
            <polygon id="Shape" fill="#12283F" points="1497 458 1397 478 1481 543"></polygon>
            <polygon id="Shape" fill="#16314F" points="1497 458 1451 422 1397 478"></polygon>
            <polygon id="Shape" fill="#132942" points="1497 458 1481 543 1497 565"></polygon>
            <polygon id="Shape" fill="#173452" points="1497 458 1497 232 1451 422"></polygon>
            <polygon id="Shape" fill="#16314E" points="1497 760 1497 565 1432 714"></polygon>
            <polygon id="Shape" fill="#132941" points="1497 760 1432 714 1469 791"></polygon>
            <polygon id="Shape" fill="#132B44" points="1497 128 1477 105 1404 132"></polygon>
            <polygon id="Shape" fill="#12283F" points="1497 767 1497 760 1469 791"></polygon>
            <polygon id="Shape" fill="#193758" points="1497 767 1469 791 1492 866"></polygon>
            <polygon id="Shape" fill="#16314E" points="1497 223 1391 148 1497 232"></polygon>
            <polygon id="Shape" fill="#173351" points="1497 223 1404 132 1391 148"></polygon>
            <polygon id="Shape" fill="#152F4B" points="1497 223 1497 128 1404 132"></polygon>
            <polygon id="Shape" fill="#19385A" points="1497 11 1424 60 1477 105"></polygon>
            <polygon id="Shape" fill="#183656" points="1497 11 1426 42 1424 60"></polygon>
            <polygon id="Shape" fill="#1E436A" points="1497 11 1477 105 1497 128"></polygon>
            <polygon id="Shape" fill="#152F4B" points="1497 0 1213 0 1378 9"></polygon>
            <polygon id="Shape" fill="#183555" points="1497 0 1426 42 1497 11"></polygon>
            <polygon id="Shape" fill="#12283F" points="1497 0 1378 9 1426 42"></polygon>
            <polygon id="Shape" fill="#132A43" points="1497 915 1492 866 1420 839"></polygon>
            <polygon id="Shape" fill="#16304C" points="1497 915 1420 839 1376 915"></polygon>
            <polygon id="Shape" fill="#12283F" points="1432 714 1417 635 1416 704"></polygon>
            <polygon id="Shape" fill="#16324F" points="1398 347 1391 148 1310 309"></polygon>
            <polygon id="Shape" fill="#152E4A" points="1481 543 1397 478 1419 574"></polygon>
            <polygon id="Shape" fill="#12283F" points="1426 42 1378 9 1392 29"></polygon>
            <polygon id="Shape" fill="#12283F" points="1477 105 1424 60 1404 132"></polygon>
            <polygon id="Shape" fill="#152E4A" points="1469 791 1432 714 1420 839"></polygon>
            <polygon id="Shape" fill="#12283F" points="1376 915 1290 894 1217 915"></polygon>
            <polygon id="Shape" fill="#12283F" points="1419 574 1391 595 1417 635"></polygon>
            <polygon id="Shape" fill="#12283F" points="1420 839 1368 901 1376 915"></polygon>
            <polygon id="Shape" fill="#132942" points="1432 714 1342 824 1420 839"></polygon>
            <polygon id="Shape" fill="#12283F" points="1432 714 1416 704 1342 824"></polygon>
            <polygon id="Shape" fill="#193859" points="1451 422 1398 347 1358 374"></polygon>
            <polygon id="Shape" fill="#132B44" points="1451 422 1358 374 1397 478"></polygon>
            <polygon id="Shape" fill="#152E49" points="1417 635 1340 671 1416 704"></polygon>
            <polygon id="Shape" fill="#142C47" points="1419 574 1397 478 1339 494"></polygon>
            <polygon id="Shape" fill="#152F4B" points="1424 60 1372 44 1404 132"></polygon>
            <polygon id="Shape" fill="#12283F" points="1426 42 1392 29 1398 41"></polygon>
            <polygon id="Shape" fill="#132B44" points="1391 148 1256 256 1310 309"></polygon>
            <polygon id="Shape" fill="#152F4C" points="1416 704 1340 671 1342 824"></polygon>
            <polygon id="Shape" fill="#152F4B" points="1419 574 1339 494 1391 595"></polygon>
            <polygon id="Shape" fill="#12283F" points="1424 60 1398 41 1372 44"></polygon>
            <polygon id="Shape" fill="#12283F" points="1426 42 1398 41 1424 60"></polygon>
            <polygon id="Shape" fill="#152F4B" points="1342 824 1340 671 1274 717"></polygon>
            <polygon id="Shape" fill="#15304C" points="1417 635 1346 631 1340 671"></polygon>
            <polygon id="Shape" fill="#142C47" points="1420 839 1342 824 1368 901"></polygon>
            <polygon id="Shape" fill="#142B45" points="1404 132 1372 44 1317 94"></polygon>
            <polygon id="Shape" fill="#16314E" points="1378 9 1213 0 1361 21"></polygon>
            <polygon id="Shape" fill="#142D48" points="1391 595 1339 494 1305 531"></polygon>
            <polygon id="Shape" fill="#12283F" points="1417 635 1391 595 1346 631"></polygon>
            <polygon id="Shape" fill="#122941" points="1391 148 1262 133 1256 256"></polygon>
            <polygon id="Shape" fill="#12283F" points="1397 478 1358 374 1339 494"></polygon>
            <polygon id="Shape" fill="#122840" points="1404 132 1317 94 1391 148"></polygon>
            <polygon id="Shape" fill="#152F4B" points="1398 347 1310 309 1358 374"></polygon>
            <polygon id="Shape" fill="#12283F" points="1398 41 1392 29 1372 44"></polygon>
            <polygon id="Shape" fill="#152F4B" points="1391 148 1317 94 1262 133"></polygon>
            <polygon id="Shape" fill="#173351" points="1391 595 1305 531 1346 631"></polygon>
            <polygon id="Shape" fill="#12283F" points="1392 29 1378 9 1361 21"></polygon>
            <polygon id="Shape" fill="#12283F" points="1392 29 1361 21 1372 44"></polygon>
            <polygon id="Shape" fill="#12283F" points="1217 915 1194 902 1061 868"></polygon>
            <polygon id="Shape" fill="#152F4A" points="1358 374 1278 360 1339 494"></polygon>
            <polygon id="Shape" fill="#12283F" points="1368 901 1342 824 1290 894"></polygon>
            <polygon id="Shape" fill="#1E446C" points="1376 915 1368 901 1290 894"></polygon>
            <polygon id="Shape" fill="#1A3B5E" points="1372 44 1361 21 1317 94"></polygon>
            <polygon id="Shape" fill="#142C47" points="1342 824 1274 717 1246 748"></polygon>
            <polygon id="Shape" fill="#132A43" points="1310 309 1256 256 1261 277"></polygon>
            <polygon id="Shape" fill="#152E4A" points="1358 374 1310 309 1278 360"></polygon>
            <polygon id="Shape" fill="#142C46" points="1361 21 1213 0 1317 94"></polygon>
            <polygon id="Shape" fill="#152E49" points="1339 494 1188 421 1305 531"></polygon>
            <polygon id="Shape" fill="#152F4B" points="1339 494 1278 360 1188 421"></polygon>
            <polygon id="Shape" fill="#163250" points="1342 824 1246 748 1267 848"></polygon>
            <polygon id="Shape" fill="#16324F" points="1342 824 1267 848 1290 894"></polygon>
            <polygon id="Shape" fill="#12283F" points="1346 631 1236 638 1340 671"></polygon>
            <polygon id="Shape" fill="#122941" points="1346 631 1305 531 1236 638"></polygon>
            <polygon id="Shape" fill="#183656" points="1262 133 1215 188 1256 256"></polygon>
            <polygon id="Shape" fill="#132A42" points="1305 531 1188 421 1226 536"></polygon>
            <polygon id="Shape" fill="#16304C" points="1317 94 1213 0 1263 109"></polygon>
            <polygon id="Shape" fill="#152F4A" points="1340 671 1236 638 1274 717"></polygon>
            <polygon id="Shape" fill="#142B45" points="1305 531 1226 536 1236 638"></polygon>
            <polygon id="Shape" fill="#142C46" points="1317 94 1263 109 1262 133"></polygon>
            <polygon id="Shape" fill="#214A75" points="1290 894 1226 902 1217 915"></polygon>
            <polygon id="Shape" fill="#16324F" points="1310 309 1234 326 1278 360"></polygon>
            <polygon id="Shape" fill="#142C47" points="1310 309 1261 277 1234 326"></polygon>
            <polygon id="Shape" fill="#12283F" points="1263 109 1213 0 1186 33"></polygon>
            <polygon id="Shape" fill="#16314E" points="1267 848 1246 748 1234 846"></polygon>
            <polygon id="Shape" fill="#152F4A" points="1274 717 1236 638 1221 646"></polygon>
            <polygon id="Shape" fill="#16314F" points="1290 894 1267 848 1226 902"></polygon>
            <polygon id="Shape" fill="#122840" points="1246 748 1196 828 1234 846"></polygon>
            <polygon id="Shape" fill="#16304D" points="1261 277 1231 289 1234 326"></polygon>
            <polygon id="Shape" fill="#193859" points="1267 848 1234 846 1226 902"></polygon>
            <polygon id="Shape" fill="#12283F" points="1278 360 1234 326 1188 421"></polygon>
            <polygon id="Shape" fill="#16314D" points="1246 748 1198 755 1196 828"></polygon>
            <polygon id="Shape" fill="#12283F" points="1263 109 1186 33 1250 120"></polygon>
            <polygon id="Shape" fill="#152E49" points="1274 717 1198 652 1246 748"></polygon>
            <polygon id="Shape" fill="#12283F" points="1274 717 1221 646 1198 652"></polygon>
            <polygon id="Shape" fill="#12283F" points="1246 748 1198 652 1198 755"></polygon>
            <polygon id="Shape" fill="#183453" points="1262 133 1198 147 1215 188"></polygon>
            <polygon id="Shape" fill="#16314E" points="1263 109 1250 120 1262 133"></polygon>
            <polygon id="Shape" fill="#132A43" points="1234 846 1209 868 1226 902"></polygon>
            <polygon id="Shape" fill="#173352" points="1262 133 1250 120 1198 147"></polygon>
            <polygon id="Shape" fill="#132A42" points="1236 638 1226 536 1221 646"></polygon>
            <polygon id="Shape" fill="#122840" points="1261 277 1256 256 1231 289"></polygon>
            <polygon id="Shape" fill="#12283F" points="1226 536 1198 652 1221 646"></polygon>
            <polygon id="Shape" fill="#1A3A5D" points="1234 326 1156 392 1188 421"></polygon>
            <polygon id="Shape" fill="#1B3B5E" points="1250 120 1186 33 1198 147"></polygon>
            <polygon id="Shape" fill="#12283F" points="1256 256 1215 188 1231 289"></polygon>
            <polygon id="Shape" fill="#12283F" points="1226 536 1136 628 1198 652"></polygon>
            <polygon id="Shape" fill="#1D4066" points="1198 147 1186 33 1138 68"></polygon>
            <polygon id="Shape" fill="#142C46" points="1226 536 1188 421 1121 465"></polygon>
            <polygon id="Shape" fill="#142D48" points="1198 147 1138 68 1145 130"></polygon>
            <polygon id="Shape" fill="#173250" points="1231 289 1215 188 1090 297"></polygon>
            <polygon id="Shape" fill="#142D47" points="1198 755 1163 799 1196 828"></polygon>
            <polygon id="Shape" fill="#132B45" points="1234 326 1231 289 1090 297"></polygon>
            <polygon id="Shape" fill="#122941" points="1234 326 1090 297 1156 392"></polygon>
            <polygon id="Shape" fill="#12283F" points="1234 846 1196 828 1209 868"></polygon>
            <polygon id="Shape" fill="#183554" points="1213 0 998 0 1186 33"></polygon>
            <polygon id="Shape" fill="#152F4B" points="1226 536 1121 465 1136 628"></polygon>
            <polygon id="Shape" fill="#173351" points="1226 902 1194 902 1217 915"></polygon>
            <polygon id="Shape" fill="#12283F" points="1226 902 1209 868 1194 902"></polygon>
            <polygon id="Shape" fill="#173351" points="1215 188 1078 156 1090 297"></polygon>
            <polygon id="Shape" fill="#152E49" points="1198 652 1136 628 1198 755"></polygon>
            <polygon id="Shape" fill="#132A43" points="1215 188 1145 130 1078 156"></polygon>
            <polygon id="Shape" fill="#142B45" points="1136 628 1121 465 1053 557"></polygon>
            <polygon id="Shape" fill="#16304C" points="1198 755 1136 628 1092 772"></polygon>
            <polygon id="Shape" fill="#16314E" points="1215 188 1198 147 1145 130"></polygon>
            <polygon id="Shape" fill="#12283F" points="1136 628 1073 756 1092 772"></polygon>
            <polygon id="Shape" fill="#12283F" points="1209 868 1196 828 1146 852"></polygon>
            <polygon id="Shape" fill="#1A395B" points="1209 868 1146 852 1194 902"></polygon>
            <polygon id="Shape" fill="#1C3D62" points="1186 33 998 0 1138 68"></polygon>
            <polygon id="Shape" fill="#173352" points="1198 755 1092 772 1163 799"></polygon>
            <polygon id="Shape" fill="#12283F" points="1194 902 1146 852 1061 868"></polygon>
            <polygon id="Shape" fill="#1B3C5F" points="1196 828 1163 799 1146 852"></polygon>
            <polygon id="Shape" fill="#12283F" points="1061 868 1012 860 965 865"></polygon>
            <polygon id="Shape" fill="#122840" points="1145 130 1138 68 1139 127"></polygon>
            <polygon id="Shape" fill="#12283F" points="1188 421 1156 392 1121 465"></polygon>
            <polygon id="Shape" fill="#1B3B5E" points="1090 297 1078 156 1074 290"></polygon>
            <polygon id="Shape" fill="#1A3A5C" points="1078 156 1043 260 1074 290"></polygon>
            <polygon id="Shape" fill="#12283F" points="1145 130 1139 127 1078 156"></polygon>
            <polygon id="Shape" fill="#19385A" points="1156 392 1088 415 1121 465"></polygon>
            <polygon id="Shape" fill="#122840" points="1156 392 1090 297 1088 415"></polygon>
            <polygon id="Shape" fill="#12283F" points="1163 799 1092 772 1146 852"></polygon>
            <polygon id="Shape" fill="#12283F" points="1078 156 1065 161 1043 260"></polygon>
            <polygon id="Shape" fill="#16304D" points="1121 465 1067 466 1053 557"></polygon>
            <polygon id="Shape" fill="#122840" points="1136 628 1001 607 1073 756"></polygon>
            <polygon id="Shape" fill="#142C47" points="1139 127 1138 68 1079 150"></polygon>
            <polygon id="Shape" fill="#214A76" points="1139 127 1079 150 1078 156"></polygon>
            <polygon id="Shape" fill="#12283F" points="1146 852 1092 772 1061 868"></polygon>
            <polygon id="Shape" fill="#1C3F64" points="1138 68 1030 107 1079 150"></polygon>
            <polygon id="Shape" fill="#1C3F64" points="1138 68 998 0 1030 107"></polygon>
            <polygon id="Shape" fill="#12283F" points="1136 628 1053 557 1001 607"></polygon>
            <polygon id="Shape" fill="#173352" points="1090 297 1046 302 1088 415"></polygon>
            <polygon id="Shape" fill="#12283F" points="1121 465 1088 415 1067 466"></polygon>
            <polygon id="Shape" fill="#152E49" points="1073 756 1001 607 936 711"></polygon>
            <polygon id="Shape" fill="#132A44" points="1088 415 1046 302 970 378"></polygon>
            <polygon id="Shape" fill="#1B3C5F" points="1090 297 1074 290 1046 302"></polygon>
            <polygon id="Shape" fill="#12283F" points="1092 772 1073 756 1012 860"></polygon>
            <polygon id="Shape" fill="#12283F" points="1092 772 1012 860 1061 868"></polygon>
            <polygon id="Shape" fill="#12283F" points="1088 415 970 378 1067 466"></polygon>
            <polygon id="Shape" fill="#16304C" points="1065 161 971 255 1043 260"></polygon>
            <polygon id="Shape" fill="#224B78" points="1079 150 1065 161 1078 156"></polygon>
            <polygon id="Shape" fill="#16324F" points="1079 150 1030 107 1065 161"></polygon>
            <polygon id="Shape" fill="#183554" points="1065 161 1014 127 971 255"></polygon>
            <polygon id="Shape" fill="#173453" points="1065 161 1030 107 1014 127"></polygon>
            <polygon id="Shape" fill="#132B45" points="1067 466 921 535 1053 557"></polygon>
            <polygon id="Shape" fill="#16314E" points="1073 756 936 711 1012 860"></polygon>
            <polygon id="Shape" fill="#12283F" points="1074 290 1043 260 1046 302"></polygon>
            <polygon id="Shape" fill="#16304D" points="965 865 886 848 748 915"></polygon>
            <polygon id="Shape" fill="#16304D" points="1067 466 970 378 921 535"></polygon>
            <polygon id="Shape" fill="#132A43" points="1012 860 936 711 965 865"></polygon>
            <polygon id="Shape" fill="#12283F" points="1046 302 980 296 970 378"></polygon>
            <polygon id="Shape" fill="#16304D" points="1053 557 921 535 1001 607"></polygon>
            <polygon id="Shape" fill="#1B3C60" points="1046 302 1043 260 980 296"></polygon>
            <polygon id="Shape" fill="#142D47" points="970 378 889 415 921 535"></polygon>
            <polygon id="Shape" fill="#1F456E" points="1030 107 998 0 918 103"></polygon>
            <polygon id="Shape" fill="#12283F" points="1043 260 971 255 980 296"></polygon>
            <polygon id="Shape" fill="#142C46" points="965 865 936 711 893 739"></polygon>
            <polygon id="Shape" fill="#1A3A5D" points="1014 127 913 127 971 255"></polygon>
            <polygon id="Shape" fill="#152E49" points="1030 107 918 103 1014 127"></polygon>
            <polygon id="Shape" fill="#183656" points="965 865 893 739 873 799"></polygon>
            <polygon id="Shape" fill="#142C46" points="1001 607 915 625 936 711"></polygon>
            <polygon id="Shape" fill="#1D4168" points="1014 127 918 103 913 127"></polygon>
            <polygon id="Shape" fill="#19385A" points="971 255 913 127 868 195"></polygon>
            <polygon id="Shape" fill="#16324F" points="1001 607 921 535 915 625"></polygon>
            <polygon id="Shape" fill="#16304C" points="965 865 873 799 886 848"></polygon>
            <polygon id="Shape" fill="#1E436B" points="998 0 812 0 918 103"></polygon>
            <polygon id="Shape" fill="#12283F" points="886 848 791 867 748 915"></polygon>
            <polygon id="Shape" fill="#132B45" points="936 711 915 625 920 705"></polygon>
            <polygon id="Shape" fill="#12283F" points="980 296 882 342 970 378"></polygon>
            <polygon id="Shape" fill="#152F4C" points="980 296 971 255 876 277"></polygon>
            <polygon id="Shape" fill="#142D47" points="980 296 876 277 882 342"></polygon>
            <polygon id="Shape" fill="#1C3D62" points="918 103 812 0 855 97"></polygon>
            <polygon id="Shape" fill="#12283F" points="971 255 868 195 876 277"></polygon>
            <polygon id="Shape" fill="#122941" points="876 277 868 195 855 241"></polygon>
            <polygon id="Shape" fill="#12283F" points="970 378 882 342 889 415"></polygon>
            <polygon id="Shape" fill="#122941" points="921 535 887 607 915 625"></polygon>
            <polygon id="Shape" fill="#19385A" points="893 739 869 773 873 799"></polygon>
            <polygon id="Shape" fill="#173453" points="920 705 915 625 865 664"></polygon>
            <polygon id="Shape" fill="#12283F" points="936 711 920 705 893 739"></polygon>
            <polygon id="Shape" fill="#183554" points="920 705 865 664 863 703"></polygon>
            <polygon id="Shape" fill="#142D48" points="921 535 787 543 887 607"></polygon>
            <polygon id="Shape" fill="#142D47" points="921 535 889 415 775 459"></polygon>
            <polygon id="Shape" fill="#16314E" points="921 535 775 459 787 543"></polygon>
            <polygon id="Shape" fill="#132A42" points="920 705 863 703 893 739"></polygon>
            <polygon id="Shape" fill="#16324F" points="913 127 839 119 868 195"></polygon>
            <polygon id="Shape" fill="#12283F" points="915 625 887 607 865 664"></polygon>
            <polygon id="Shape" fill="#204771" points="918 103 855 97 913 127"></polygon>
            <polygon id="Shape" fill="#1D4167" points="913 127 855 97 839 119"></polygon>
            <polygon id="Shape" fill="#1B3B5F" points="887 607 787 543 780 566"></polygon>
            <polygon id="Shape" fill="#152E49" points="887 607 839 654 865 664"></polygon>
            <polygon id="Shape" fill="#16324F" points="889 415 882 342 775 459"></polygon>
            <polygon id="Shape" fill="#12283F" points="893 739 864 764 869 773"></polygon>
            <polygon id="Shape" fill="#12283F" points="893 739 863 703 864 764"></polygon>
            <polygon id="Shape" fill="#12283F" points="886 848 873 799 791 867"></polygon>
            <polygon id="Shape" fill="#183656" points="887 607 780 566 839 654"></polygon>
            <polygon id="Shape" fill="#132A43" points="868 195 839 119 801 161"></polygon>
            <polygon id="Shape" fill="#132B44" points="868 195 840 230 855 241"></polygon>
            <polygon id="Shape" fill="#16324F" points="882 342 701 390 775 459"></polygon>
            <polygon id="Shape" fill="#183555" points="882 342 876 277 696 289"></polygon>
            <polygon id="Shape" fill="#12283F" points="882 342 696 289 701 390"></polygon>
            <polygon id="Shape" fill="#12283F" points="876 277 855 241 840 230"></polygon>
            <polygon id="Shape" fill="#183453" points="876 277 840 230 696 289"></polygon>
            <polygon id="Shape" fill="#193757" points="864 764 863 703 787 705"></polygon>
            <polygon id="Shape" fill="#122941" points="873 799 869 773 864 764"></polygon>
            <polygon id="Shape" fill="#12283F" points="873 799 864 764 791 867"></polygon>
            <polygon id="Shape" fill="#183656" points="865 664 839 654 863 703"></polygon>
            <polygon id="Shape" fill="#12283F" points="868 195 801 161 840 230"></polygon>
            <polygon id="Shape" fill="#12283F" points="855 97 812 0 801 0"></polygon>
            <polygon id="Shape" fill="#132A43" points="864 764 787 705 791 867"></polygon>
            <polygon id="Shape" fill="#183555" points="855 97 801 0 765 115"></polygon>
            <polygon id="Shape" fill="#152F4B" points="863 703 839 654 787 705"></polygon>
            <polygon id="Shape" fill="#12283F" points="839 654 780 566 758 594"></polygon>
            <polygon id="Shape" fill="#1D4066" points="855 97 765 115 839 119"></polygon>
            <polygon id="Shape" fill="#183554" points="840 230 801 161 696 289"></polygon>
            <polygon id="Shape" fill="#132941" points="839 654 758 594 787 705"></polygon>
            <polygon id="Shape" fill="#1B3C5F" points="839 119 765 115 801 161"></polygon>
            <polygon id="Shape" fill="#142C45" points="787 705 593 733 605 858"></polygon>
            <polygon id="Shape" fill="#122840" points="791 867 787 705 605 858"></polygon>
            <polygon id="Shape" fill="#173452" points="801 161 656 254 696 289"></polygon>
            <polygon id="Shape" fill="#1A395B" points="801 0 748 0 765 115"></polygon>
            <polygon id="Shape" fill="#1D4168" points="706 915 605 858 650 903"></polygon>
            <polygon id="Shape" fill="#193758" points="765 115 640 136 656 254"></polygon>
            <polygon id="Shape" fill="#142C46" points="787 705 758 594 707 611"></polygon>
            <polygon id="Shape" fill="#16314E" points="787 543 775 459 702 523"></polygon>
            <polygon id="Shape" fill="#152E49" points="791 867 605 858 706 915"></polygon>
            <polygon id="Shape" fill="#152E4A" points="801 161 765 115 656 254"></polygon>
            <polygon id="Shape" fill="#152F4C" points="765 115 683 102 640 136"></polygon>
            <polygon id="Shape" fill="#16314F" points="765 115 748 0 683 102"></polygon>
            <polygon id="Shape" fill="#122941" points="791 867 706 915 748 915"></polygon>
            <polygon id="Shape" fill="#142C47" points="787 705 707 611 593 733"></polygon>
            <polygon id="Shape" fill="#16304C" points="787 543 720 564 780 566"></polygon>
            <polygon id="Shape" fill="#1A395B" points="787 543 702 523 720 564"></polygon>
            <polygon id="Shape" fill="#142C47" points="701 390 696 289 677 371"></polygon>
            <polygon id="Shape" fill="#183554" points="780 566 720 564 758 594"></polygon>
            <polygon id="Shape" fill="#132942" points="775 459 701 390 702 523"></polygon>
            <polygon id="Shape" fill="#16304C" points="748 0 367 0 500 113"></polygon>
            <polygon id="Shape" fill="#16314E" points="748 0 500 113 614 119"></polygon>
            <polygon id="Shape" fill="#173351" points="758 594 720 564 707 611"></polygon>
            <polygon id="Shape" fill="#173351" points="748 0 614 119 683 102"></polygon>
            <polygon id="Shape" fill="#12283F" points="605 858 593 733 589 845"></polygon>
            <polygon id="Shape" fill="#1B3C60" points="696 289 668 363 677 371"></polygon>
            <polygon id="Shape" fill="#16324F" points="702 523 701 390 606 442"></polygon>
            <polygon id="Shape" fill="#1B3C60" points="702 523 606 442 670 532"></polygon>
            <polygon id="Shape" fill="#132B44" points="720 564 670 532 707 611"></polygon>
            <polygon id="Shape" fill="#193758" points="720 564 702 523 670 532"></polygon>
            <polygon id="Shape" fill="#183554" points="696 289 664 281 668 363"></polygon>
            <polygon id="Shape" fill="#204872" points="696 289 656 254 664 281"></polygon>
            <polygon id="Shape" fill="#12283F" points="701 390 677 371 606 442"></polygon>
            <polygon id="Shape" fill="#12283F" points="706 915 650 903 640 915"></polygon>
            <polygon id="Shape" fill="#16314E" points="707 611 670 532 554 545"></polygon>
            <polygon id="Shape" fill="#122941" points="707 611 554 545 593 733"></polygon>
            <polygon id="Shape" fill="#16314E" points="593 733 567 762 589 845"></polygon>
            <polygon id="Shape" fill="#142C45" points="668 363 664 281 612 312"></polygon>
            <polygon id="Shape" fill="#173351" points="656 254 640 136 552 212"></polygon>
            <polygon id="Shape" fill="#142C47" points="677 371 668 363 606 442"></polygon>
            <polygon id="Shape" fill="#12283F" points="683 102 614 119 640 136"></polygon>
            <polygon id="Shape" fill="#183554" points="668 363 553 397 606 442"></polygon>
            <polygon id="Shape" fill="#16324F" points="670 532 606 442 554 545"></polygon>
            <polygon id="Shape" fill="#183554" points="668 363 612 312 549 387"></polygon>
            <polygon id="Shape" fill="#1B3C60" points="668 363 549 387 553 397"></polygon>
            <polygon id="Shape" fill="#16314E" points="664 281 656 254 612 312"></polygon>
            <polygon id="Shape" fill="#1A3A5D" points="656 254 552 212 612 312"></polygon>
            <polygon id="Shape" fill="#16324F" points="640 136 614 119 552 212"></polygon>
            <polygon id="Shape" fill="#12283F" points="650 903 607 915 640 915"></polygon>
            <polygon id="Shape" fill="#163250" points="650 903 605 858 607 915"></polygon>
            <polygon id="Shape" fill="#132B44" points="593 733 554 545 454 613"></polygon>
            <polygon id="Shape" fill="#142B45" points="593 733 454 613 462 697"></polygon>
            <polygon id="Shape" fill="#12283F" points="593 915 424 829 253 915"></polygon>
            <polygon id="Shape" fill="#173250" points="606 442 553 397 559 440"></polygon>
            <polygon id="Shape" fill="#142D48" points="606 442 559 440 527 476"></polygon>
            <polygon id="Shape" fill="#142C46" points="606 442 527 476 554 545"></polygon>
            <polygon id="Shape" fill="#19385A" points="607 915 605 858 593 915"></polygon>
            <polygon id="Shape" fill="#16314E" points="612 312 552 212 463 325"></polygon>
            <polygon id="Shape" fill="#183453" points="614 119 506 163 552 212"></polygon>
            <polygon id="Shape" fill="#173351" points="614 119 500 113 506 163"></polygon>
            <polygon id="Shape" fill="#12283F" points="605 858 589 845 593 915"></polygon>
            <polygon id="Shape" fill="#16314F" points="612 312 487 364 549 387"></polygon>
            <polygon id="Shape" fill="#132A43" points="612 312 463 325 487 364"></polygon>
            <polygon id="Shape" fill="#12283F" points="589 845 567 762 496 755"></polygon>
            <polygon id="Shape" fill="#122941" points="593 915 589 845 424 829"></polygon>
            <polygon id="Shape" fill="#142C46" points="593 733 496 755 567 762"></polygon>
            <polygon id="Shape" fill="#12283F" points="593 733 462 697 496 755"></polygon>
            <polygon id="Shape" fill="#16304C" points="589 845 496 755 424 829"></polygon>
            <polygon id="Shape" fill="#142C47" points="552 212 484 209 463 325"></polygon>
            <polygon id="Shape" fill="#12283F" points="554 545 452 604 454 613"></polygon>
            <polygon id="Shape" fill="#152F4B" points="553 397 446 445 527 476"></polygon>
            <polygon id="Shape" fill="#12283F" points="554 545 527 476 470 509"></polygon>
            <polygon id="Shape" fill="#142D48" points="559 440 553 397 527 476"></polygon>
            <polygon id="Shape" fill="#16314D" points="552 212 506 163 484 209"></polygon>
            <polygon id="Shape" fill="#132A43" points="553 397 487 364 446 445"></polygon>
            <polygon id="Shape" fill="#16324F" points="554 545 470 509 439 570"></polygon>
            <polygon id="Shape" fill="#152E49" points="554 545 439 570 452 604"></polygon>
            <polygon id="Shape" fill="#132A44" points="500 113 367 0 428 118"></polygon>
            <polygon id="Shape" fill="#12283F" points="553 397 549 387 487 364"></polygon>
            <polygon id="Shape" fill="#1C3F64" points="506 163 485 180 484 209"></polygon>
            <polygon id="Shape" fill="#16324F" points="527 476 446 445 470 509"></polygon>
            <polygon id="Shape" fill="#16324F" points="484 209 395 296 463 325"></polygon>
            <polygon id="Shape" fill="#12283F" points="496 755 462 697 440 739"></polygon>
            <polygon id="Shape" fill="#142C46" points="496 755 440 739 424 829"></polygon>
            <polygon id="Shape" fill="#12283F" points="500 113 428 118 444 126"></polygon>
            <polygon id="Shape" fill="#142D47" points="500 113 444 126 470 174"></polygon>
            <polygon id="Shape" fill="#1A3B5E" points="506 163 500 113 470 174"></polygon>
            <polygon id="Shape" fill="#1A3A5C" points="506 163 470 174 485 180"></polygon>
            <polygon id="Shape" fill="#132A43" points="484 209 410 202 395 296"></polygon>
            <polygon id="Shape" fill="#1C3E63" points="485 180 470 174 484 209"></polygon>
            <polygon id="Shape" fill="#173250" points="487 364 463 325 388 445"></polygon>
            <polygon id="Shape" fill="#152F4B" points="487 364 388 445 446 445"></polygon>
            <polygon id="Shape" fill="#16314E" points="484 209 470 174 410 202"></polygon>
            <polygon id="Shape" fill="#12283F" points="463 325 395 296 346 342"></polygon>
            <polygon id="Shape" fill="#12283F" points="463 325 346 342 388 445"></polygon>
            <polygon id="Shape" fill="#15304C" points="470 174 444 126 410 202"></polygon>
            <polygon id="Shape" fill="#12283F" points="470 509 446 445 407 482"></polygon>
            <polygon id="Shape" fill="#16314D" points="470 509 407 482 439 570"></polygon>
            <polygon id="Shape" fill="#132941" points="462 697 454 613 347 731"></polygon>
            <polygon id="Shape" fill="#12283F" points="454 613 306 632 347 731"></polygon>
            <polygon id="Shape" fill="#132A43" points="462 697 347 731 440 739"></polygon>
            <polygon id="Shape" fill="#12283F" points="439 570 407 482 368 555"></polygon>
            <polygon id="Shape" fill="#12283F" points="444 126 428 118 410 202"></polygon>
            <polygon id="Shape" fill="#12283F" points="454 613 452 604 368 555"></polygon>
            <polygon id="Shape" fill="#122941" points="454 613 368 555 306 632"></polygon>
            <polygon id="Shape" fill="#173351" points="428 118 367 0 357 126"></polygon>
            <polygon id="Shape" fill="#122941" points="440 739 347 731 424 829"></polygon>
            <polygon id="Shape" fill="#12283F" points="452 604 439 570 368 555"></polygon>
            <polygon id="Shape" fill="#142C47" points="446 445 388 445 407 482"></polygon>
            <polygon id="Shape" fill="#12283F" points="428 118 357 126 410 202"></polygon>
            <polygon id="Shape" fill="#12283F" points="367 0 322 104 357 126"></polygon>
            <polygon id="Shape" fill="#16304D" points="424 829 251 821 253 915"></polygon>
            <polygon id="Shape" fill="#132B45" points="410 202 297 227 395 296"></polygon>
            <polygon id="Shape" fill="#142D48" points="424 829 347 731 251 821"></polygon>
            <polygon id="Shape" fill="#173351" points="407 482 388 445 372 462"></polygon>
            <polygon id="Shape" fill="#122840" points="407 482 372 462 368 555"></polygon>
            <polygon id="Shape" fill="#142C46" points="410 202 313 178 297 227"></polygon>
            <polygon id="Shape" fill="#132B44" points="410 202 357 126 313 178"></polygon>
            <polygon id="Shape" fill="#132B45" points="347 731 306 632 296 697"></polygon>
            <polygon id="Shape" fill="#142D47" points="347 731 294 731 251 821"></polygon>
            <polygon id="Shape" fill="#12283F" points="372 462 310 481 368 555"></polygon>
            <polygon id="Shape" fill="#1E436B" points="388 445 302 348 372 462"></polygon>
            <polygon id="Shape" fill="#193859" points="388 445 346 342 302 348"></polygon>
            <polygon id="Shape" fill="#12283F" points="395 296 297 227 346 342"></polygon>
            <polygon id="Shape" fill="#12283F" points="367 0 304 0 322 104"></polygon>
            <polygon id="Shape" fill="#12283F" points="372 462 302 348 310 481"></polygon>
            <polygon id="Shape" fill="#132B44" points="310 481 302 348 253 380"></polygon>
            <polygon id="Shape" fill="#12283F" points="346 342 297 227 302 348"></polygon>
            <polygon id="Shape" fill="#142B45" points="368 555 310 481 306 632"></polygon>
            <polygon id="Shape" fill="#183555" points="253 915 137 879 0 915"></polygon>
            <polygon id="Shape" fill="#12283F" points="310 481 240 630 306 632"></polygon>
            <polygon id="Shape" fill="#12283F" points="357 126 322 104 311 120"></polygon>
            <polygon id="Shape" fill="#12283F" points="357 126 311 120 313 178"></polygon>
            <polygon id="Shape" fill="#12283F" points="347 731 296 697 294 731"></polygon>
            <polygon id="Shape" fill="#132B44" points="240 630 233 463 162 544"></polygon>
            <polygon id="Shape" fill="#142C46" points="302 348 297 227 180 283"></polygon>
            <polygon id="Shape" fill="#16314F" points="306 632 277 648 296 697"></polygon>
            <polygon id="Shape" fill="#12283F" points="310 481 253 380 233 463"></polygon>
            <polygon id="Shape" fill="#152F4A" points="310 481 233 463 240 630"></polygon>
            <polygon id="Shape" fill="#132A43" points="311 120 245 0 178 94"></polygon>
            <polygon id="Shape" fill="#1D4269" points="322 104 245 0 311 120"></polygon>
            <polygon id="Shape" fill="#12283F" points="322 104 304 0 245 0"></polygon>
            <polygon id="Shape" fill="#1A3A5C" points="306 632 240 630 277 648"></polygon>
            <polygon id="Shape" fill="#16304D" points="313 178 152 215 297 227"></polygon>
            <polygon id="Shape" fill="#132B44" points="313 178 178 94 152 215"></polygon>
            <polygon id="Shape" fill="#12283F" points="313 178 311 120 178 94"></polygon>
            <polygon id="Shape" fill="#12283F" points="302 348 180 283 253 380"></polygon>
            <polygon id="Shape" fill="#152F4B" points="297 227 152 215 180 283"></polygon>
            <polygon id="Shape" fill="#12283F" points="296 697 240 630 294 731"></polygon>
            <polygon id="Shape" fill="#1D4066" points="296 697 277 648 240 630"></polygon>
            <polygon id="Shape" fill="#173250" points="294 731 139 621 251 821"></polygon>
            <polygon id="Shape" fill="#142D48" points="294 731 240 630 139 621"></polygon>
            <polygon id="Shape" fill="#132A43" points="251 821 139 621 65 662"></polygon>
            <polygon id="Shape" fill="#142D47" points="251 821 65 662 137 879"></polygon>
            <polygon id="Shape" fill="#12283F" points="253 380 154 359 233 463"></polygon>
            <polygon id="Shape" fill="#152E4A" points="253 380 180 283 154 359"></polygon>
            <polygon id="Shape" fill="#142B45" points="253 915 251 821 137 879"></polygon>
            <polygon id="Shape" fill="#132B44" points="240 630 162 544 139 621"></polygon>
            <polygon id="Shape" fill="#12283F" points="137 879 65 662 19 722"></polygon>
            <polygon id="Shape" fill="#142D48" points="245 0 0 0 178 94"></polygon>
            <polygon id="Shape" fill="#12283F" points="233 463 154 359 107 450"></polygon>
            <polygon id="Shape" fill="#12283F" points="233 463 135 525 162 544"></polygon>
            <polygon id="Shape" fill="#152E49" points="233 463 107 450 135 525"></polygon>
            <polygon id="Shape" fill="#132B44" points="137 879 19 722 22 851"></polygon>
            <polygon id="Shape" fill="#122941" points="154 359 93 433 107 450"></polygon>
            <polygon id="Shape" fill="#142C47" points="178 94 0 4 152 215"></polygon>
            <polygon id="Shape" fill="#12283F" points="178 94 0 0 0 4"></polygon>
            <polygon id="Shape" fill="#12283F" points="180 283 45 304 154 359"></polygon>
            <polygon id="Shape" fill="#142C46" points="180 283 144 236 45 304"></polygon>
            <polygon id="Shape" fill="#16304D" points="180 283 152 215 144 236"></polygon>
            <polygon id="Shape" fill="#12283F" points="139 621 135 525 70 535"></polygon>
            <polygon id="Shape" fill="#142D47" points="152 215 0 4 45 304"></polygon>
            <polygon id="Shape" fill="#12283F" points="162 544 135 525 139 621"></polygon>
            <polygon id="Shape" fill="#183554" points="152 215 45 304 144 236"></polygon>
            <polygon id="Shape" fill="#183656" points="154 359 45 304 93 433"></polygon>
            <polygon id="Shape" fill="#12283F" points="135 525 107 450 70 535"></polygon>
            <polygon id="Shape" fill="#16314E" points="139 621 70 535 40 607"></polygon>
            <polygon id="Shape" fill="#12283F" points="93 433 45 304 37 425"></polygon>
            <polygon id="Shape" fill="#142B45" points="137 879 22 851 0 896"></polygon>
            <polygon id="Shape" fill="#142D48" points="137 879 0 896 0 915"></polygon>
            <polygon id="Shape" fill="#183555" points="139 621 40 607 65 662"></polygon>
            <polygon id="Shape" fill="#12283F" points="22 851 0 895 0 896"></polygon>
            <polygon id="Shape" fill="#12283F" points="70 535 37 425 0 458"></polygon>
            <polygon id="Shape" fill="#12283F" points="107 450 93 433 37 425"></polygon>
            <polygon id="Shape" fill="#12283F" points="107 450 37 425 70 535"></polygon>
            <polygon id="Shape" fill="#12283F" points="70 535 0 458 12 532"></polygon>
            <polygon id="Shape" fill="#142D48" points="65 662 1 691 19 722"></polygon>
            <polygon id="Shape" fill="#183554" points="65 662 40 607 0 641"></polygon>
            <polygon id="Shape" fill="#122840" points="70 535 0 563 40 607"></polygon>
            <polygon id="Shape" fill="#142C46" points="70 535 12 532 0 563"></polygon>
            <polygon id="Shape" fill="#12283F" points="45 304 0 442 37 425"></polygon>
            <polygon id="Shape" fill="#16304C" points="65 662 0 641 1 691"></polygon>
            <polygon id="Shape" fill="#1D4067" points="12 532 0 458 0 528"></polygon>
            <polygon id="Shape" fill="#16314E" points="37 425 0 442 0 458"></polygon>
            <polygon id="Shape" fill="#173250" points="45 304 0 4 0 442"></polygon>
            <polygon id="Shape" fill="#12283F" points="40 607 0 563 0 641"></polygon>
            <polygon id="Shape" fill="#12283F" points="22 851 19 722 1 691"></polygon>
            <polygon id="Shape" fill="#1A3A5D" points="22 851 1 691 0 895"></polygon>
            <polygon id="Shape" fill="#1A3A5D" points="12 532 0 528 0 563"></polygon>
        </g>
    </g>
</svg>