<?xml version="1.0" encoding="utf-8"?>
<!-- Generator: Adobe Illustrator 22.0.1, SVG Export Plug-In . SVG Version: 6.00 Build 0)  -->
<svg version="1.1" id="Layer_1" xmlns="http://www.w3.org/2000/svg" xmlns:xlink="http://www.w3.org/1999/xlink" x="0px" y="0px"
	 viewBox="0 0 1078 571.7" style="enable-background:new 0 0 1078 571.7;" xml:space="preserve">
<style type="text/css">
	.st0{display:none;opacity:0.6;}
	.st1{opacity:0.84;fill:url(#SVGID_1_);fill-opacity:0.76;enable-background:new    ;}
</style>
<title>Asset 6</title>
<g>
	<g class="st0">
		
			<image style="display:inline;overflow:visible;enable-background:new    ;" width="1078" height="564" xlink:href="2EE0349C3A8F1D45.png"  transform="matrix(1 0 0 1 0 7.73)">
		</image>
	</g>
	
		<linearGradient id="SVGID_1_" gradientUnits="userSpaceOnUse" x1="36.15" y1="328.4" x2="1041.9299" y2="328.4" gradientTransform="matrix(1 0 0 -1 0 574)">
		<stop  offset="0" style="stop-color:#CCE0F4"/>
		<stop  offset="6.000000e-02" style="stop-color:#C3DCF2"/>
		<stop  offset="0.17" style="stop-color:#A9D2EE"/>
		<stop  offset="0.31" style="stop-color:#80C2E7"/>
		<stop  offset="0.46" style="stop-color:#47ACDE"/>
		<stop  offset="0.57" style="stop-color:#1E9CD7"/>
		<stop  offset="0.87" style="stop-color:#0075BE"/>
		<stop  offset="0.99" style="stop-color:#005B97"/>
	</linearGradient>
	<path class="st1" d="M531.6,45.9l4.7,29.3l-5.9,3.7l5.3,33.4l-13.5,8.4l0.2,1.6l5,2.2l-0.6,1.8l-4.6,2.9l0.4,2.7l-1.4,0.4l0.3,2
		l3.8-0.2l-0.3-2l-1.2-0.3l-0.4-2.5l4.5-2.8l0.8-2.3l-5.1-2.3l-0.2-1l13.5-8.4l-5.3-33.5l5.9-3.7l-4.6-28.9L531.6,45.9L531.6,45.9
		L531.6,45.9z M536.5,48.1l4.5,28.6l-7.4,4.6l5.4,33.4l-8.7,5.4l-3.4,0.3l0.3,2l3.8-0.2l0.2-1.7l9.1-5.6l-5.3-33.4l7.3-4.6
		l-4.5-28.2L536.5,48.1L536.5,48.1L536.5,48.1z M540.8,50l4.2,26.6l-9.1,5.7l5.6,35.1l-10.8,6.7l0.6,3.8l-3.3,0.3l0.3,2l3.8-0.2
		l0.7-0.9l-0.8-4.8l10.8-6.7l-5.6-35.1l9.2-5.7l-4.1-26.1L540.8,50L540.8,50L540.8,50z M545.2,52l4.1,25.8l-9.7,6l5.7,35.8l-6.8,4.2
		l-3.7,0.2l0.3,2l3.7-0.2l0.4-1.5l7.3-4.5L540.9,84l9.7-6l-4-25.4L545.2,52L545.2,52L545.2,52z M549.2,53.8l3.9,24.8l-10.9,6.8
		l5.7,36.1l-18.1,11.2l0.5,3l-0.8,0.3l0.3,2l3.7-0.2l-0.3-2l-1.8-0.3l-0.4-2.6l18.1-11.2l-5.7-36.1l10.9-6.8l-3.9-24.4L549.2,53.8
		L549.2,53.8L549.2,53.8z M553.5,55.7l3.7,23.5L546,86.1l5.7,35.7l-12.3,7.6l0.4,2.6l-3.8,0.2l0.3,2l3.7-0.2l0.6-1.2l0.5-0.3
		l-0.5-2.7l12.3-7.6l-5.7-35.7l11.2-6.9l-3.7-23.1L553.5,55.7L553.5,55.7z M557.5,57.5l3.5,21.8l-13,8.1l5.5,34.9l-12,7.5l0.5,3.6
		l-17,10.5l1.8,2.7h0.1l6.3,2.8l5.8-0.2l0.6,0.4l3.8-0.2l-0.3-2l-3.8,0.2l-0.6,1l-5,0.2l-5.7-2.5l-1.5-2.2l16.8-10.4l-0.5-3.6
		l12-7.5l-5.5-34.9l13-8.1L558.9,58L557.5,57.5L557.5,57.5L557.5,57.5z M562.3,59.6l3.3,20.6l-14.2,8.9l5.3,33.7l-11.9,7.4l0.9,5.9
		l-11.7,7.3l-3,0.4l0.3,2l3.8-0.2v-1.8l12-7.4l-0.9-5.9l11.9-7.4l-5.4-33.7l14.3-8.9l-3.2-20.2l-1.3-0.6L562.3,59.6L562.3,59.6z
		 M567,61.7l3,18.4l-16,10l5.3,33.2l-11.9,7.4l0.4,2.7l6.1,2.7l-6.9,4.3l0.4,2.5l-1.2,0.4l0.3,2l3.8-0.2l-0.3-2l-1.3-0.3l-0.4-2.2
		l7.4-4.6l-6.6-3l-0.3-2.2l11.9-7.4l-5.3-33.2l16-10l-2.9-18.1l-1.3-0.6L567,61.7L567,61.7z M571,63.4l2.8,17.4L557,91.3l5.4,33.9
		l-11.2,6l0.3,2l3.8-0.2l-0.3-2l-0.2-0.1l8.9-5.6l-5.4-33.9L575,81.1L572.3,64L571,63.4L571,63.4z M575.2,65.3l2.6,16.5l-18.2,11.3
		l5.1,32.1l-7.3,4.6l0.8,4.9l-7,4.4l1.1,0.5l0.6,1.8l3.8-0.2l-0.3-2l-3.4-0.2l6.6-4.1l-0.8-4.9l7.3-4.6l-5.1-32.1L579,82l-2.5-16.1
		L575.2,65.3L575.2,65.3L575.2,65.3z M579.9,67.4l2.3,14.6l-18.8,11.7l5.1,32.3l-6.7,4.2l0.7,4.7l-4.2,2.6l0.6,3.9l-11,6.9l0.4,2.4
		l-1,0.4l0.3,2l3.8-0.2l-0.3-2l-1.5-0.3l-0.3-2.1l11-6.9l-0.6-3.9l4.2-2.6l-0.7-4.8l6.7-4.2l-5.1-32.3l18.8-11.7L581.2,68
		L579.9,67.4L579.9,67.4L579.9,67.4z M584.4,69.4l2.2,13.4L566,95.6l4.8,30.5l-6.9,4.3l0.7,4.6l-4.1,2.6l1,4.9l-1.2,0.4l0.3,2
		l3.7-0.2l-0.3-2l-1.4-0.3l-1-4.6l4.1-2.5l-0.7-4.7l6.9-4.3l-4.8-30.6L587.7,83l-2-13L584.4,69.4L584.4,69.4L584.4,69.4z
		 M587.6,70.8l2,12.3l-21.5,13.3L573,127l-6,3.7l0.7,4.8l-5.3,3.3l1.4,2l3.2,1.4l0.3,2.3l-16.6,10.3l0.3,2.3l30.5,13.6l5.5-0.2
		l0.8,0.6l3.8-0.2l-0.3-2l-3.8,0.2l-0.6,0.7l-4.8,0.2l-29.8-13.2l-0.3-1.8l16.6-10.3l-0.4-2.8l-3.3-1.5l-1-1.5l5.2-3.2l-0.7-4.8
		l6-3.7l-4.8-30.6l21.3-13.3L589,71.4L587.6,70.8L587.6,70.8z M593,73.2l1.6,10.3l-23.6,14.7l4.6,29l-6.5,4.1l0.8,5.1l-3.6,1.7
		l0.3,2l3.7-0.2l-0.3-2l-0.7-0.2l1.8-1.1l-0.8-5.1l6.5-4.1l-4.6-29L596,83.8l-1.6-10L593,73.2L593,73.2z M619.9,85.1l-12.9,8
		l-10.2,0.4l-9,4.5l-0.5,1.3l-4.4,2.8l3.8,23.7l-10,6.2l1.7,11.1l-9.4,5.9l-0.8,2.2l-5.2,3.2l0.5,3.5l-0.2,0.1l0.3,2l3.8-0.2l-0.3-2
		l-1.2-0.3l-0.4-2.7l4.9-3.1l0.8-2.2l9.7-6l-1.7-11.1l10-6.2l-3.7-23.7l3.6-2.3l2.8-0.4l0.3-1.6l5.8-3.6l10.1-0.4l13.4-8.4
		L619.9,85.1L619.9,85.1L619.9,85.1z M638,93.2L599.8,117l1.4,9l-18.6,11.4l0.3,2l3.8-0.2l-0.3-2l-1.2-0.3l17.2-10.7l-1.4-9
		L639,93.6L638,93.2L638,93.2L638,93.2z M645.3,96.5l-38.8,24.1l0.9,5.6L590,136.9l-0.7,2.2l-16.7,10.4l0.6,4l-3,0.4l0.3,2l3.8-0.2
		l-0.5-6l16.6-10.3l0.8-2.2l17.5-10.8l-0.8-5.6l38.5-23.9L645.3,96.5L645.3,96.5L645.3,96.5z M648.9,98l-37.2,23.1l0.8,5.1
		l-33.3,21.2l0.6,2.1l-2.9,0.4l0.3,2l3.8-0.2l0.5-1.5l-1.1-2.8l0.3-0.5l33-20.6l-0.8-5.1l36.8-22.8L648.9,98L648.9,98L648.9,98z
		 M652,99.4l-35.9,22.3l0.9,5.6l-22.3,13.8l-2.6,0.1l-10,6.2l0.6,4.1l-11.7,7.3l1.6,2.3l-1.2,0.4l0.3,2l3.8-0.2l-0.3-2l-1.2-0.3
		l-1.5-2.2l11.6-7.2l-0.6-4.1l9.4-5.8l2.6-0.1l22.9-14.2l-0.9-5.7L653,99.8L652,99.4L652,99.4L652,99.4z M654.6,100.6l-35,21.8
		l0.8,5.1l-26.1,16.2l-3.2,0.1l-6.7,4.2l0.8,5.4l-0.3,0.1l0.3,2l3.8-0.2l-0.3-2l-2.3-0.3l-0.8-4.8l6-3.8l3.2-0.1l26.7-16.6l-0.8-5.1
		l34.8-21.6L654.6,100.6L654.6,100.6L654.6,100.6z M657.3,101.7l-33,20.5l1,6.1l-29.1,18.1l-4.2-0.4l-4.2,2.6l0.4,2.7l4.2,1.9
		l0.3,1.7l-5.1,3.2l-4.7,0.2l-0.9-0.9l-3.7,0.2l0.3,2l3.8-0.2l0.5-0.4l5.5-0.2l5.7-3.6l-0.3-2.2l-4.3-1.9l-0.3-2.1l3.5-2.1l4.2,0.4
		l29.9-18.6l-1-6.1l32.7-20.3L657.3,101.7L657.3,101.7L657.3,101.7z M660.1,103l-31.7,19.7l0.9,6l-30.3,18.8l-2.8,0.1l-1.2,1.3
		l-3.5,0.2l0.3,2l3.8-0.2l0.3-1.5l1-1.2l2.6-0.1l31-19.3l-0.9-6l31.4-19.5L660.1,103L660.1,103z M663.2,104.4l-30.6,19l0.9,5.7
		l-38.1,23.7l0.6,4.1l-3,0.4l0.3,2l3.8-0.1l-0.4-6.2l38.2-23.7l-0.9-5.8l30.3-18.8L663.2,104.4L663.2,104.4L663.2,104.4z
		 M665.7,105.5l-29.6,18.4l0.9,5.8l-32.7,20.4l-0.6,1.8l-1.2,0.8l-2.7,0.4l0.3,2l3.8-0.2l-0.3-1.9l1.2-0.8l0.6-1.8l32.8-20.5
		l-0.9-5.8l29.3-18.2L665.7,105.5L665.7,105.5L665.7,105.5z M674.5,109.4l-21.1,13.1l-9.3,0.4l0.8,5.1l-34.3,21.4l-0.9,2.8
		l-14.7,9.1l-4.7,0.2l-0.3-0.2l-3.8,0.2l0.3,2l3.8-0.2l0.5-0.5l5.3-0.2l15.7-9.8l1-2.8l34.6-21.5l-0.7-4.3l7.9-0.3l21.7-13.5
		l-1.9-0.8L674.5,109.4L674.5,109.4z M685.7,114.4l-0.6,0.3l-10.9,0.4l-80.8,50.3l0.8,5.3l-3,1.9l-9.2,0.4l-3.8,2.4l-0.2-0.1
		l-4.3,0.2l-4.2-1.9l-3.3,2.1l5.5,2.5l-1.8,1.1l11.1,4.9l-28.4-10.6l-0.4-2.8l-9.9,6.2l-10.3-4.6l0.3-0.9l9,4l7.8-4.9l-1.7-0.8
		l2.9-1.8l-0.5-3.2l-3.8-1.7l-3.8,0.2l0.3,2l0.3,0.1l1.3,1.9l-1.5,0.6L506.8,152l-3.6,0.2l-5.2-2.5l-3.8,0.2l0.3,2l6.6,2.9l-2.5,1.5
		l9.2,4.1l-2.5,1.6l-9.2,0.4l-24.3,15.1l-11.4,0.5l9.5-6.2l-1.4-0.6l3.4-2.1l-0.2-0.1l0.3-0.1l-0.4-2.6l-5,0.2l-3.3,2.4l-0.9-0.4
		l-14.4,8.9l23.2,10.3l0.5,3.4l-13.3,8.3l63.8,28.3l3.7-0.2l8.6-5.3l8.2-0.4l1.7,1.3l-6.9,4.3l2.8,1.2l-5.6,0.2l-4.8,3l3,1.4
		l3.7-2.3l9-0.4l17-10.6l6.4-0.3l2.7,2.1l-6.7,4.1l2.3,1l-3,1.9l1.9,3.6l-0.9,0.4l0.3,2.2l4.1-0.2l-0.3-2.2l-2-0.3l-1.7-3.2l2.6-1.6
		l2.2,1l14.1-8.7l-0.4-2.2l-15.1-6.7l-0.6-3.5l12.6-7.8l6.2,2.8l-10.9,6.7l2.2,1l0.9,1.3l3.7-0.2l-0.3-2l-2.2-0.3l8.9-5.5l3.1,1.4
		l7.5-4.7l-3.1-1.4l7.6-4.7l13.5-0.6l2.8,1.2l1.3,8.1l51.2,22.8l128.7-5.6l40.9-25.4l-1.1-7l-2-0.9l2.8-1.8l-8.8-3.9l-7,4.3l8.8,3.9
		l2.2-1.4l1.1,0.5l0.9,5.7l-39.3,24.4l-126.2,5.5l-49.3-21.9l-1.3-8.1l-4.7-2.1l-16,0.6l-8.4,5.2l-6.2-2.8l10.9-6.8l-0.5-3l-18-8
		l2.9-1.8l9.2-0.4l5-3.1l-0.8-5.4l78.9-49l10.9-0.4l1.5-1L685.7,114.4L685.7,114.4L685.7,114.4z M700.7,121l-3.2,2l-6.4-2.8
		l-17.9,0.8l-64.1,39.8l0.5,3.3l-0.7,0.3l0.3,2l3.7-0.2l-0.3-2l-0.6-0.2l-0.5-2.9l62.8-39l15.8-0.7l7.5,3.3l4.7-2.9L700.7,121
		L700.7,121L700.7,121z M703.6,122.3l-36.3,22.6l-19.6,0.8l-36.7,22.9l-4.1,0.2l-0.7-0.5l-3.7,0.2l0.3,2l3.8-0.2l0.5-0.5l5-0.2
		l36.7-22.8l19.6-0.8L705,123L703.6,122.3L703.6,122.3L703.6,122.3z M706.1,123.4l-38.3,23.8l-20.6,0.9L620.1,165l-0.9,2.9l-7.1,4.4
		l1.1,6.8l-1.8,0.5l0.3,2l3.8-0.2l-0.3-2H615l-1.1-6.8l6.9-4.3l0.9-2.8l26.3-16.3l20.7-0.9l38.8-24.1L706.1,123.4L706.1,123.4
		L706.1,123.4z M722,130.4l-10.3,6.4l-13-5.8l-30.7,19.2l-20,0.9l-24.7,15.3l0.4,2.7l-5.8,3.6l1.5,2.3l-1.3,0.4l0.3,2l3.8-0.2
		l-0.3-2l-0.4-0.1l-1.5-2.2l5.6-3.5l-0.4-2.7l23.7-14.7l20-0.9l30-18.6l13.1,5.8l11.5-7.1l-1.4-0.6L722,130.4L722,130.4z
		 M724.4,131.5l-12.8,7.9l-12.8-5.7l-31.1,19.4l-20.4,0.9l-20.4,12.7l0.6,4.2l-2.8,0.4l0.3,2l3.7-0.2l0.8-1.1l-0.8-5.1l19.5-12.1
		l20.3-0.9l30.4-18.9l12.8,5.7l13.9-8.7l-1.4-0.6L724.4,131.5L724.4,131.5z M726.6,132.5l-15,9.3l-11.3-5L669,156.3l-18.8,0.8
		l-15.5,9.6l-3.3,0.3l0.3,2l3.8-0.2l0.4-1.4l15.2-9.4l18.8-0.8l30.6-19l11.3,5.1l16.2-10.1L726.6,132.5L726.6,132.5L726.6,132.5z
		 M729.7,134l-16.9,10.5l-10.6-4.8l-32.4,20.1l-18.4,0.8L626.6,176l0.4,2.9l-0.9,0.4l0.3,2l3.8-0.2l-0.3-2l-1-0.3l-0.4-2.5
		l23.9-14.8l18.4-0.8l31.7-19.7l10.6,4.7l18-11.2L729.7,134L729.7,134z M732.6,135.3l-19.3,12l-10-4.5L672,162.2l-18,0.8l-11.8,7.5
		l-2.6,0.5l0.3,2l3.7-0.2v-1.8l11.3-7l18-0.8l30.6-19l10,4.4l20.5-12.7L732.6,135.3L732.6,135.3L732.6,135.3z M735.5,136.6
		l-21.9,13.6l-9.8-4.3l-30.3,18.8l-15.7,0.7l-15.6,9.7l-5.2,0.2l-0.3-0.1l-3.8,0.2l0.3,2l3.8-0.2l0.6-0.9l5.4-0.2l15.6-9.7l15.8-0.7
		l29.6-18.5l9.8,4.3l23.1-14.4L735.5,136.6L735.5,136.6L735.5,136.6z M739.5,138.3l-21.7,13.5l-6.6,0.3l-6.1-2.7l-28.2,17.5
		l-9.2,0.4l-11.6,7.2l-4.1,0.2l-0.5-0.3l-3.8,0.2l0.3,2l3.7-0.2l0.6-0.7l4.6-0.2l11.6-7.2l9.2-0.4l27.5-17.1l5.3,2.3l8.1-0.3
		l22.2-13.8L739.5,138.3L739.5,138.3z M741.8,139.3l-23.3,14.5l-9.7,0.4l-3.8-1.7L678.5,169l-10.4,0.4l-12.9,8l-9.4,0.4l-1.2,0.8
		l-3.5,0.3l0.3,2l3.8-0.2l0.5-1.3l1-0.6l9.4-0.4l13-8.1l10.4-0.4l25.8-16l3,1.3l11.2-0.5l23.8-14.8L741.8,139.3L741.8,139.3
		L741.8,139.3z M745,140.8L720.4,156l-12.8,0.6l-0.7-0.5l-3.8,0.2l0.3,2l18.5-0.7l25.4-15.8l-2.3-1L745,140.8L745,140.8z
		 M750.5,143.2l-26,16.2l-10,0.4l-0.4-0.3l-3.8,0.2l0.3,2l3.8-0.2l0.1-0.1L726,161l26.9-16.7L750.5,143.2L750.5,143.2L750.5,143.2z
		 M754.1,144.8l-34.7,21.5l-18.8-8.3L680,170.8l-9.7,0.4l-13,8.1l-7.5,0.3l-5.1,3.2l-20.5,0.9l-0.7-0.6l-3.8,0.2l0.3,2l3.7-0.2
		l0.5-0.5l21.3-0.9l5-3.2l7.6-0.3l13-8.1l9.7-0.4l19.9-12.4l18.8,8.3l35.8-22.3L754.1,144.8L754.1,144.8L754.1,144.8z M757.1,146.1
		l-35.5,22.1l-5.1,0.2l-11.8-5.6L701,163l0.3,2l21.8,4.8l36.3-22.6L757.1,146.1L757.1,146.1L757.1,146.1z M760.8,147.8l-38.2,23.7
		l-9,0.4l-17.1-7.6l-13.8,8.6l-10.4,0.4l-13.9,8.6l0.5,3.1l-1.2,0.4l0.3,2l3.7-0.2l-0.3-2l-0.7-0.2l-0.4-2.8l12.9-8l10.4-0.4
		l13.1-8.1l16.3,7.2l10.5-0.4l38.7-24L760.8,147.8L760.8,147.8z M762.9,148.8L714,179.1l-12.2,0.5l-10.5-4.7l-15.3,0.6l-8.3,5.1
		l-3.3,0.3l0.3,2l3.8-0.2l0.4-1.4l8-5l13.8-0.6l10.5,4.7l13.8-0.6l49.3-30.7l-1.4-0.6L762.9,148.8L762.9,148.8z M765.9,150.1
		l-50.6,31.4l-15.2,0.7l-12-5.3l-8.9,0.4l-6.3,3.9l0.5,3.5l-0.9,0.4l0.3,2l3.8-0.2l-0.3-2l-1-0.3l-0.5-3.1l5.3-3.3l7.4-0.3l11.8,5.3
		l16.7-0.7l51-31.7l-1.4-0.6L765.9,150.1L765.9,150.1z M769.5,151.6l-52.6,32.7l-26.2,1.1l-7.1-3.2h0.1l-0.3-2l-3.8,0.2l0.3,2
		l10.2,4l27.8-1.2l53.1-33L769.5,151.6L769.5,151.6L769.5,151.6z M772,152.8l-55,34.2l-20.1,0.9l0.3,2l3.8-0.2l0.6-1.1l16.4-0.7
		l55.5-34.5L772,152.8L772,152.8L772,152.8z M775.6,154.3l-57.7,35.9l-28.4,1.2l-4-1.8l-0.9-1.2l-3.8,0.2l0.3,2l3.6-0.1l4.3,1.9
		l29.9-1.3L777,155L775.6,154.3L775.6,154.3z M778.3,155.6l-58.9,36.6l-31.8,1.4l-2.4-1.1l-11.1,0.5l0.3,2l3.8-0.2l0.6-1.1l5.9-0.3
		l2.4,1.1l33.3-1.4l59.4-36.9L778.3,155.6L778.3,155.6L778.3,155.6z M781.2,156.8L721,194.3l-45.2,2l-5-2.2l1.1-3.2l-1.3-0.6
		l-0.9-1.1l-3.7,0.2l0.3,2l3.7-0.1l-1.1,3.2l6.3,2.8l46.8-2l0.1-0.3l60.5-37.6l-1.4-0.6L781.2,156.8L781.2,156.8z M784.2,158.2
		l-18.1,11.1l10.1,4.5l1.4,2l-32,19.9l-69.1,3l-18.4-8.1l-17.2,0.7l-0.9-0.9l-3.8,0.2l0.3,2l3.8-0.2l0.1-0.1l17.1-0.8l18.4,8.2
		l70.7-3.1l33.1-20.6l-1.9-2.7l-9.1-4.1l16.8-10.4l-1.4-0.6L784.2,158.2L784.2,158.2z M816.6,172.6l-38.9,24.2L676,201.1l-10.7-4.8
		l-5.9,0.2l-5.1-2.3l-5.1,0.2l-0.9-0.7l-3.8,0.2l0.3,2l3.8-0.2l0.3-0.3l0,0l4.7-0.2l5.1,2.3l6-0.2l10.7,4.7l103-4.5l39.4-24.5
		l-1.4-0.6L816.6,172.6L816.6,172.6z M820.4,174.3l-53,33l-22.2,1l-15.1-6.7l-53.9,2.2l-11.8-5.2l-7.4,0.3l-0.8-1.4l-3.8,0.2l0.3,2
		l11.3-0.4l11.8,5.2l53.7-2.4l15.1,6.7l23.2-1l53.3-33.2L820.4,174.3L820.4,174.3L820.4,174.3z M824,175.8L769,210l-87,3.8
		l-33.5-14.8l-6,0.3l-0.9-1l-3.7,0.2l0.3,2l3.7-0.2l0.3-0.3l5.8-0.3l33.5,14.9l87.9-3.8l55.3-34.3l-0.9-0.4L824,175.8L824,175.8z
		 M827.1,177.2l-55.5,34.5l-93.2,4.1l-19.7-8.8l-0.6-1.7l-3.8,0.1l0.3,2l3.2,0.1l20.1,8.9l94.2-4.1l55.9-34.7L827.1,177.2
		L827.1,177.2L827.1,177.2z M830.5,178.7l-57,35.3l-98.7,4.3l-26.1-11.6l-0.4-2.7l1.5-0.5l-0.3-2l-3.7,0.2l0.3,2l1,0.3l0.5,3
		l26.9,11.9l99.6-4.4l57.2-35.5l-0.9-0.4L830.5,178.7L830.5,178.7z M859.8,191.7L814.4,220l-141,6.2l-26-11.6l-2.6,0.1l-0.8-0.6
		l-3.8,0.2l0.3,2l3.7-0.2l0.6-0.7l2.1-0.1l26,11.6l142-6.2l45.7-28.4L859.8,191.7L859.8,191.7L859.8,191.7z M862.1,192.7l-47,29.1
		l-140.5,6.2l-24-10.7l-9.3,0.4l-3.5-1.6l-0.6-4l-0.8-0.4l-0.7-1.7l-3.7,0.2l0.3,2h3.4l0.4,0.2l0.6,4l4.3,1.9l9.3-0.4l24,10.6
		l141.5-6.2l47.2-29.3l-0.9-0.4L862.1,192.7L862.1,192.7z M864,193.6l-47.6,29.5l-142.5,6.2l-24.4-10.8l-11.3,0.5l-0.9-0.9l-3.8,0.1
		l0.3,2l3.7-0.2l0.5-0.4l11-0.5l24.4,10.8l143.5-6.3l47.8-29.7l-0.9-0.4L864,193.6L864,193.6z M866.5,194.7l-48.3,30l-145.3,6.4
		L650.2,221l-16.4,0.7l-2.8-1.2l-0.3-2.1l3.3-2.1l-0.3-2.1l-5.9-2.6l-0.4-2.6l1-0.4l-0.3-2l-3.8,0.2l0.3,2l1.6,0.3l0.4,2.8l5.9,2.6
		l0.2,1.6l-3.3,2.1l0.4,2.7l3.6,1.6l16.4-0.7l22.7,10.1l146.3-6.4l48.6-30.2L866.5,194.7L866.5,194.7L866.5,194.7z M868.4,195.5
		L819,226.2l-146.8,6.5l-23.4-10.4l-15.6,0.7l-4.5-2l-0.8-5.6l-14.5-6.4l-0.5-1.8l-3.7,0.2l0.3,2l17.2,6.4l0.9,5.6l5.3,2.4l15.5-0.7
		l23.4,10.4l147.8-6.5l49.6-30.8l-0.9-0.4L868.4,195.5L868.4,195.5z M870.1,196.3l-49.6,30.8l-148.9,6.5l-22.4-10l-16.5,0.7
		l-6.7-2.9l-0.8-5.3l-11.6-5.2l-3.2,0.1l-4.5-2l-0.2-1.2l4.4-2.7l5.5-0.2l0.5,0.3l3.8-0.2l-0.3-2l-3.7,0.2l-0.6,1.1l-5.7,0.2
		l-5.1,3.2l0.2,1.8l5.3,2.3l3.2-0.1l10.9,4.8l0.8,5.3l7.4,3.3l16.5-0.7l22.4,10l149.9-6.6l49.9-31L870.1,196.3L870.1,196.3
		L870.1,196.3z M871.6,197l-65,40.4l-27.5,1.2l-4,2.5l-4,0.3l0.3,2.3l4.3-0.2l0.2-1.9l3.8-2.4l27.5-1.2l65.3-40.6L871.6,197
		L871.6,197L871.6,197z M873.5,197.8l-66.2,41.1l-22.9,1l-0.8,0.5l-0.5-0.2l-4.1,0.3l0.4,2.3l4.3-0.2l0.5-1.6l0.8-0.5l22.9-1
		l66.4-41.3l-0.9-0.4L873.5,197.8L873.5,197.8z M875.6,198.7l-67.3,41.8l-20.2,0.9l-5.2,3.2l-0.4-0.2l-4.3,0.2l0.3,2.3l4.3-0.2
		l0.6-1.4l5.2-3.2l20.2-0.9l67.5-42l-0.9-0.4L875.6,198.7L875.6,198.7z M877.5,199.6L809.1,242l-16.1,0.7l-1.8,1.1l-3.8,0.4l0.4,2.3
		l4.3-0.2l0.1-2l1.5-0.9l16.1-0.7l68.6-42.6l-0.9-0.4L877.5,199.6L877.5,199.6z M879.6,200.5l-72.2,44.9l-12.4,0.6l-3.6,2.3
		l-0.3-0.1l-4.3,0.2l0.4,2.3l4.3-0.2l0.6-1.6l3.6-2.2L808,246l72.6-45.1L879.6,200.5L879.6,200.5L879.6,200.5z M891.4,205.7
		L835,240.8l1.1,6.9l-25.4,15.8l-11,0.5l-22-9.8l-37.9,1.6l-20.1-8.9l-40.9,1.8l-34.5-15.3l-17.3,0.8l-7-3.1l-3.1,0.1l-0.5-0.3
		l-4.3,0.2l0.3,2.3l4.3-0.2l0.7-1.4l2.2-0.1l7,3.1l17.3-0.8l34.4,15.3l40.9-1.8l20.1,8.9l37.9-1.7l22,9.8l12-0.5l26-16.3l-1.1-6.9
		l56.1-34.9l-0.9-0.4L891.4,205.7L891.4,205.7z M893.5,206.7l-55,34.2l1.1,7.1l-89.9,55.8l0.5,3.6l-7.2,4.4l-20,0.9l-16.6-7.4
		l-24.8,1.1l-55.6-24.7l-1-6.7l-3.8-1.7l-0.1-1l-1.7-0.8l-0.5-2.1l-4.1,0.2l0.3,2.2l3.4,0.1l1.4,0.6l0.1,1l3.8,1.7l1,6.7l56.4,25.1
		l24.9-1.1l16.5,7.4l21-0.9l7.8-4.8l-0.6-3.6l89.8-55.8l-1.1-7.1l54.7-34l-0.9-0.4L893.5,206.7L893.5,206.7z M895.7,207.7
		l-54.3,33.8l1,6.6l-90,55.9l0.6,3.9l-8.3,5.1l-22.5,1l-16.5-7.3l-24.1,1.1l-72.8-32.4l-0.3-2.1l-53.1-23.6l-16.1,0.7l-4.2,2.6
		l-3.6,0.4l0.3,2.2l4.1-0.2l0.2-2l3.8-2.4l15.1-0.7l52.3,23.2l0.3,2.1l73.5,32.8l24.1-1l16.5,7.3l23.5-1l8.9-5.5l-0.6-3.9l90-55.9
		l-1-6.6l54-33.6L895.7,207.7L895.7,207.7L895.7,207.7z M897.6,208.5L843.8,242l1,6.5l-90.1,56l0.6,3.7l-9.8,6.1l-24.6,1.1
		l-16.6-7.4l-30.3,1.3l-7.4,4.6l-2.4,0.1l-4.7-2.1v-1.1l7.1-4.4l-0.4-1.7l-67.1-29.8l-18.5,0.8l-4.7-2.1l-1-6.2l2.3-0.6l-0.3-2.2
		l-4.1,0.2l0.3,2.2l0.6,0.2l1,6.7l5.4,2.4l18.5-0.8L665,305l0.3,1.2l-7,4.4v1.6l5.5,2.4l3.4-0.1l7.4-4.6l29.4-1.3l16.6,7.4l25.6-1.1
		l10.4-6.5l-0.6-3.7l90.1-56l-1-6.5l53.4-33.2L897.6,208.5L897.6,208.5L897.6,208.5z M899.8,209.5L847,242.3l1,6.5l-90,55.8l0.6,3.8
		l-11.2,7l-27.4,1.2l-15.9-7.1l-28.2,1.2l-7.4,4.6l-4.3,0.2l-7.3-3.2l-0.2-1.1l7.4-4.6l-0.2-1.4l-64.6-28.7l-19.6,0.8l-12.4-5.5
		l-1.7-10.6l-5.1-2.2l-0.7-1.8l-4.1,0.2l0.3,2.2l3.8-0.1l4.6,2l1.7,10.6l13.2,5.9l19.5-0.9l63.8,28.4l0.2,0.9l-7.4,4.6l0.2,1.6
		l8.1,3.6l5.3-0.2l7.4-4.6l27.2-1.2l15.9,7.1l28.5-1.2l11.9-7.4l-0.6-3.8l89.8-55.9l-1-6.6l52.4-32.6l-0.9-0.4L899.8,209.5
		L899.8,209.5z M901.4,210.3l-51.6,32.1l1.9,11.9l-19,11.8l-5.7,0.2l-63.5,39.5l0.5,3.3l-14.6,9.1l-30.5,1.3l-16.1-7.2l-24.8,1.1
		l-7.8,4.9l-7.3,0.3l-14.1-6.3l-1.7-10.7L605.3,283l-7.9,0.3l-0.8-0.6l-4.1,0.2l0.3,2.2l4.1-0.2l0.7-0.9l7.3-0.3l40.9,18.2l1.7,10.8
		l14.9,6.6l8.3-0.4l7.8-4.9l23.9-1l16.1,7.1l31.5-1.4l15.3-9.5l-0.5-3.3l62.9-39.1l5.7-0.2l19.6-12.2l-1.9-11.9l51.3-31.9
		L901.4,210.3L901.4,210.3L901.4,210.3z M903.4,211.2l-50.2,31.1l1.9,12.1l-20.5,12.7l-7.2,0.3l-61.3,38.1l0.5,3.6l-16.1,10
		l-32.2,1.4l-15.6-6.9l-24.2,1l-7.3,4.6l-8.6,0.4l-16-7.1l-1.7-10.6l-35.5-15.8l-17,0.7l-0.8-0.6l-4.1,0.2l0.3,2.2l4.1-0.2l0.7-0.9
		l16.3-0.7l34.7,15.4l1.7,10.7l16.7,7.4l9.6-0.4l7.3-4.5l23.2-1l15.6,6.9l33.1-1.4l16.8-10.4l-0.6-3.6l60.7-37.8l7.2-0.3l21.1-13.1
		l-1.9-12.1l49.8-31l-0.9-0.4L903.4,211.2L903.4,211.2z M914.3,216l2.4,15.3l-94.3,58.6l-9.9,0.4l-5.3-2.4l-8.1,5l6.3,2.8l0.6,3.9
		L739.6,341l-4.2,0.2l-11.2-5l-19.4,0.9l-6.6-2.9l-15.2,0.7l-18,11.2l1.9,12.2l9.7,4.3l0.8,5l15.2,6.8l1,6.5l-10.2,6.4l2.7,16.5
		l58.9,26.2l3.9,24.5h0.8l4.8-3l-3.7-23.1l-58.9-26.1l-2.2-13.9l10.2-6.4l-1.5-9.2l-15.2-6.8l-0.8-5l-9.8-4.3l-1.5-9.5l14.8-9.2
		l10.2-0.5l6.6,2.9l19.4-0.9l11.2,4.9l9.2-0.4l69.7-43.3l-1.1-7.2l14.1-0.6l97.6-60.6l-2.1-13.4L914.3,216L914.3,216L914.3,216z
		 M928.7,222.4l1.5,9.5L737.9,351.3l-9.9,0.4l-19.1-8.5l-21.9,1.2l0.4,2.3l4.3-0.2l0.5-1.6l16.2-0.7l19.1,8.5l11.4-0.5l193.2-120.1
		l-1.4-9l-2-0.9L928.7,222.4L928.7,222.4z M931.7,223.8l2,9.3L739.4,353.6l-10.8,0.5l-19.9-8.9l-9.3,0.4l-1.9,1.2l-4.1,0.3l0.4,2.3
		l4.3-0.2l0.5-1.6l1.7-1l7.8-0.3l19.9,8.9l12.3-0.5l195.2-121.3l-1.8-8.7L931.7,223.8L931.7,223.8L931.7,223.8z M940.7,227.8
		l0.8,5.1L740.7,357.6l-10.5,0.5l-21.6-9.6l-7.2,0.3l-8.2,5.1l-1.8-0.8l-1-1.5l-4.3,0.2l0.4,2.3l4.1-0.1l2.9,1.3l8.9-5.5l5.7-0.3
		l21.6,9.6l12-0.5l201.7-125.4l-0.7-4.5L940.7,227.8L940.7,227.8L940.7,227.8z M945.6,229.9l0.7,4.3L743.7,359.9l-12.8,0.6
		L707.3,350l-3.7,0.1l-8.6,5.4l-6.8,0.3l-4.5-2l-0.4-2.2l1.1-0.4l-0.4-2.3l-4.3,0.2l0.4,2.3l1.4,0.3l0.4,2.6l5.7,2.5l8.3-0.3
		l8.6-5.4l2.2-0.1l23.6,10.5l14.3-0.6L948,234.4l-0.6-3.7L945.6,229.9L945.6,229.9L945.6,229.9z M952.3,232.9l-28.2,17.5l3.1,20.6
		l-141.7,88l-2.7,0.1L735,388.9l1.4,8.8l27,12l0.5,2.9l-6.4,4l3,18.8l11.5,5.1l0.8-0.5l-11.1-4.9l-2.9-18.3l6.4-3.9l-0.5-3.5l-27-12
		l-1.3-8.3l47.3-29.4l2.7-0.1l142.3-88.4l-3.3-20.6l27.9-17.3L952.3,232.9L952.3,232.9z M958.4,235.6l2.8,17.8L758,379.6l1.4,9.2
		l19.2,8.6l0.8,5l-5.8,3.7l-3,0.5l0.4,2.3l4.3-0.2l-0.1-2.1l6.2-3.8l-0.8-5.8l-19.3-8.5l-1.3-8.4L963,253.7l-2.7-17.2l-2-0.9
		L958.4,235.6L958.4,235.6z M962.5,237.4l2.8,17.3L763.2,380.1l1.1,7.5l19,8.5l1.2,7.6l-22.8,14.1l0.5,3.9l23.1,10.3l1.2-0.7
		l-22.6-10l-0.5-3.1l22.8-14.1l-1.3-8.4l-19-8.4l-1.1-6.7L967,255l-2.6-16.7L962.5,237.4L962.5,237.4L962.5,237.4z M967.6,239.7
		l2.4,15.8l-180.2,112l1.2,7.9l7.1,3.1l3,18.9l-31,19.2l0.7,4.9l18.4,8.2l1.2-0.7l-17.8-7.9l-0.7-4.1l31-19.3L800,378l-7.1-3.1
		l-1.1-7.1l180.2-112l-2.4-15.3L967.6,239.7L967.6,239.7L967.6,239.7z M972.4,241.8l2.2,14.1l-80.3,49.9l0.8,5l-5.8,1.7l1.1,7
		l13.4-0.6l-1.1-7l-5.8-1.2l-0.7-4.6l80.3-49.9l-2.1-13.5L972.4,241.8L972.4,241.8L972.4,241.8z M989.5,249.4l-35.1,21.8l3.9,24.8
		l-109.8,68.1l1.3,8.5l-32.7,18.5l0.6,3.9l7.5-0.3l1.1-2.5l29.8-18.5l-1.4-8.5L964.5,297l-3.9-24.7l33.5-20.8l-4.6-2.1L989.5,249.4
		L989.5,249.4z M998.6,253.4l-31.7,19.7l4.5,28.4l-67.1,41.7l-7.4,0.3l-36.6,22.7l2.4,15l-29.2,16.7l0.5,4l34.6-21.5l-2.1-13.2
		l33.4-20.7l7.4-0.3l70.3-43.7l-4.5-28.4l30-18.7l-4.6-2.1L998.6,253.4L998.6,253.4z M1006.1,256.8l-30.3,18.7l4.4,27.6l-53.1,33
		l1.2,7.2l5.5-3.5l-0.4-2.7l53.1-33l-4.4-27.6l28.6-17.8l-4.6-2.1L1006.1,256.8L1006.1,256.8z M1013.5,260.1l-26.7,16.5l4.4,27.6
		l50.7-31.5L1013.5,260.1L1013.5,260.1z M667.8,110.2l-3.8,0.2l0.3,2l3.7-0.2L667.8,110.2L667.8,110.2z M611.8,85.8l-12.5,0.5
		l-22.1,13.8l4,25.6l-9.4,5.9l1.7,11.1l-9.6,6l0.2,1.3l-2,0.5l0.3,2l3.7-0.2l0.5-1.5l-0.3-1.7l9.6-6l-1.8-11.1l9.5-5.9l-4-25.6
		l20.8-12.9l7.2-0.3l0.8,0.6l3.8-0.2L611.8,85.8L611.8,85.8L611.8,85.8z M638,97.8l-3.7,0.2l0.3,2l3.8-0.2L638,97.8L638,97.8z
		 M685.7,125.8l-9,0.4l-1.4,1.6l-6.7,0.3l-52.7,32l0.3,2l3.8-0.2l50.5-32l5.3-0.2l1.7,1.2l9-0.4L685.7,125.8L685.7,125.8
		L685.7,125.8z M953.2,246l-18.2,0.8l1.5,9.6l18.2-0.8L953.2,246L953.2,246z M876.2,212l-4.3,0.2l0.4,2.3l4.3-0.2L876.2,212
		L876.2,212z M901.7,223.3l-4.3,0.2l0.4,2.3l4.3-0.2L901.7,223.3L901.7,223.3L901.7,223.3z M824.1,190.9l-7.7,0.3l0.6,4l1.1,0.4
		l1.1,6.7l-20.9,13l-121.5,5.4l-44-19.6l-0.7-4.3l1.5-0.5l-0.3-2l-3.7,0.2l0.9,7.1l45.5,20.2l123.6-5.4l22.2-13.8l-1-6.9l4.1-1
		L824.1,190.9L824.1,190.9L824.1,190.9z M494.6,48l-3.8,0.2l0.3,2l1.1,0.3l0.4,2.7l-2.7,1.7l0.8,5l4.5,2l10.1-0.4l8.6,3.8l7.5,47.4
		l-15.4,9.5l0.4,2.6l-1.4,0.4l0.3,2l3.7-0.2l-0.3-2l-0.5-0.2l-0.4-2.4l15.4-9.6l-7.6-48.2l-9.8-4.3l-10.1,0.4l-3.3-1.5l-0.7-4.2
		l2.7-1.7l-0.6-3.1l0.9-0.3L494.6,48L494.6,48L494.6,48z M507,57l-7.5,0.3l-0.6-0.4l-3.7,0.2l0.3,2l3.8-0.2l0.6-0.6l6.6-0.3l11.3,5
		l8.1,50.9l-13,8.2l1,6.7l-0.5,0.2l0.3,2l3.7-0.2l-0.3-2l-1.5-0.3l-1-6.1l13-8.1l-8.1-51.7L507,57L507,57z M867.3,217.5l-4.3,0.2
		l0.4,2.3l4.3-0.2L867.3,217.5L867.3,217.5z M892.8,228.8l-4.3,0.2l0.4,2.3l4.3-0.2L892.8,228.8L892.8,228.8z M619,110.3l-3.7,0.2
		l0.3,2l3.8-0.2L619,110.3L619,110.3z M813.7,198.8l-3.8,0.2l0.3,2l3.8-0.2L813.7,198.8L813.7,198.8L813.7,198.8z M532.4,73.8
		l-3.7,0.4l-0.3,1.5l-2,1.2l5.7,35.5l-14.8,9.2l0.4,2.8l1.9,0.8l0.9,1.3l3.8-0.2l-0.3-2h-3.4l-1.1-0.5l-0.3-2l14.8-9.2l-5.6-35.5
		l1.5-0.9l3.1-0.4l0.6-1.2L532.4,73.8L532.4,73.8z M504.8,62.5l-4.4,0.3l0.3,2l3.8-0.2l0.5-1.2l5.8,2.6l5.8,36.5l-10.9,6.8l-2.9,0.4
		l0.3,2l3.7-0.2l-0.1-1.8l11.2-6.9L512,65.7L504.8,62.5L504.8,62.5L504.8,62.5L504.8,62.5L504.8,62.5z M508,66.7l-3.7,0.2l0.3,2
		l1.7,0.3l5.2,32.8l-14.6,9.1l0.4,2.6l-1.3,0.4l0.3,2l3.7-0.2l-0.3-2l-0.6-0.2l-0.4-2.3l14.6-9.1L508,68.8l0.3-0.2L508,66.7
		L508,66.7L508,66.7z M858.8,222.8l-4.3,0.2l0.4,2.3l4.3-0.2L858.8,222.8L858.8,222.8L858.8,222.8z M884.2,234.1l-4.3,0.2l0.3,2.3
		l4.3-0.2L884.2,234.1L884.2,234.1L884.2,234.1z M469.2,55.9l-3.7,0.2l0.3,2l22.6,9.2l6.2,38.8l0.2,0.2l0.5,1.9l3.8-0.2l-0.3-2
		l-2.3-0.3l-6.2-39l-20.4-9.1L469.2,55.9L469.2,55.9L469.2,55.9z M918.3,256.6l-4.1,0.3l0.4,2.3l4.3-0.2l-0.4-2.3L918.3,256.6
		L918.3,256.6z M850.4,226.7l-4.3,0.2l0.4,2.3l4.3-0.2L850.4,226.7L850.4,226.7L850.4,226.7z M338.1,0l-1.6,1l68.6,30.4l9,56.4
		l-1,0.4l0.3,2l3.7-0.2l-0.3-2l-0.3-0.1l-9.1-57.2L338.1,0L338.1,0z M874.8,239.5l-4.3,0.2l0.4,2.3l4.3-0.2L874.8,239.5L874.8,239.5
		z M340.8,4.2l-10.1,0.4l-1.7,1l11.2-0.5l55.5,24.7l0.2,1.5l-56.5,35.1l0.4,2.7l79,35.1l4.3-0.2l43.9,19.5l0.8,1.5l3.7-0.2l-0.3-2
		L423.8,103l-4.3,0.2l-77.8-34.6l-0.3-1.9l56.4-35.1l-0.3-2.3L340.8,4.2L340.8,4.2L340.8,4.2z M343.2,7.6L322,20.8l-12.1,0.5l-8.1,5
		l-3.1,0.4l0.3,2l3.7-0.2l0.4-1.5l7.7-4.8l12.1-0.5l20.5-12.8L390,29.7l0.3,2.1l-56.1,34.9l0.4,3.3l83.6,37.1l3.8-0.1l48.4,21.5
		l5-0.2l0.5,0.3l3.7-0.2l-0.3-2l-3.8,0.2l-0.6,0.7l-4,0.2L422.6,106l-3.7,0.1l-82.4-36.6l-0.4-2.5l56.2-34.9l-0.4-2.9L343.2,7.6
		L343.2,7.6L343.2,7.6z M459.9,61.7l-3.7,0.2l0.3,2l26.1,11l6.5,40.8l6.5,2.9l1.5,9.6l6.9,3.1l0.9,1.2l3.8-0.1l-0.3-2l-7.8-3.1
		l-1.5-9.6l-6.5-2.9l-6.5-40.8L459.9,61.7L459.9,61.7L459.9,61.7z M699.5,169.4l-3.8,0.2l0.3,2l3.8-0.2L699.5,169.4L699.5,169.4z
		 M709.9,174l-3.8,0.2l0.3,2l3.8-0.2L709.9,174L709.9,174z M370.8,25.8l-12.7,0.5l-0.6-0.4l-3.7,0.2l0.3,2l15.7-0.7l11.8,5.2
		l-12,7.5l-11.4,0.5L336.7,31l-9.1,0.4l-9.7,6l-10.1,0.4L295,32.3l-0.9-1.2l-3.8,0.2l0.3,2l16,6.3l12.6-0.5L329,33l6.6-0.3l21.5,9.6
		l13.9-0.5l14.8-9.2L370.8,25.8L370.8,25.8L370.8,25.8z M870.7,248.3l-7.4,4.6l8.6,3.8l7.4-4.6L870.7,248.3L870.7,248.3z
		 M911.7,268.5l-13.4,0.6l1.1,7l13.4-0.6L911.7,268.5L911.7,268.5L911.7,268.5z M947.2,284.2l-13.4,0.6l1.1,7l4.5,1.1l0.8,5.3
		l-103,64l1.2,7.5l-32.5,20.2l1.6,9.9l17.5,7.8l4.7-2.9l-15.2-6.8l-1.1-6.8l32.5-20.2l-1.2-7.5l103-64l-1.2-7.4l1.8-0.9L947.2,284.2
		L947.2,284.2L947.2,284.2z M695,172.2l-3.7,0.2l0.3,2l3.8-0.2L695,172.2L695,172.2z M328.8,12l-3.8,0.2l0.3,2l3.8-0.2L328.8,12
		L328.8,12z M831.5,242l-4.1,0.3L827,244l-5.3,3.3l0.8,5.1l-14.4,9l-7.5,0.3L767,246.8l-28.2,1.2l-16.5-7.3l-41.1,1.8l-33.8-15
		l-16.7,0.7l-10.8-4.8l-3.9,0.1l-0.3-0.2l-3.7,0.2l0.3,2l3.8-0.2l0.5-0.5l2.6-0.1l10.8,4.8l16.7-0.7l33.8,15.1l41.1-1.8l16.5,7.3
		l28.2-1.2l33.4,14.9l9.6-0.4l15.7-9.8l-0.8-5.1l4.6-2.9l3.4-0.5l-0.4-2.3L831.5,242L831.5,242L831.5,242z M963.2,302.5l-4.3,0.2
		l0.4,2.3l4.3-0.2L963.2,302.5L963.2,302.5L963.2,302.5z M319.7,17.6l-3.8,0.2l0.3,2l3.7-0.2L319.7,17.6L319.7,17.6z M860.9,259.1
		l-8.1,0.4l0.7,4.2l8.1-0.4L860.9,259.1L860.9,259.1z M735.1,207.4l-59.6-0.9l-11.1-5.2l-3.8,0.1l0.3,2l13.4,5l50.3-2.2l5.7,2.5
		l1.1,1.2l4.3-0.2l-0.4-2.3L735.1,207.4L735.1,207.4L735.1,207.4z M365,43l-3.8,0.2l0.3,2l3.7-0.2L365,43L365,43z M887,275.5
		l-4.1,0.3l0.4,2.3l4.2-0.1l7.4,3.3l1,6.5L787.6,355l-8.1,0.4l-3.2-2.8l-13.4,0.6l1.1,7l13.4-0.6l2.2-3.3l8.8-0.4L897.8,288
		l-1.1-7.3l-8.4-3.7l-1.1-1.4L887,275.5L887,275.5L887,275.5z M458.3,87.9l-3.8,0.2l0.3,2l3.7-0.2L458.3,87.9L458.3,87.9z
		 M889.7,282.2l-13.4,0.6l1.1,7l13.4-0.6L889.7,282.2L889.7,282.2L889.7,282.2z M925.1,297.9l-13.4,0.6l1.1,7l13.4-0.6L925.1,297.9
		L925.1,297.9L925.1,297.9z M330.9,34l-7.7,4.8l9.1,4.1l6.2-3.9l18.6,8.2L338,59.1l-11.4,0.5l-31.8-14.2l-19.1,0.8l-0.5-0.3
		l-3.7,0.2l0.3,2l3.8-0.2l0.4-0.4l18.1-0.8l31.8,14.1l13.4-0.5l21.3-13.2L330.9,34L330.9,34z M833.9,262.6l-4.3,0.2l-0.5,0.4l-1.4,0
		l-67,41.7l0.6,3.8l-13,8.1l-29,1.3l-16.2-7.2l-26.1,1.1l-7.5,4.7l-5.8,0.2l-11.2-5l-1.7-10.9l-47.1-20.9l-10.6,0.5l-1-1.3l-4.1,0.2
		l0.3,2.2l4.1-0.2l0.3-0.2l10.5-0.4l46.4,20.6l1.7,10.9l12.1,5.4l6.8-0.3l7.6-4.7l25.1-1.1l16.2,7.2l30-1.3l13.7-8.5l-0.6-3.8
		l66.4-41.3h0.6l1.1,1.2l4.3-0.2L833.9,262.6L833.9,262.6z M460,97.8l-3.7,0.2l0.3,2l3.8-0.2L460,97.8L460,97.8z M812.1,254.8
		l-4.3,0.2l-0.7,0.8l-11.7,0.5l-28-12.5l-28.3,1.3l-15.4-6.8l-42.5,1.9l-33.2-14.8L632,226l-10-4.4l0.5-0.2l-0.3-2l-3.7,0.2
		l-0.2,1.7l0.4,0.5l12.5,5.6l15.9-0.7l33.2,14.8l42.5-1.9l15.4,6.8l28.4-1.2l28,12.4l13.2-0.6l0.4,0.2l4.3-0.2L812.1,254.8
		L812.1,254.8L812.1,254.8z M801.9,250.5l-4.3,0.2l0.3,2.3l4.3-0.2L801.9,250.5L801.9,250.5L801.9,250.5z M943,314.6l-4.3,0.2
		l0.4,2.3l4.3-0.2L943,314.6L943,314.6z M837.8,268.2l-7.4,4.6l9,4l7.4-4.6L837.8,268.2L837.8,268.2z M368.9,60l-3.8,0.2l0.3,2
		l6.4,2.5l0.7,1.6l3.8-0.2l-0.3-2L373,64l-3.8-2L368.9,60L368.9,60L368.9,60z M432.9,96.2l-9.4,0.4l-25.1-11.2l0.7-0.3l-0.3-2
		l-3.8,0.2l0.3,2l27.7,12l9.4-0.4l50,22.2l0.5,3l-0.7,0.3l0.3,2l3.8-0.2l-0.3-2l-1.8-0.3l-0.5-3.1L432.9,96.2L432.9,96.2L432.9,96.2
		z M559,154.3l-3.8,0.2l0.3,2l3.8-0.2L559,154.3L559,154.3z M583.6,165.3l-3.8,0.2l0.3,2l3.8-0.2L583.6,165.3L583.6,165.3
		L583.6,165.3z M478.1,118.7h-3.4l-44.4-19.8l-6.7,0.3l-33.4-14.8l0.8-0.3l-0.3-2l-3.8,0.2l0.3,2l35.9,15.7l6.7-0.3l44.1,19.6
		l0.7,1.7l3.7-0.2L478.1,118.7L478.1,118.7L478.1,118.7z M768.4,250.1l-3.6,0.1l-2.7-1.2l-25.2,1.1l-14.6-6.5l-41.5,1.8l-35.3-15.7
		l-16.6,0.7l-8.9-3.9l-8.2,0.4l-3.4-1.5l-0.3-1.8l6.8-4.2l-0.8-3.7l-3.8,0.2l0.3,2l2.8,0.2l0.2,1.1l-6.8,4.2l0.4,2.4l4.1,1.8
		l8.2-0.3l8.9,3.9l16.6-0.7l35.4,15.7l41.5-1.8l14.6,6.5l25.2-1.1l2.3,1l0.7,2l4.3-0.2l-0.4-2.3L768.4,250.1L768.4,250.1
		L768.4,250.1z M867.2,296.1l-13.4,0.6l1.1,7l13.4-0.6L867.2,296.1L867.2,296.1z M350.5,66.7l-3.8,0.2l0.3,2h3.5l26,11.6l0.3,2.3
		l43.4,19.3l5.9-0.3l65.8,29.2l0.4,2.7l-0.5,0.2l0.3,2l3.8-0.2l-0.3-2l-2.1-0.3l-0.4-2.8l-66.4-29.5l-5.9,0.2l-42.7-19l-0.3-2.3
		l-26.6-11.8L350.5,66.7L350.5,66.7z M828.4,279.1l-7.4,0.3l0.6,3.9l7.4-0.3L828.4,279.1L828.4,279.1z M593.3,176.6l-3.7,0.2l0.3,2
		l3.8-0.2L593.3,176.6L593.3,176.6z M601.6,180.3l-3.8,0.2l0.3,2l3.8-0.2L601.6,180.3L601.6,180.3z M617.9,187.6l-3.8,0.2l0.3,2
		l3.8-0.2L617.9,187.6L617.9,187.6L617.9,187.6z M609.5,183.9l-3.7,0.2l0.3,2l3.8-0.2L609.5,183.9L609.5,183.9L609.5,183.9z
		 M760.5,251.3l-4.3,0.2l-0.6,0.7l-17.5,0.8l-17.8-7.9l-40.8,1.8l-34.7-15.4l-17.4,0.8l-8.6-3.8l-8.7,0.4l-4-1.8l-0.8-4.8l2.2-0.5
		l-0.3-2l-3.7,0.2l0.8,7.6l5.1,2.3l8.7-0.4l8.6,3.8l17.4-0.8l34.7,15.4l40.8-1.8l17.8,7.9l18.3-0.8l0.8,0.6l4.3-0.2L760.5,251.3
		L760.5,251.3L760.5,251.3z M487.7,130.2l-3.7,0.2l-0.6,0.7l-10,0.4l-37.8-16.8l-18.7,0.8l-115-51.1l-20,12.4l-39.3-17.5l-0.8,0.5
		L282,77.7l20-12.5l114.5,50.9l18.7-0.8l37.8,16.8l10.5-0.5l0.8,0.6l3.8-0.2L487.7,130.2L487.7,130.2L487.7,130.2z M796,269.1h-4
		l-24.8-11l-28.4,1.2l-3.9-1.8l-0.6-1.9l-16.6-6.7l-39.1,1.7l-35.2-15.6l-16.6,0.7l-4-1.8l-10,0.4l-4.3-1.9l-0.3-1.9l-8.7-3.9
		l-0.2-1.1l0.8-0.4l-0.3-2.2l-4.1,0.2l0.3,2.2l2.1,0.4l0.2,1.2l8.7,3.9l0.3,1.9l5.1,2.3l10-0.4l3.9,1.8l16.6-0.7l35.2,15.6l39.1-1.7
		l13.5,6l-0.6,0.3l0.3,2.2h3.7l4.3,1.9l28.4-1.2l24.4,10.9l0.8,1.9l4.3-0.2L796,269.1L796,269.1z M816.2,279.5l-4.3,0.2l0.3,2.3
		l1.5,0.4l0.4,2.5l-2.4,1.5l-7.5,0.3l-32.6,20.3l0.5,3.6l-22.9,14.3l-10.4,0.5l-15.5,9.7l-17.2,0.8l-7.2-3.2l-19.3,0.8l-18.9,11.7
		l2.1,13.3l9.8,4.4l1.1,6.8l-5.3,3.3l0.3,2.5l9.5,4.2l3.9,24.3l60.5,26.9l4.1,25.8l1.1-0.7l-4-25.4l-60.4-26.8l-3.8-24.3l-9.5-4.2
		l-0.3-2l5.3-3.3l-1.1-7.3l-9.9-4.3l-2-12.7l18.2-11.3l18.3-0.8l7.2,3.2l18.2-0.8l15.5-9.7l10.4-0.5l23.6-14.7l-0.5-3.6l32-19.9
		l7.5-0.3l3-1.9l-0.4-2.8l1.6-0.5L816.2,279.5L816.2,279.5L816.2,279.5z M294.2,49.1l-10,0.4l-0.7-0.6l-3.8,0.2l0.3,2l3.8-0.2
		l0.6-0.8l9.4-0.4l24,10.7l0.7,4.2l-2.5,0.5l0.3,2l3.8-0.2l-0.3-2l0,0l-0.8-4.8L294.2,49.1L294.2,49.1L294.2,49.1z M480.9,133.5
		l-8.4,0.4l-39.8-17.7l-18.9,0.8L303.6,68l-2.4,0.1L284,78.8l-2,0.1l-41.2-18.3l-0.8,0.5l41.6,18.5l3-0.1l17.2-10.7l1.3-0.1
		l110.4,49.1l18.9-0.8l39.8,17.7l8.4-0.4l2.1,0.9l-6.5,4.1l-1.9,0.1l-0.8-0.6l-3.7,0.2l0.3,2l3.8-0.1l0.6-0.8l2.3-0.1l7.6-4.7
		l-3.4-1.5L480.9,133.5L480.9,133.5z M303.1,55L260,56.9l-7.8-3.5l-1.2,0.7l8.4,3.7l43.1-1.9l11.6,5.2l-1.6,1l-2.7,0.5l0.3,2
		l3.8-0.2l0.1-1.7l2.6-1.6L303.1,55L303.1,55L303.1,55z M512.5,148.3l-3.8,0.2l0.3,2l3.7-0.2L512.5,148.3L512.5,148.3L512.5,148.3z
		 M520.8,152l-3.8,0.2l0.3,2l3.8-0.2L520.8,152L520.8,152L520.8,152z M537.1,159.3l-3.8,0.2l0.3,2l3.7-0.2L537.1,159.3L537.1,159.3
		L537.1,159.3z M528.7,155.6l-3.8,0.2l0.3,2l3.8-0.2L528.7,155.6L528.7,155.6L528.7,155.6z M497,141.6l-3.8,0.2l0.3,2l3.8-0.2
		L497,141.6L497,141.6z M811.7,282.5l-4.3,0.2l-0.7,1.2l-1.6,0l-36.1,22.4l0.5,3.6l-21.7,13.5l-10.4,0.5l-15.7,9.8l-15.2,0.7
		l-7.6-3.3l-20.4,0.9l-20.5,12.8l2.3,14.5l9.8,4.3l0.8,5.1l-5.9,3.7l0.5,3.4l10,4.5l3.7,23.7l60.9,27.1l4.3,26.8l1.1-0.7l-4.2-26.4
		l-60.9-27.1l-3.7-23.7l-10-4.5l-0.5-2.9l5.9-3.7l-0.9-5.7l-9.8-4.4l-2.2-14l19.9-12.3l19.4-0.9l7.5,3.3l16.2-0.7l15.8-9.7l10.4-0.4
		l22.3-13.9l-0.6-3.6l35.4-22h1.4l0.7,0.5l4.3-0.2L811.7,282.5L811.7,282.5L811.7,282.5z M331.1,69.6l-9.9,0.8l-19.8-8.8l-41.9,1.8
		l-13.8-6.1l-1.2,0.7l14.4,6.4l41.9-1.8l19.8,8.8l9.9-0.9l88.6,39.3l0.3,2l-3.4,0.3l0.3,2l3.8-0.2l0.5-1.4l0.8-0.5l-0.4-2.7
		L331.1,69.6L331.1,69.6L331.1,69.6z M763.3,261.7l-4.3,0.2l0.4,2.3l4.3-0.2L763.3,261.7L763.3,261.7z M306.7,59.3l-48.4-0.1l-9-4
		l-1.2,0.7l9.6,4.3l42.8-1.9l2.5,1.1h-0.1l0.3,2l3.8-0.2L306.7,59.3L306.7,59.3L306.7,59.3z M430.8,117.5l-19.2,0.8L304.8,70.9
		l-5,0.2l-26.2,16.3l-1.7-0.8l8.3-5.2l-4.2-1.8l-12,7.5l-1.9-0.8l12.3-7.6l-3.9-1.7l-12,7.5l-2-0.9l11.7-7.2l-3.8-1.7l-11.8,7.3
		L251,81l11.6-7.2l-3.9-1.7l-12,7.5L225.3,70l-0.8,0.5l22.3,9.9l12-7.4l2,0.9l-11.6,7.2l3.5,1.6l11.8-7.3l2,0.9l-11.7,7.2l3.8,1.7
		l12-7.5l2,0.9l-12.3,7.7l3.8,1.7l12-7.5l2.3,1l-8.3,5.2l3.6,1.6l26.7-16.6l4-0.2L411.1,119l19.2-0.8l24.3,10.9l0.4,2.3l-1.5,0.5
		l0.3,2l3.7-0.2l-0.3-2l-1-0.3l-0.4-2.6L430.8,117.5L430.8,117.5z M761.3,266l-35.3-7.8l-0.4-2.4l-10.8-4.8l-36.1,1.6L643,236.7
		l-17.8,0.8l-3.4-1.5l-8.9,0.4l-11-5.2l-3.9,0.3l0.3,2.2l4.1-0.2l0.4-0.3l9.5,4.2l8.9-0.4l3.4,1.5l17.8-0.8l35.7,15.9l36.1-1.6
		l9.7,4.3l0.3,2.4l15.4,6.9l14.1-0.6l3.3,1.5l0.4,2l4.1-0.2L761.3,266L761.3,266L761.3,266z M611.9,199.7l-3.8,0.2l0.3,2l3.8-0.2
		L611.9,199.7L611.9,199.7z M465.7,135.3l-3.7,0.2l-0.4,0.3l-4.8,0.2l-11.9-5.3l-4.9,0.2l-21.1-9.4L408,122l-35.6-15.8l-3.9,0.1
		l-7.4,4.6l-1.7,0.1l-35-15.5l-4.2-0.1l-0.9,0.9l0.8,1l35.4,15.8l-0.4,0.3l-1.1,0.2L319,98.1l-2.5,0.1l-3.2,2h-1.2l-16.8-7.4
		l-3.6,0.1l-8.5,5.3l-9-4l-11.1,0.3l-43.1-19.1l-3.5,0.1l-1.7,1l4.5-0.2l43.1,19.1l11.1-0.3l9.8,4.3l9.1-5.7l2.1-0.1l16.8,7.4
		l2.8-0.1l3.2-2h1l36.4,15.5l1.6-0.5l0.9-0.9l-0.9-1.1l-35.1-15.6l-0.1-0.2l0.3-0.3l37.3,15.9l3.3-0.1l7.4-4.6l2.4-0.1l35.6,15.8
		l10.9-0.5l21.1,9.4l4.9-0.2l11.9,5.3l5.2-0.2l0.9,0.7l3.8-0.2l-0.3-2L465.7,135.3L465.7,135.3z M481.9,142.5l-3.7,0.2l-0.2,0.1
		l-5.4,0.2l-6.6-2.9l-3.5,0.1l-10.5,6.5l-3.6,0.2l-3.3-1.5l-0.3-2.1l-20.7-9.2l-12.5,0.5l-23.1-10.3l-34.3,1.5l-37.4-16.6l-11.2,0.5
		l-2.8,1.7l-5.7,0.2l-18.2,11l-0.8-0.2v-1.1l3.2-2l-0.1-2l-3.8,0.3l-4.8,2.6l-0.8-0.1l0.4-1.2l2.9-1.8l0.6-1l-67.9-29.7l-1.5,0.6
		l-0.9,0.9l0.6,1.1l10.1,4.5l0.1,0.1l-0.4,0.3l-13.4-4.5l-1.6,0.6L200,91l0.7,1l10.3,4.7l-2.2,0.6l-9.7-4.3l-3.4,2.1l10.5,4.7
		l0.1,0.2l-0.3,0.3l-13.8-4.7l-1.7,0.6l-0.7,1l0.9,1.1l4.5,2h0.1h-0.1l-22.9,14.2l-19.6,0.9l-1.7,1l22.1-1l23.9-14.9l0.2-0.5
		l-5.4-2.5l-0.3-0.3l0.3-0.4l0.7-0.2l10.5,4.5h4.1l1-0.9l-0.8-1l-10.5-4.7l1-0.6l11.8,4.7l3-1.2l-0.5-1.1l-10.4-4.6v-0.2l0.4-0.4
		l0.7-0.3h0.3l9.7,4.3h3.9l1-0.8l-0.7-1L207,88.5v-0.1l1.4-0.8h0.2l65.3,29l-3.1,1.9l-0.2,2.6l2.3,0.3l7.1-3.1l-0.2,0.7l-3.2,2
		l0.1,2.4l2.2,0.4l19-11l5.7-0.2l2.8-1.7l9.7-0.4l37.5,16.6l34.3-1.5l23.2,10.3l12.5-0.5l19.5,8.5l0.3,2.1l4.5,2l5.2-0.2l10.5-6.5
		l2-0.1l6.6,2.9l5.6-0.2l0.9,0.9l3.7-0.2L481.9,142.5L481.9,142.5L481.9,142.5z M490.3,146.2l-3.8,0.2l0.3,2l3.8-0.2L490.3,146.2
		L490.3,146.2L490.3,146.2z M429.2,121l-3.2-0.1l-3.8-1.7l-13.3,0.6l-56-24.3l-1.6,0.6l-0.7,0.9l0.8,1l14.2,6.3l0.1,0.2l-0.3,0.4
		l-0.6,0.2l-17.7-7.7l-3.7,2.3l17.8,8.1l-0.2,0.3h-1.5l-35.1-15.5l-4.2,0.2l-6.9,4.3l-1.9,0.1l-15.2-6.7l-5.4,0.2l-6.9,4.3l-1.9,0.1
		l-6.7-3l-10.8,0.4l-43.6-19.4h-0.5l-1.7,1l1.6-0.1l43.6,19.4l10.8-0.4l6.8,3l3.4-0.1l6.8-4.2l3.9-0.2l15.2,6.7l3.4-0.1l6.9-4.3
		l2.7-0.1l34.6,15.4l4-0.1l0.8-1l-18.5-8.8l1.4-0.8l19.3,7.9l1.5-0.6l0.7-0.9l-0.8-1l-14.2-6.3l-0.2-0.2l0.3-0.4l0.6-0.2l55,24.3
		l13.4-0.6l3.4,1.5l0.9,1.4l3.8-0.2L429.2,121L429.2,121L429.2,121z M844.7,310.2l-13.4,0.6l1.1,7l13.4-0.6L844.7,310.2L844.7,310.2
		z M880.1,325.9l-13.4,0.6l1.1,7l13.4-0.6L880.1,325.9L880.1,325.9z M605.2,203.7l-3.8,0.2l0.3,2l3.8-0.2L605.2,203.7L605.2,203.7z
		 M491.7,153.6l-3.8,0.2l0.3,2l3.8-0.2L491.7,153.6L491.7,153.6z M483.9,150.2l-3.8,0.2l0.3,2l3.7-0.2L483.9,150.2L483.9,150.2z
		 M466.7,142.8L463,143l0.3,2l1.4,0.3l0.4,2.4l-11.6,7.2l-2.9,0.1l-4.4-1.9l-3.6,0.1l-2.8,1.8l-5.1,0.2l-21.3-9.5l-18,0.8l-24.9-11
		l-39.2,1.7l-18-8l-50.6,2.2l-21.3-9.5l-11.2,0.5L203,110.3l-4.1,0.1l-1,0.8l0.6,1l21.6,9.6l0.3,0.3l-0.4,0.4l-0.7,0.2l-24.3-10
		l-15.1,9.2l-28.5,1.2l-37.6,23.3l0,0l-6.8-3l-1.2,0.7l7.5,3.2h1.1l37.9-23.3l28.5-1.2l14.9-9.2l24,10l1.7-0.6l0.8-1l-0.9-1.1
		l-21.6-9.6v-0.1l0.4-0.3l0.8-0.2l28.7,12.5l11.1-0.5l21.3,9.5l50.6-2.2l18,8l39.2-1.7l24.9,11.1l18.1-0.8l21.3,9.5l6.6-0.3l2.8-1.7
		l2.1-0.1l4.4,1.9l4.4-0.2l12.6-7.8l-0.4-2.9l0.6-0.3L466.7,142.8L466.7,142.8L466.7,142.8z M450.6,135.7l-8.3-3.1l-3.1,0.1
		l-21.3-9.5l-10.8,0.5l-25.4-11.3l-17.2,0.7l-3.9,2.4l-3.2,0.3l0.3,2l3.8-0.2l0.6-1.1l3.6-2.2l15.2-0.7l25.4,11.3l10.8-0.5l21.3,9.5
		l3.1-0.1l5,2.2l0.6,1.7l3.8-0.2L450.6,135.7L450.6,135.7L450.6,135.7z M458.9,139.4l-3.8,0.2l-0.4,0.3l-6.6,0.3L416,125.9
		l-11.1,0.5l-15.5-6.9l-27.6,1.2l-41.4-18.4l-20.3,0.9l-2.8,1.8l-6.1,0.3l-3.8,2.3h-1.1l-1.8-1.7l-7.4,0.3l0.6,3.9l7.4-0.3l1.1-1.2
		l0,0l2-0.1l3.8-2.3l6.1-0.3l2.8-1.8l18.8-0.8l41.4,18.4l27.6-1.2l15.5,6.8l11.1-0.5l32.3,14.4l7-0.3l0.8,0.7l3.8-0.2L458.9,139.4
		L458.9,139.4L458.9,139.4z M291.5,66.4l-3.7,0.2l0.3,2l3.8-0.2L291.5,66.4L291.5,66.4z M327.8,83.3l-3.7,2.4l-2.7,0.4l0.3,2
		l3.8-0.2l0.1-1.7l2.4-1.6l19.1,8.5l-7.4,4.6l-14.7-6.5l-5.7,0.2l-5.5,3.4l-16.3-6.7l-8.1,0.3l-6.1,3.8l-6.3-2.8L264.7,90L223,71.6
		l-1.2,0.7l42.3,18.8l12.1-0.5l7.2,3.2l6.8-4.2l6.6-0.3l17.6,6.6l5.8-3.6l4.1-0.2l15.5,6.9l9.7-6L327.8,83.3L327.8,83.3L327.8,83.3z
		 M775.3,283.9l-4.1,0.2l0.3,2.2l4.1-0.2L775.3,283.9L775.3,283.9z M606.2,212l-3.8,0.2l0.3,2l0.4,0.1l0.4,2.4l-25.2,15.7l0.4,2.7
		l21.6,9.6l0.4,0.5l-0.2,0.1l9.8,4.3l26.3-1.1l51,22.6l2.8,17.2l-1,0.7l-2.9,0.5l0.3,2.2l4.1-0.2l0.1-2l1.2-0.9l-2.8-18l-52-23.1
		l-26.3,1.1l-8.5-3.8l-0.5-0.6l0-0.1l-21.5-9.5l-0.3-1.9l25.2-15.7l-0.4-2.6l1.5-0.5l-0.3-2L606.2,212L606.2,212z M460,147.1
		l-3.7,0.2l-0.6,1.1l-0.5,0.3l-6.7,0.3l-27.3-12.1l-20.9,0.9l-20.1-8.9l-28,1.2l-17-7.6l-3.5,0.3l0.3,2l3.8-0.2l0.4-0.4l15.5,6.9
		l28-1.2l20.1,9l20.9-0.9l27.3,12.1l8.2-0.3l0.6-0.4l3.6-0.2L460,147.1L460,147.1z M452,143.7l-37.1-15.3l-9,0.4l-17-7.5l-30.7,1.3
		L319,105.1l-16.9,0.7l-2.9,1.8l-5.8,0.2l-10.1,6l-13.3-5.8l11.2-7l0.4-1l0,0l-1-0.8l-1.7-0.4l-13.4,7.5l-1.5-0.5l0.1-0.2l11.5-7.1
		l-4.4-1.9l-12.1,7.4l-0.7-0.2l-0.4-0.3l0.1-0.3l6.9-4.3l0.5-1.2L264,97l-2.1-0.3l-8.7,4.7l-1-0.2l-0.4-0.3l0.3-0.4l6.5-4l0.5-1
		l-0.8-0.9l-1.7-0.4l-9.3,4.8l-1.4-0.6l0.1-0.3l7-4.3l0.6-1.1l-1-0.9l-1.8-0.4l-9.4,5l-0.8-0.2l-0.5-0.3l0.1-0.2l6.9-4.3l0.5-1.1
		l-1-0.9l-1.8-0.4l-8.9,4.8l-1-0.2l-0.6-0.4V93l7-4.4l0.6-1.1l-1-0.9l-1.8-0.4l-8.8,4.7l-22.8-9.8L164.3,108h1l42-25.9l23,9.8
		l8.9-4.7l0.7,0.1l0.4,0.3L240,88l-7,4.4l-0.4,1l0.1,0.1l2.8,1.2l9.4-4.8l0.7,0.2l0.4,0.4l-0.1,0.3l-6.9,4.3l-0.5,1.1l1.1,0.8
		l1.8,0.4l9.6-5l0.6,0.2l0.4,0.3l-0.2,0.3l-7,4.3l-0.5,1.2l1.2,0.9l1.9,0.4l9.3-4.8l0.5,0.1l0.3,0.4l-0.1,0.3l-6.5,4L250,101l1,0.9
		l1.7,0.4l9.3-4.7l1,0.1l0.5,0.3l-0.1,0.3l-6.9,4.3l-0.5,1.1l1,0.9l1.8,0.4l13.7-7.7l1.6,0.7l-11.5,7.1l-0.5,1.1l2.7,1.1l1.8-0.3
		l11.5-7.2l1,0.2l0.5,0.4v0.1l-11.6,7.4l0.1,0.7l15.2,6.3l10.8-6.1l5.8-0.2l2.9-1.8l15.4-0.7l39.3,17.5l30.7-1.3l16.9,7.5l9-0.4
		l33.5,14.9l0.7,1.6l3.8-0.2L452,143.7L452,143.7L452,143.7z M484.4,158.2l-3.8,0.2l0.3,2l3.8-0.2L484.4,158.2L484.4,158.2
		L484.4,158.2z M476.6,154.7l-3.8,0.2l0.3,2l3.8-0.2L476.6,154.7L476.6,154.7L476.6,154.7z M744,274l-4.2,0.2l0.3,2.2l4.1-0.2
		L744,274L744,274z M797.1,298.8l-8.1,0.4l0.7,4.2l8.1-0.4L797.1,298.8L797.1,298.8L797.1,298.8z M276.1,67.3l-3.8,0.2l0.3,2
		l3.8-0.2L276.1,67.3L276.1,67.3L276.1,67.3z M284.2,70.9l-3.8,0.2l0.3,2l3.7-0.2L284.2,70.9L284.2,70.9L284.2,70.9z M770.2,287
		l-21.6-8.5l-8.2,0.3l-22.1-9.8l-0.9-1.6l-0.2-0.1l-3.9,0.3l0.3,2.2h3.7l22.5,10l8.1-0.3l17.9,7.9l0.5,2l4.1-0.2L770.2,287
		L770.2,287z M413.8,131.1l-3.8,0.2l-0.2,0.2l-2.1,0.1l-19.1-8.5l-31.9,1.4l-39-17.3l-14.3,0.6l-2.6,1.6l-6.1,0.3l-11.5,7.1
		l-75.6-33l-22.4,13.6l-0.1,0.5l4.9,2.3l0.3,0.9l-0.6,0.3l-6.9-2.3l-1.7,0.5l-0.8,0.9l0.7,1l4,1.8l0.3,0.9l-0.6,0.3l-6.9-2.3
		l-1.7,0.5l-0.8,0.8l0.6,1l4.8,2.4l-0.2,0.4l-0.8,0.2l-6.9-2.4l-1.7,0.5l-0.9,0.9l0.7,1l4.6,2l0.2,0.3l-0.4,0.4l-0.9,0.2l-6.9-2.1
		l-1.4,0.5l-0.8,0.8l0.5,1l3.3,1.4l0.1,0.2l-0.4,0.3l-0.9,0.2l-3.5-1.5l-2.7,1.7l-1-0.5l0.7-2.1l-0.3-0.1l-2,1.2l-0.5,1.4l3.2,1.4
		l2.7-1.7l4,1.1l1.5-0.5l0.8-0.8l-0.8-1l-3.2-1.4l0,0l1.1-0.7l6.6,2.2l1.8-0.5l0.9-1l-0.9-1.1l-4.6-2l-0.1-0.1l0.3-0.3l0.7-0.2
		l7.4,2.4l1.5-0.6l0.6-1l-5.4-3.1v-0.1l0.4-0.3l0.6-0.2l7.2,2.3l1.6-0.6l-0.6-2.2l-4-1.8l-0.1-0.2l0.4-0.4l0.7-0.2l7.2,2.3l1.5-0.7
		l-0.6-2.2l-4.1-2l20.8-12.9l76.3,33l11.6-7l6.1-0.2l2.6-1.6l12.8-0.6l38.9,17.3l31.9-1.4l19.1,8.5l2.4-0.1l0.9,0.8l3.7-0.2
		L413.8,131.1L413.8,131.1L413.8,131.1z M706.4,261.9l-4.1,0.2l0.3,2.2l4-0.1l2.5,1.1l2.6,16.4l25.4,11.3l1.6,10l4.4,2l0.7,1.9
		l4.1-0.2l-0.3-2.2l-7.1-1.9l-1.6-10l-25.4-11.3l-2.5-16.4l-3.5-1.5L706.4,261.9L706.4,261.9L706.4,261.9z M900.2,349.1l-7.3,4.5
		l8.4,3.7l7.3-4.5L900.2,349.1L900.2,349.1z M591.1,212.5l-3.7,0.2l0.3,2l3.8-0.2L591.1,212.5L591.1,212.5z M599.4,216.2l-3.7,0.2
		l0.3,2l3.7-0.2L599.4,216.2L599.4,216.2z M453.3,151.5l-5.6,0L419,138.7l-20,0.9l-20.3-9l-39.5,1.7l-8.7-3.9l-0.4-0.5l0.6-0.3
		l-0.3-2l-3.7,0.2l0.3,2l0.7,0.2l0.8,1.2l10,4.4l39.5-1.7l20.3,9l20-0.9l31.7,13.6l3.7-0.2L453.3,151.5L453.3,151.5L453.3,151.5z
		 M369.7,116.8L366,117l0.3,2l3.7-0.2L369.7,116.8L369.7,116.8L369.7,116.8z M641.7,238.6l-22.8,1l-0.9-0.7l-4.1,0.2l0.3,2.2
		l4.1-0.2l0.5-0.5l22.2-1l62,27.6l3.2,20.4l8,3.6l0.6,1.9l4.1-0.2l-0.3-2.2l-10.7-3.6l-3.2-20.3L641.7,238.6L641.7,238.6
		L641.7,238.6z M734.5,279.9l-4.1,0.2l0.3,2.2l4.1-0.2L734.5,279.9L734.5,279.9L734.5,279.9z M392.8,129.4L331.1,119l-10.9,5.7
		l-0.7-0.1l-0.1-0.8l8.1-5.1l0.2-2.3l-4.1,0.3l-11,6.7l-0.6-0.2l-0.1-0.9l11.2-7.5l-0.8-1.1l-4.1,0.4l-15.1,9.4l-2,0.3l-0.4-0.3
		l0.3-0.4l14.3-8.9l0.9-1.2l-1-1l-4,0.2l-19.6,12.3l-0.8-0.2l-0.5-0.4l0.2-0.4l11.6-7.3l0.6-1.1l-0.9-0.9l-1.6-0.4l-18.6,10.7
		l-4.8,0.2l-56.9-25.2l-0.2-0.3l0.4-0.5l0.7-0.3h0.3l46.7,20.1l1.7-0.4l1-0.8l-0.6-1l-49.3-21.9h-1.1l-13.5,8.3l-10.1,0.4
		l-21.4,13.4l-25.4,1.1l-1.7,1l27.9-1.2l21.4-13.3l10.1-0.4l13.3-8.3l48.6,21.6l0,0l0,0l-1.2,0.5l-47.5-20l-1.6,0.6l-0.7,1l0.9,1.1
		l57.4,25.5l6.4-0.2l17.4-10.7l0.6,0.2l0.4,0.3l-0.2,0.3l-11.7,7.2l-0.6,1.2l1.1,1l2,0.4l21-12.7l1.5-0.1l0.3,0.3l-14.7,9.4
		l-0.7,1.2l1.1,0.9l4.4-0.5l16.6-9.6l0.2,0.3l-10.8,7l0.2,2.2l2,0.5l12.3-6.9l1.5-0.2l-0.3,1l-8.1,5.1l0.3,2.2l2.1,0.3l10.7-5.7
		l21.3,9.3l32.1-1.4l4.2,1.9l0.6,1.8l3.8-0.2L392.8,129.4L392.8,129.4L392.8,129.4z M419.3,141.3l-21.4,0.9l-21.4-9.5l-39.9,1.7
		l-21-9.3l-39.4,1.7l-60.3-26.5l-10.2,5.9h-0.6l-2.9-1.3l-4.5,0.2l-21.2,13.2l-28.5,1.2l-10.1,6.3l-2.3,0.2l-1.2,0.7l0.7,0.3
		l3.8-0.2l10.1-6.3l28.5-1.2l21.2-13.2l3-0.1l3,1.3h2l9.4-5.9l59.5,26.4l39.4-1.7l21,9.3l39.9-1.7l21.4,9.5l21.4-0.9l16.5,7.3
		l0.4,2.4l-0.8,0.3l0.3,2l3.7-0.2l-0.3-2l-1.1-0.3l-0.4-2.7L419.3,141.3L419.3,141.3L419.3,141.3z M757.2,292l-4.1,0.2l0.3,2.2
		l4.1-0.2L757.2,292L757.2,292z M642.2,241.2l-27.2,1.1l0,0l-3.8-1.7l-0.3-2.2l-7.1-3.2l-5.4,0.2l-6.2-2.8l-4.5,0.2l-1-1l-4.1,0.2
		l0.3,2.2l4.1-0.2l0.6-0.6l4.2-0.2l6.2,2.7l5.4-0.2l6.3,2.8l0.3,2.2l5,2.3l26.7-1l58,25.8l4.4,27.3l-3.9,2.4l-11.2,0.5l-3.5-1.5
		l-0.8-1.7l-4.1,0.2l0.3,2.2l3.5,0.1l4,1.8l12.7-0.5l4.9-3l-4.4-28.1l-59.3-26.3L642.2,241.2L642.2,241.2z M592.6,220.1l-4.1,0.2
		l-0.3,1.8l-14.1,8.8l0.6,3.7l-2.7,1.7l0.8,5.5l7,3.1l0.4,2.6l22.4,10l30-1.3l17.3,7.7l3.6,22.9l32.1,14.3l17.4-0.7l6.2-3.9l3.8-0.2
		l6.3,2.8l0.4,2.4l-1.3,0.5l0.3,2.2l4.1-0.2l-0.3-2.2l-1.6-0.4l-0.4-2.6l-7.1-3.2l-4.8,0.2l-6.2,3.9l-16.4,0.7l-31.3-13.9l-3.6-22.9
		l-18.1-8l-29.9,1.3l-21.7-9.6l-0.4-2.6l-6.9-3.1l-0.8-5l2.7-1.7l-0.6-3.7l13.7-8.5l3.9-0.3L592.6,220.1L592.6,220.1L592.6,220.1z
		 M430.5,148.4l-3.2-0.1l-11-4.9l-19.4,0.8l-22.7-10.1l-39.8,1.7l-19.6-8.6l-39.2,1.7l-47.9-20.6l-1.7,0.6l-0.7,1.1l40.3,18.6
		l0.2,0.3l-0.3,0.4l-0.6,0.2l-42.6-18l-1.8,0.6l-0.9,1l1.1,1.2l12.6,5.6l0.3,0.4l-0.3,0.4l-31.2-13.1l-3.8,0.1l-20.2,12.6l-28.9,1.2
		l-26,16.2l-3.6-1.6l-1.2,0.7l5.2,1.8l26.5-16.2l28.9-1.2l20.2-12.6l2.3-0.1l28.7,12.7h4.4l0.8-1l-1-1.1l-13-6l0.4-0.4l0.9-0.3
		l42.5,18l1.7-0.5l0.7-1l-0.9-1L226.9,110l0.3-0.4l0.8-0.3l46.9,20.6l39.2-1.7l19.6,8.7l39.8-1.7l22.7,10.1l19.4-0.8l10.6,4.7
		l0.8,1.4l3.8-0.2L430.5,148.4L430.5,148.4L430.5,148.4z M446.9,155.6l-3.8,0.2l-0.6,0.8l-10,0.4l-20-8.9l-17.9,0.8l-9-4l-72.8,3.2
		l-4.4-1.9l-0.6-1.7l-3.8,0.2l0.3,2l3.3,0.1l4.8,2.1l72.8-3.2l9.1,4l17.9-0.8l20,8.9l10.6-0.5l0.7,0.5l3.8-0.2L446.9,155.6
		L446.9,155.6L446.9,155.6z M454.7,159.4l-3.7,0.2l0.3,2l3.8-0.1L454.7,159.4L454.7,159.4z M641.2,243.5l-27,1.2l-6.3-2.8l-0.5-3.1
		l-4.3-1.9l-8,0.3l-0.8-1.7l-4.1,0.2l0.3,2.2l3,0.2v0.1l9-0.4l3.2,1.4l0.5,3.1l7.5,3.3l27.1-1.2l54.4,24.2l3.9,24.7l-0.6,0.4
		l-3.1,0.5l0.3,2.2l4.1-0.2l0.2-1.9l1-0.6l-4-25.5L641.2,243.5L641.2,243.5L641.2,243.5z M822.2,324.1l-13.4,0.6l1.1,7l13.4-0.6
		L822.2,324.1L822.2,324.1L822.2,324.1z M857.7,339.9l-13.4,0.6l1.1,7l13.4-0.6L857.7,339.9L857.7,339.9L857.7,339.9z M639,245.4
		l-26.3,1.1l-9.5-4.2l-0.7-3.1l-4.1,0.2l0.3,2.2l2.7,0.3l0.1,0.9l10.6,4.7l26.3-1.1l52.9,23.5l3.4,21.3l-3,1.9l-4.3,0.2l-20.1-8.9
		l-0.2-1.3l1.3-0.5l-0.3-2.2l-4.1,0.2l0.3,2.2l1,0.3l0.2,1.7l21.3,9.5l5.7-0.2l4-2.5l-3.5-22L639,245.4L639,245.4L639,245.4z
		 M440.3,157.9l-8.7,0.4l-19.6-8.7l-17.3,0.8l-9.1-4.1l-80.8,3.6l-1.3-0.6l-0.7-1.7l-3.7,0.2l0.3,2l3.3,0.1l1.6,0.7l80.8-3.5
		l9.1,4.1l17.3-0.7l19.5,8.7l8.7-0.4l5.2,2.3l0.4,2.3l-1,0.4l0.3,2l3.8-0.2l-0.3-2l-1.5-0.3l-0.4-2.6L440.3,157.9L440.3,157.9z
		 M891.2,359.5l-8.1,0.4l0.7,4.2l8.1-0.4L891.2,359.5L891.2,359.5z M439.8,160h-3.4l-1-0.5l-4.1,0.2l-5.9-2.6l-2.7,0.1l-5.5,3.4
		l-4.4,0.2l-16.5-7.3l-3.2,0.1l-9.9-4.4l-76.5,3.4l-3.2,2l-24.4,1.1L239.2,138l-0.4-2.5l1.6-0.5l-0.3-2l-3.8,0.2l0.3,2l0.9,0.3
		l0.4,2.9l40.7,18.1l25.4-1.1l3.2-2l75.6-3.3l9.9,4.4l3.2-0.1l16.5,7.3l5.4-0.2l5.5-3.4l1.7-0.1l5.9,2.6l4.1-0.2l0.7,0.3l0.7,1.6
		l3.8-0.2L439.8,160L439.8,160z M293.8,95.5l-7.2,4.5l8.6,3.8l7.2-4.5L293.8,95.5L293.8,95.5z M636.6,249.6l-27.9,1.2l-12-5.4
		l-0.6-1.9l-4.1,0.2l0.3,2.2l15.9,5.9l27.8-1.2l40.7,18.1l0.1,2.2l-11.3,6.9l-3.8-0.1l-0.5-0.3l-4.1,0.2l0.3,2.2l4.1-0.2l0.7-0.9
		l4.1,0.1l12.4-7.5l-0.1-3L636.6,249.6L636.6,249.6z M449.5,167.8l-3.8,0.1l-0.1,1.8l-2.9,1.8l-4.2,0.2l-10.7-4.7l-15.2,0.7
		l-19.6-8.7l-3.3,0.1l-9.8-4.4l-68.7,3l-3.5,2.2l-64.9,2.8l-4-1.8l-12.7,0.6l-0.9-0.7l-4.4,0.2l0.4,2.3l4.4-0.2l0.7-0.9l12.1-0.5
		l4,1.8l65.8-2.9l3.5-2.2l67.7-3l9.8,4.3l3.3-0.1l19.6,8.7l15.1-0.6l10.8,4.8l5.3-0.2l3.2-2l3.2-0.4L449.5,167.8L449.5,167.8
		L449.5,167.8z M635.3,251.5l-29,1.2l-16.6-7.4l-0.6-3.8H589l-0.9-1.6l-4.2,0.2l0.3,2.2l3.2,0.2l0.5,3.2l17.7,7.9l29-1.3l36.3,16.2
		l-1.8,0.5l0.3,2.2l4.1-0.2l-0.3-2.2l0.5-0.3L635.3,251.5L635.3,251.5L635.3,251.5z M432.6,161.8l-3.7,0.1l-3.7,2.3l-10.9,0.5
		l-19.5-8.6l-3,0.1l-9.9-4.4L309,155l-3.3,2.1l-29.1,1.3l-9.8-4.4l-26.8,1.1l-4.4,2.8l-3.9,0.2l-0.9-0.7l-4.5,0.2l0.4,2.4l4.5-0.2
		l0.7-1l4.2-0.2l4.5-2.8l25.8-1.1l9.8,4.3l30.1-1.3l3.3-2.1l71.9-3.1l10,4.4l3.1-0.1l19.5,8.7l11.9-0.5l3.7-2.3l2.7-0.1l6.2,2.8
		l0.3,2.1l-1.7,0.5l0.3,2l3.8-0.2l-0.3-2l-0.8-0.2l-0.4-2.5L432.6,161.8L432.6,161.8z M890.6,366.9l-11.6,0.5l-9.8,6.1l1,6.1
		l5.5-3.5l-0.3-1.6l6.5-4.1l3.1-0.1L890.6,366.9L890.6,366.9L890.6,366.9z M425.3,160.7l-3.8,0.2l-0.1,1.7l-0.9,0.6l-5.2,0.2
		l-19.8-8.8l-3.3,0.1l-9.5-4.2l-74.9,3.3l-3.5,2.2l-26.1,1.1l-9.8-4.4l-30,1.3l-1.3-0.9l-4.2,0.3l0.4,2.4l4.5-0.2l0.7-0.9l29.6-1.3
		l9.8,4.4l27.1-1.2l3.5-2.2l73.8-3.3l9.5,4.2l3.3-0.1l19.8,8.8l6.2-0.2l1.2-0.8l3.3-0.3L425.3,160.7L425.3,160.7L425.3,160.7z
		 M433.1,164.2l-3.7,0.2l-0.6,0.8l-15.3,0.8l-19.3-8.6l-4,0.1l-9.7-4.3l-69.3,3l-3.8,2.4l-32.7,1.5l-6.1-2.7l-24,1.1l-0.8-0.6
		l-4.5,0.2l0.4,2.4l4.5-0.2l0.7-1.1l23.3-1l6.1,2.7l33.7-1.5l3.8-2.4l68.3-3l9.7,4.3l4.1-0.1l19.3,8.6l15.9-0.8l0.8,0.6l3.8-0.2
		L433.1,164.2L433.1,164.2z M634.4,253.8l-29.9,1.3l-19.6-8.7l-0.4-2.8l-5.3-2.3l-0.3-2.2l0.8-0.4l-0.3-2.2l-4.1,0.2l0.3,2.2
		l1.5,0.3l0.4,2.5l5.3,2.3l0.4,2.8l20.8,9.3l29.9-1.3l31.2,13.8l0.5,2.8L664,272l0.3,2.2l4.2-0.2l-0.3-2.2l-0.9-0.3l-0.5-3.3
		L634.4,253.8L634.4,253.8L634.4,253.8z M417,157.2l-15.4-5.6l-7.7,0.3l-9.4-4.2l-79.2,3.5l-3.5,2.2l-9.2,0.4l-22.3-9.9l-5.6,0.2
		l-0.8-0.7l-3.8,0.2l0.3,2l3.8-0.2l0.5-0.6l5.2-0.2l22.3,9.9l10.2-0.4l3.5-2.2l78.2-3.4l9.4,4.2l7.7-0.3l11.8,5.2l0.5,1.8l3.8-0.2
		L417,157.2L417,157.2L417,157.2z M370.9,137.7l-3.8,0.2L367,138l-45.5,2l-10.8-4.8l-46.3,2l-23.7-10.5l-36.5,1.6l-6.6-2.9l-27,1.2
		l-40,24.9l-19.3,0.9l-10.6-4.7l-1.2,0.7l11.1,5l20.7-0.9l40-24.9l25.5-1.2l6.6,3l36.5-1.6l23.7,10.6l46.2-2l10.8,4.8l45.7-2
		l0.9,0.8l3.7-0.2L370.9,137.7L370.9,137.7L370.9,137.7z M634.2,258.1l-4.1,0.2l0.3,2.2l1.9,0.3l0.4,2.6l9.9,4.4l2.8,17.7l38.4,17
		l24.4-1.1l12.6,5.6h1.2l0.6,0.4l4.1-0.2l-0.3-2.2l-4.1,0.2l-0.7,1.1h-0.4l-12.6-5.6l-24.4,1.1l-37.6-16.7l-2.8-17.7l-9.9-4.4
		l-0.4-2.4l1-0.4L634.2,258.1L634.2,258.1L634.2,258.1z M339.2,127.1l-3.8,0.2l0.3,2l3.8-0.2L339.2,127.1L339.2,127.1L339.2,127.1z
		 M640.2,260.9l-3.9,0.3l0.3,2.2l4.1-0.2l-0.3-2.2L640.2,260.9L640.2,260.9z M739,304.8l-3.9,0.3l-0.6,0.7l-2.8,0.1l-4.7,2.9
		l-4.3,0.2l-15-6.7l-23.8,1l-47.6-21.1l-2.7-16.8l-3.7-1.7l-0.8-1.8l-4.1,0.2l0.3,2.2l3.9-0.1l3.3,1.5l2.6,16.8l48.3,21.5l23.8-1
		l15,6.7l5.3-0.2l4.7-2.9l2.2-0.1l1,0.9l4.1-0.2l-0.3-2.2L739,304.8L739,304.8z M743.8,308.5l-4.1,0.2l-0.7,0.9l-16.9,0.7l-14.5-6.4
		l-24.4,1.1l-49.5-22l-2.4-15.4l-13.8-6.2l-25.2,1.1l-35.4-15.7l-0.3-2.1l0.7-0.3l-0.3-2.2l-0.2-0.1l-3.9,0.3l0.3,2.2l2.2,0.3
		l0.3,2.2l36.1,16.1l25.1-1.1l13.2,5.8l2.4,15.4l50.3,22.3l24.4-1.1l14.4,6.4l17.5-0.8l0.8,0.6l4.1-0.2L743.8,308.5L743.8,308.5
		L743.8,308.5z M660.8,272.7l-4.1,0.2l0.3,2.2l4.1-0.2L660.8,272.7L660.8,272.7L660.8,272.7z M361.8,140.4l-3.8,0.2l-0.2,1.6
		l-3.6,2.2l-35.6,1.6l-17.1-7.6l-38.4,1.7l-23.8-10.6l-13.4,0.6l-7.8,5.4l29.4,13.9l-0.5,0.6l-1.1,0.3l-51.8-21.9l-2,0.7l-0.9,1.2
		l1.1,1.2l33.5,14.9l0.4,0.4l-1.9,0.9h-0.5L182.2,129l-9.3,0.4l-8.3,5.2v0.6l39.1,17.9l-0.5,0.6L202,154l-41.1-17.2l-2,0.7l-0.9,1.2
		l1.1,1.3l45.4,20.2l0.3,0.4l-0.5,0.6l-1,0.4l-48.6-20.5l-2,0.7l-0.9,1.2l1,1.2l51.2,23.1l-0.4,0.5l-1,0.3l-52.1-22.8l-4.5,2.8
		l58.8,26.1l0.4,0.5l-0.6,0.6l-1.1,0.4l-62.3-26.6l-2,0.7l-0.9,1.2l1.1,1.2l59.1,26.7l-0.4,0.6l-1,0.3l-62.3-26.6l-2.1,0.7l-0.9,1.2
		l1.1,1.3l58.6,26l0.5,0.5l-0.5,0.6l-1,0.3l-59.5-26l-4.6,0.4l-0.9,1.2l1,1.3l58.4,25.9l0.2,0.3l-0.5,0.6l-1.6,0.4l-85.8-38.2
		l-1.2,0.7l88.2,38.3l1.8-0.7l0.9-1.1l-0.8-1.2l-58.4-25.9l-0.4-0.5l0.5-0.6l1-0.4l61.8,26.4l2.1-0.6l0.9-1.2l-1.1-1.3l-58.6-26
		l-0.4-0.5l0.5-0.6l1-0.4l62.2,26.6l2.1-0.7l0.8-1.3l-59.7-27.3L140,151l0.5-0.6l1-0.4l62.3,26.6l2.1-0.7l1-1.1l-1.1-1.3L147,147.4
		l2.2-1.3l53.5,23l2.1-0.6l0.9-1.2l-1.2-1.3L154,143.5l-0.3-0.4l0.5-0.6l1-0.4l48.6,20.5l2-0.7l0.9-1.1l-1-1.2l-45.5-20.2l-0.4-0.5
		l0.5-0.6l1-0.3l41,17.2l2.2-0.6l1.1-1.2l-1.2-1.4L166.4,135l0,0l7.4-4.6l7.8-0.3l43.3,18.4l2-0.6l1.2-1l-1-1.3l-33.5-14.9l-0.4-0.5
		l0.4-0.6l1-0.3l51.7,21.9l2.2-0.6l1-1.2l-1.3-1.4l-28.2-12.6l6.9-4.4l11.9-0.5l23.8,10.6l38.4-1.7l17.1,7.6l37.1-1.6l4.1-2.5
		l2.9-0.4L361.8,140.4L361.8,140.4z M434,172.5l-10.1,0.4l-21,13.1l-16.4,0.7l-9.1-4.1l-3.9,0.2l-14.4-6.4l-43.6,1.9l-27.7,17.2
		l-70.8,3.1l-7.6,4.7l-30.8,1.3l-13.8,8.6l2.5,15.7l-7.4,4.6l-4.6,0.2l-5.3-2.4l-3.1-19.4l32.3-20.1l-0.3-2.4l-84.9-37.7l-1.2,0.7
		L177,190l0.2,1.6l-32.3,20.1l3.2,20.2l6.5,2.9l6.2-0.2l8.4-5.2l-2.5-15.7l12.8-8l30.9-1.3l7.5-4.7l70.8-3.1l27.8-17.2l42.1-1.9
		l14.4,6.4l4-0.1l9.1,4.1l17.9-0.8l21-13l8.6-0.4l32.4,14.4l0.3,1.8l-13.6,8.3l-0.6,1.9l64.3,28.6l0.3,1.9l15.6,6.9l10.5-0.4
		l4.4-2.8l8.9-0.4l12.6,5.6l0.4,2.9l6,2.7l0.3,2.2l4.7,2.1l0.3,2l-1.5,0.5l0.3,2.2l4.1-0.2l-0.3-2.2l-0.7-0.2l-0.4-2.5l-4.6-2.1
		l-0.3-2.2l-6-2.7l-0.5-3l-13.8-6.2l-10.5,0.4l-4.4,2.8l-9,0.4l-14.4-6.4l-0.3-1.9l-64.1-28.5l0.4-1.1l13.8-8.5l-0.4-2.6L434,172.5
		L434,172.5L434,172.5z M218.7,77.3l-5.4,3.4l-1.7-0.7l2.9-1.8l-1.2-0.5l-4.1,2.5l4.2,1.9l5.4-3.4l1.2,0.5l-5.3,3.3l4.5,2l5.3-3.3
		l1.5,0.7l-5.4,3.4l7,3.2l2.1-1.3l3.2-0.3l-0.3-2L229,85l-0.4,1.4l-1,0.7l-4.3-1.9l5.4-3.4l-4.3-1.9l-5.3,3.3l-1.7-0.8l5.3-3.3
		L218.7,77.3L218.7,77.3L218.7,77.3z M713.5,297.7l-3.9,0.3l0.3,2.2l4.1-0.2l-0.3-2.2L713.5,297.7L713.5,297.7L713.5,297.7z
		 M624.2,258.7l-4.1,0.2l-0.5,0.5l-27,1.2L560,246.2l-0.1-0.9l2.3-1.4l-1.1-1.6v-0.1h-0.1l-4.5-2l-3.9,0.1l-4.5,2.7l-11.4,0.5
		L516,256.4l1.8,11.8l3.4,1.5l0.4,3.5l5.6,2.5l0.3,1l7.5,3.3l8.3,52.6l-36,22.4l0.6,3.7L481,375.3l2.3,14.6l-6.4,4l0.5,3.3l1.3,0.6
		l-0.6-3.7l6.4-4l-2.3-14.5l27-16.7l-0.6-3.7l36-22.4l-8.4-53.2l-7.6-3.4l-0.3-1l-5.5-2.5l-0.4-3.5l-3.5-1.5l-1.8-11.3l20-12.4
		l11.4-0.5l4.5-2.8l2.8-0.1l3.9,1.8l0.8,1.2l-2.2,1.4l0.2,1.4l33.4,14.8l27.2-1.2l1,1l4.1-0.2L624.2,258.7L624.2,258.7L624.2,258.7z
		 M682.4,285l-3.9,0.3l0.3,2.2l4.1-0.2l-0.3-2.2L682.4,285L682.4,285z M799.2,338.5l-13.4,0.6l1.1,7l13.4-0.6L799.2,338.5
		L799.2,338.5z M834.6,354.2l-13.4,0.6l1.1,7l13.4-0.6L834.6,354.2L834.6,354.2z M353.7,140.9L350,141l0.3,2l3.8-0.2L353.7,140.9
		L353.7,140.9z M439,179.1l-20.5,0.9l-12.7,7.9l-20.5,0.9l-8.3-3.7l-5.9,0.2l-14.5-6.5l-38.6,1.7L289.9,198l-71,3.1l-7.3,4.5
		l-30.9,1.3l-10.4,6.5l2.5,15.8l-10.8,6.9l-8.9,0.4l-8.7-3.9l-3.4-20.9l31.1-19.4l0.7-2l-82.1-36.5l-1.2,0.7l81.5,36.2l-0.4,1.2
		l-31.4,19.5l3.4,21.7l9.9,4.4l10.4-0.4l11.8-7.3l-2.5-15.8l9.4-5.9l30.9-1.3l7.3-4.5l71-3.2l28.1-17.4l37.1-1.7l14.5,6.4l6-0.2
		l8.3,3.7l22.1-0.9l12.7-7.9l19-0.8l20,8.9l0.1,1l-11.9,7.3l0.7,5.1l63.7,28.3l1.2,1.8l17.8,7.9l14.6-0.6l4.4-2.8l7.2-0.3l9.7,4.3
		l0.4,2.8l5,2.2l0.3,2l-1.4,0.5l0.3,2.2l4.1-0.2l-0.3-2.2l-0.9-0.3l-0.4-2.5l-5-2.2l-0.4-2.8l-10.8-4.8l-8.7,0.3l-4.3,2.8l-13.1,0.6
		l-16.9-7.5l-1.2-1.8l-63.5-28.2l-0.7-4.3l11.9-7.4l-0.2-1.8L439,179.1L439,179.1L439,179.1z M428,175.6l-4.6,0.2l0.4,2.4l4.6-0.2
		L428,175.6L428,175.6z M404.1,165.5h-4.2l-21.4-9.5l-65.9,2.9l-3.4,2.1l-67.2,3l-4.7-2.1l-8.3,0.4l-3.9,2.5l-2.7,0.1l-4.3-1.9
		l-0.5-3l10.6-6.6l4.1-0.3l-0.4-2.4l-4.5,0.2l-0.1,2l-10.9,6.8l0.5,3.5l5.1,2.3l3.7-0.1l3.9-2.4l7.4-0.3l4.7,2.1l68.1-3l3.4-2.1
		l64.9-2.9l21,9.4l0.8,2.1l4.6-0.2l-0.4-2.4L404.1,165.5L404.1,165.5z M411.8,168.9l-4.3,0.1l-0.7-0.3l-7,0.3l-25.6-11.4l-60.2,2.6
		l-3.6,2.2l-69.2,3l-1.8-0.8l-5,0.2l-1-0.9l-4.4,0.2l0.4,2.3l4.4-0.2l0.7-0.8l4.5-0.2l1.8,0.8L311,163l3.6-2.2l59.2-2.6l25.6,11.4
		l7-0.3l0.4,0.2l0.8,2l4.6-0.2L411.8,168.9L411.8,168.9L411.8,168.9z M419.1,172.2l-4.6,0.2l-0.8,1.2l-3.5,0.1l-6.3-2.8l-3.5,0.1
		l-3.4,2.1l-4.4,0.2l-21.5-9.6l-96.2,4.2l-4.1,2.5l-4,0.4l0.4,2.4l4.6-0.2l0.7-1.5l-0.7-0.7l3.8-2.3l95.2-4.2l21.5,9.6l5.4-0.2
		l3.3-2.1l2.5-0.1l6.3,2.8l4.1-0.2l0.9,0.6l4.6-0.2L419.1,172.2L419.1,172.2L419.1,172.2z M443.8,183.2l-4.6,0.2l0.4,2.4l4.6-0.2
		L443.8,183.2L443.8,183.2L443.8,183.2z M454.3,187.9l-4.6,0.2l0.4,2.4l4.6-0.2L454.3,187.9L454.3,187.9L454.3,187.9z M557.1,238.5
		l-5.9,0.2l-4.8,3l-11.7,0.5l-21.2,13.6l1.9,12.8l2.6,1.2l0.5,3.3l6.8,3l0.1,1.2l7.7,3.4l8.3,51.6l-36.2,22.5l0.5,3.5L479,375.1
		l2.3,14.4l-5.9,3.7l0.5,3.2l1.3,0.6l-0.6-3.6l5.9-3.7l-2.3-14.4l27-16.7l-0.5-3.6l36.2-22.5l-8.3-52.1l-7.7-3.4l-0.1-1.2l-6.8-3
		l-0.5-3.3l-2.6-1.2l-2-12.3l20.5-13.2l11.7-0.5l4.7-3l5-0.2l7.3,3.2l0.3,2.1l-1.8,0.5l0.3,2.2l4.2-0.2l-0.3-2.2l-1.1-0.3l-0.4-2.4
		L557.1,238.5L557.1,238.5z M616.9,265.3l-4.1,0.2l-0.7,0.8l-13.8,0.6l-42.4-18.8L535,249l-12.8,8l1.5,9.8l2.2,1l0.6,4.3l5.7,2.5
		l0.2,1.1l7.7,3.4l8.7,54.7l-35.6,22.2l0.5,3.5l-27.1,16.9l1.9,12.1l12.2,5.4l0.2,1.5l-11.4,7.1v0.1l0,0l1.3,0.6l-0.1-0.5l11.4-7.1
		l-0.3-2.1l-12.2-5.4l-1.8-11.5l27.1-16.8l-0.5-3.5l35.6-22.2l-8.8-55.2l-7.7-3.4l-0.2-1.1l-5.7-2.5l-0.7-4.3l-2.2-1l-1.5-9.2
		l12.2-7.6l19.8-0.9l42.5,18.9l14.3-0.6l0.9,0.7l4.1-0.2L616.9,265.3L616.9,265.3L616.9,265.3z M627.9,270.8l-4.1,0.2l0.3,2.2
		l4.1-0.2L627.9,270.8L627.9,270.8L627.9,270.8z M397.1,169.9l-3.8-0.1l-19.3-8.6l-47,2.1l-1.1-1l-4.6,0.2l0.4,2.4l4.6-0.2l0.7-0.8
		l46.6-2.1l18.8,8.4l0.5,2.3l4.6-0.2L397.1,169.9L397.1,169.9L397.1,169.9z M404.8,173.3l-4.6,0.2l-0.8,1l-7.2,0.3l-2.7-1.2
		l-10.9,0.5l-15.9-7.1l-54.3,2.4l-10.6,6.6l-16.5,0.7l-13,8.1l-13.1,0.6l-1.2-0.9l-4.3,0.3l0.4,2.4l4.6-0.2l0.7-1l13.6-0.6l13-8.1
		l16.5-0.7L309,170l53.3-2.3l15.9,7.1l10.9-0.5l2.6,1.2l7.8-0.3l1,0.7l4.6-0.2L404.8,173.3L404.8,173.3L404.8,173.3z M412.2,176.5
		l-4.6,0.2l-0.7,1.3l-3,0.1l-5.8-2.6l-18.1,0.8l-17.6-7.8l-52.5,2.3l-10.5,6.5l-16.8,0.7l-15.4,9.6l-16.8,0.7l-1-0.8l-4.6,0.2
		l0.4,2.4l4.6-0.2l0.8-1l17.3-0.8l15.4-9.6l16.9-0.8l10.5-6.5l51.4-2.2l17.6,7.9l18.1-0.8l5.8,2.6l3.8-0.2l0.8,0.5l4.6-0.2
		L412.2,176.5L412.2,176.5z M429.2,184.1l-4.6,0.2l0.4,2.4l4.6-0.2L429.2,184.1L429.2,184.1L429.2,184.1z M436.8,187.5l-4.6,0.2
		l0.4,2.4l4.6-0.2L436.8,187.5L436.8,187.5L436.8,187.5z M447.3,192.2l-4.6,0.2l0.4,2.4l4.6-0.2L447.3,192.2L447.3,192.2z
		 M729.2,322.3l-4.3,0.2l0.3,2.3l1.8,0.4l0.4,2.3l-7.6,4.7l-12.7,0.6l-7.1-3.2l-22.5,1l-22,13.7l2.5,15.9l-4.2,2.6l2.7,16.9
		l-16.1,10l0.2,1.8l26.9,12l0.5,2.9l61.5,27.3l3.5,22.1l-42.9,26.7l1,6.4l-3.2,2l0.9,0.4l3.5-2.2l-1-6.4l42.9-26.6l-3.5-22.6
		l-61.5-27.3l-0.5-2.9l-26.8-12l-0.2-1.3l16-10l-2.7-16.9l4.3-2.6l-2.5-15.9l21.3-13.3l21.4-1l7.1,3.2l13.7-0.6l8.2-5.1l-0.4-2.6
		l1.3-0.5L729.2,322.3L729.2,322.3L729.2,322.3z M620.5,275l-4.1,0.2l0.3,2.2l4.1-0.2L620.5,275L620.5,275z M398.7,177.6l-4.6,0.2
		l-0.7,0.9l-11.4,0.5l-20.7-9.2l-50.6,2.2l-10.5,6.5l-17.3,0.7l-18.3,11.3l-41.7,1.8l-14.7-6.5l-5.5,0.2l-4.6,2.9l0.4,2.9l-1.2,0.4
		l0.3,2.1l4-0.2l-0.3-2.1l-1.5-0.4l-0.4-2.6l3.9-2.4l4.5-0.2l14.7,6.5l42.7-1.8l18.3-11.4l17.2-0.8l10.5-6.5l49.7-2.2l20.7,9.2
		l11.8-0.5l1,0.9l4.6-0.2L398.7,177.6L398.7,177.6L398.7,177.6z M381.9,170.2h-4.1l-10.4-4.6l-60.4,2.6l-10.4,6.4l-29.4,1.3
		l-8.8,5.4l-4,0.4l0.4,2.4l4.6-0.2l0.7-1.5l-0.7-0.7l8.4-5.2l29.3-1.3l10.4-6.5l59.4-2.6l10,4.5l0.7,2.1l4.6-0.2L381.9,170.2
		L381.9,170.2L381.9,170.2z M406.1,181l-4.6,0.2l-0.8,1.1l-4.4,0.2l-4.2,2.6l-4.3,0.2l-28-12.4l-46.9,2l-10.6,6.6l-16.1,0.7
		l-19,11.9l-54.3,2.4l-4.6,2.9l-3.7,0.3l0.3,2.1l3.9-0.2l0.3-1.7l4.4-2.7l54.2-2.4l18.9-11.8l16.2-0.7l10.6-6.6l46-2l28,12.4
		l5.3-0.2l4.1-2.6l4-0.2l0.9,0.7l4.6-0.2l-0.4-2.4L406.1,181L406.1,181z M422.1,188.2l-4.6,0.2l0.4,2.4l4.6-0.2L422.1,188.2
		L422.1,188.2L422.1,188.2z M425.7,191.1l-2,1.2l-5.3,0.2l-3.3-1.5l-33.1,6.7l-6.9-3.1l-13.6,0.6l-6.4,4l-40.7,1.8l-13.5,8.4
		l-41.8,1.8L216,238.2l-12.5,0.5l-2.4-1.1l-16.2,0.7l-5.6,3.5l-24.8,1.1l-15.4-6.9l-21.7,1l48.1,21.4l0.5-0.3l25.2-1.2l19.6-12.2
		l11.3-0.5l43.2-26.8l41.8-1.8l13.6-8.4l40.7-1.8l6.4-3.9l3.5-0.2l6.9,3.1l26.5-1.2l6.7-4.1l6-0.3l34.8,15.5l0.9,5.9l12,5.3l6.9-4.3
		l17.9,8l-6,3.7l0.9,1.4l26.2,11.5l10.2-6.3l-15.5-6.9l-1.6-2.4L442.7,203l-0.7-4.6L425.7,191.1L425.7,191.1z M546,245.3l-4.1,0.2
		l-0.7,1l-6.8,0.3l-15.5,9.6l1.7,10.9l3.3,1.5l0.6,3.7l5.5,2.5l0.2,1.2l7.4,3.3L546,333l-36.1,22.4l0.5,3.6l-26.9,16.7l2,12.7
		l13,5.8l0.1,1l-10.7,6.7l0.9,0.4l11.1-6.9l-0.2-1.5l-13-5.8l-1.9-12.2l26.9-16.7l-0.6-3.6l35.9-22.4l-8.6-54.1l-7.4-3.3l-0.2-1.2
		l-5.4-2.4l-0.6-3.8l-3.3-1.5l-1.7-10.4l14.9-9.2l6.4-0.3l0.8,0.6l4.1-0.2L546,245.3L546,245.3L546,245.3z M724.3,325.4l-4.3,0.2
		l-0.6,0.6l-4.6,0.2l-2.8,1.7l-6.3,0.3l-4.4-2l-26.1,1.1L650,343.4l-7.1,0.3l-6.6,4.1l0.6,4l10.5,4.6l3.7,22.8l-16.8,10.4l0.4,2.8
		l28.4,12.6l0.4,2.9l7.4,3.3l1.7,10.7l53.2,23.6l1.5,9.5l-43,26.8l-8,0.3l-3,1.9l0.9,0.4l2.7-1.7l8-0.3l43.7-27.2l-1.5-10
		l-53.2-23.6l-1.7-10.7l-7.4-3.3l-0.4-2.9l-28.4-12.6l-0.4-2.3l16.8-10.4l-3.7-23.3l-10.6-4.6l-0.6-3.5l6-3.7l7.1-0.3l25.3-15.7
		l25-1.1l4.4,2l7.3-0.3l2.8-1.7l3.9-0.2l1,1l4.3-0.2l-0.4-2.3L724.3,325.4L724.3,325.4z M711.7,319.9l-31.1-3.5l-8.5,5.3l-14.1,0.6
		l-33.6,20.9l1.8,11.4l9.5,4.2l3,19.1l-8.2,5.1l-6.6,0.3l-8.8,5.5l0.4,3.1l8.1,3.6l1.2,7.3l38.8,17.3l0.7,4.6l23,10.2l2.2,13.7
		l-29.7,18.5l1.2,7.6l-4,2.5l0.9,0.4l4.3-2.7l-1.2-7.7l29.7-18.4l-2.2-14.2l-23-10.2l-0.7-4.6L626,402.4l-1.1-7.3l-8.1-3.6l-0.4-2.5
		l8.1-5.1l6.6-0.3l8.8-5.5l-3.1-19.6l-9.5-4.2l-1.7-10.8l33-20.5l14-0.6l8.5-5.3l17.2-0.8l8.8,3.9l0.5,2.1l4.3-0.2L711.7,319.9
		L711.7,319.9L711.7,319.9z M554.7,251.2l-10.5,0.4L525,262.3l0.6,4.1l2.8,1.2l0.5,3.4l6.3,2.8l1,1.4v0.1l5.9,2.6l8.9,55.9
		L515.2,356l0.6,3.8l-26.6,16.5l1.7,11.3l12.7,5.7l0.4,2.2l-11.2,7l0.2,1.6l1.3,0.6l-0.3-1.9l11.3-7L505,393l-12.7-5.7l-1.7-10.8
		l26.6-16.5l-0.6-3.8l35.7-22.2l-8.9-56.5l-6-2.7l-1-1.4v-0.1l-6.1-2.7l-0.5-3.4l-2.8-1.2l-0.6-3.6l9.9-5h0.2l8.5-5.3l9.4-0.4
		l27.5,12.2l0.6,3.7l-1.4,0.5l0.3,2.2l4.1-0.2l-0.3-2.2l-1.5-0.3l-0.6-3.9L554.7,251.2L554.7,251.2z M733.9,330.9l-7.4,4.6l8.8,3.9
		l7.4-4.6L733.9,330.9L733.9,330.9z M558.1,254.2l-5.3,0.2l-1-0.7l-3.9,0.3l0.3,2.2l4.1-0.2l0.7-0.9l4.7-0.2l21.4,9.5l0.3,1.9
		l-2.7,1.7l0.4,2.9l7.7,3.4l14.2-0.6l71.4,31.7l0.3,2.1l-3.8,2.3l-3.7,0.4l0.4,2.3l4.3-0.2v-2.1l4-2.5l-0.4-2.6L599.6,273l-14.2,0.6
		l-6.9-3.1l-0.4-2.4l2.7-1.7l-0.3-2.5l-22.2-9.9L558.1,254.2L558.1,254.2z M391.8,181.3l-4.6,0.2l-0.8,1l-25.6-11.1l-49.2,2.1
		l-10.6,6.6l-16.6,0.7l-18.2,11.3l-48,2.1l-9.5-4.3l-0.7-1.8l-4,0.2l0.3,2.1h3.6l9.8,4.4l49-2.1l18.2-11.3l16.6-0.7l10.6-6.6
		l48.2-2.1l27.1,11.9l4.6-0.2L391.8,181.3L391.8,181.3z M712.3,323.9l-4.3,0.2l-0.7,0.9l-33.4,1.5l-25.2,15.6l-6.5,0.3l-8.4,5.2
		l0.8,4.9l10,4.4l3.5,21.8l-14.2,8.9l-2.1,0.1l-1.2,0.7l-3.9,0.4l0.4,2.3l4.3-0.2l0.1-2l0.9-0.5l2.1-0.1l14.9-9.3l-3.5-22.3l-10-4.4
		l-0.7-4.4l7.8-4.8l6.5-0.3l25.2-15.6l32.9-1.4l1,0.8l4.3-0.2L712.3,323.9L712.3,323.9L712.3,323.9z M811.9,368.3l-13.4,0.6l1.1,7
		l13.4-0.6L811.9,368.3L811.9,368.3z M528.6,242.7l-4.6,0.2l0.4,2.4l4.6-0.2L528.6,242.7L528.6,242.7z M719.4,328.5l-4.3,0.2l-0.7,1
		l-9.2,0.4l-4.6-2l-23.7,1l-25.4,15.8l-7.2,0.3l-5.2,3.2l0.3,2.5l10.6,4.7l3.8,23.8l-17,10.7l0.2,1.8l28.6,12.7l0.4,2.6l61.5,27.3
		l3.3,20.6l-47,29.2l-7.6,0.6l-0.4,0.3l8.9,4l0.5-0.3l-0.4-4.2l47.3-29.4l-3.3-21.2l-61.5-27.3l-0.4-2.6l-28.6-12.7l-0.2-1.3
		l17-10.6l-3.8-24.3l-10.6-4.7l-0.3-2l4.6-2.9l7.2-0.3l25.4-15.8l22.7-1l4.6,2.1l9.8-0.4l0.8,0.6l4.3-0.2L719.4,328.5L719.4,328.5z
		 M693.8,318.3l-4.3,0.2l-0.3,1.8l-4.3,2.7l-12.9,0.5l-25.3,15.7l-7.7,0.3l-11.3,7.1l1,6.6l11,4.9l3.2,20l-10.2,6.4l-6.8,0.3
		l-5.7,3.6l0.5,3.5l5.6,2.5l1.2,7.5l39.8,17.7l0.5,3.5l34.4,15.3l2.2,13.7l-33.9,21.2l1.2,7.6l-2.6,1.6l0.9,0.4l2.9-1.8l-1.2-7.7
		l33.9-21.1l-2.2-14.2l-34.4-15.3l-0.5-3.5l-39.8-17.7l-1.2-7.5l-5.6-2.5l-0.5-3l5.1-3.1l6.8-0.3l10.8-6.7l-3.2-20.5l-11-4.9l-1-6.1
		l10.7-6.7l7.7-0.3l25.3-15.7l12.9-0.5l4.5-2.8l4.2-0.2L693.8,318.3L693.8,318.3L693.8,318.3z M699.4,320.9L695,321v2.1l-1.4,0.9
		l-20.5,0.9l-25.2,15.8l-7,0.3l-10.3,6.4l0.9,5.6l10.6,4.7l3.3,20.7l-12.3,7.7l-6.5,0.3l-4.1,2.5l0.3,2.1l6,2.7l1.2,7.7l39.4,17.5
		l0.6,3.6l38.8,17.3l1.9,12.1l-36.1,22.4l1,6.1l-4.6,2.8l0.9,0.4l4.9-3l-0.9-6.1L712,452l-2-12.6l-38.9-17.3l-0.5-3.6L631.1,401
		l-1.2-7.7l-6-2.7l-0.3-1.6l3.4-2.1l6.5-0.3l13-8.1l-3.3-21.2l-10.6-4.7l-0.8-5.1l9.6-6l6.9-0.3l25.3-15.7l20.5-0.9l1.8-1.1l3.7-0.4
		L699.4,320.9L699.4,320.9L699.4,320.9z M658.1,305.7l-4.3,0.2l0.3,2.3l4.3-0.2L658.1,305.7L658.1,305.7L658.1,305.7z M545.6,256
		l-3.8-0.3l-4,2.5l-2.8,0.1l-7.2,4.5l0.4,2.7l4,1.8l0.3,3.9l5,2.2l0,0l1.1,0.9l0,0h0.1l6.6,2.9l9.1,57.2l-35.6,22.1l0.5,3
		l-27.2,16.9l1.6,10.5l13.1,5.8l0.5,3.2l-11.2,6.9l0.4,2.5l81.9,36.4v0.2l1.3,0.6l-0.2-1.1l-81.6-36.4l-0.3-2l11.1-6.9l-0.6-3.8
		l-13.1-5.8l-1.6-10l27.2-16.9l-0.5-3l35.6-22.1l-9.3-57.7l-8.2-4h-0.1l-4.6-2l-0.2-3.9l-4-1.8l-0.3-2.1l6.6-4.1l2.8-0.1l3.9-2.4
		l16.8,6.5l0.3,1.8l-1.7,0.5l0.3,2.2l4.1-0.2l-0.3-2.2l-1.2-0.3l-0.3-2.1L545.6,256L545.6,256z M400.4,192.3l-4.6,0.2l-0.7,0.8
		l-5.2,0.2l-14.5-6.5l-7.2,0.3l-12.4-5.4l-34.2,1.5l-28.3,17.7l-70.9,3.1l-7.6,4.7l-29.6,1.3l-4.5,2.8l-3.8,0.2l0.3,2.1l4-0.2
		l0.3-1.7l4.3-2.6l29.7-1.3l7.6-4.7l70.9-3.1l28.4-17.6l33.2-1.5l12.3,5.5l7.2-0.3l14.5,6.4l5.7-0.2l1.1,1l4.6-0.2L400.4,192.3
		L400.4,192.3L400.4,192.3z M481.8,228.7l-4.6,0.2l0.4,2.4l4.6-0.2L481.8,228.7L481.8,228.7z M416.8,200.1l-4.6,0.2l0.4,2.4l4.6-0.2
		L416.8,200.1L416.8,200.1L416.8,200.1z M425.3,203.9l-4.6,0.2l0.4,2.4l4.6-0.2L425.3,203.9L425.3,203.9L425.3,203.9z M433.1,207.4
		l-4.5,0.2l0.4,2.4l4.6-0.2L433.1,207.4L433.1,207.4L433.1,207.4z M441.2,211l-4.6,0.2l0.4,2.4l4.6-0.2L441.2,211L441.2,211
		L441.2,211z M448.8,214.4l-4.6,0.2l0.4,2.4l4.6-0.2L448.8,214.4L448.8,214.4L448.8,214.4z M472.8,225l-4.6,0.2l0.4,2.4l4.6-0.2
		L472.8,225L472.8,225z M521.5,246.9l-4.6,0.2l-0.4,0.4l-9.3,0.4l-40.5-18l-0.3-1.8l-12.7-5.7l-10.1,0.4l-51.1,31.7l-2,0.1
		l-31.7,19.7l4.2,26.4l12.1,5.4l0.9,5.6l-9.1,5.7l-61.7,2.7l-60.2-26.8h-0.7l63.5,28.2l60.6-2.6l10.7-6.7l-1-6.9l-12.2-5.4l-4-25.1
		l30.2-18.7l2-0.1l51.1-31.8l7.6-0.3l10.8,4.8l0.3,1.8l42.4,18.8l10.4-0.4l0.7,0.4l4.6-0.2L521.5,246.9L521.5,246.9L521.5,246.9z
		 M546.4,258.1l-4.1,0.2l-0.7,1.3l-5.7,0.2l-4.3,2.7l0.3,2.3l2.8,1.2l0.5,3.2l5.6,2.5l0.3,2l8.3,3.7l6.8,42.6l9.8,4.3l0.8,4.7
		l-44.9,27.9l0.5,3.4l-26.8,16.7l1.4,9l13.5,6l0.6,4.2l-4.2,2.8l1.1,7.1l18,7.9l15.3-0.7l23.6,10.5l1.1,6.8l36.6,16.3l0.8,1.2
		l-4.5,2.8l0.9,0.4l4.9-3.1l-1.2-1.8l-36.4-16.2l-1.1-6.8l-24.4-10.9l-15.3,0.7l-17.2-7.6l-1-6.6l4.3-2.7l-0.7-4.7l-13.5-6l-1.3-8.5
		l26.9-16.7l-0.5-3.4l44.9-27.9l-0.8-5.3l-9.7-4.3l-6.8-42.6l-8.2-3.7l-0.3-2.1l-5.6-2.5l-0.5-3.2l-2.8-1.2l-0.3-1.8l3.7-2.3
		l5.7-0.2l0.4,0.2l4.1-0.2l-0.3-2.2L546.4,258.1L546.4,258.1z M553.9,261.4l-4.1,0.2l-0.6,0.7l-4.4-0.1l-5,3.3l0.4,2.8l5,2.2
		l0.5,2.2l8.1,3.6l6.7,42.6l10,4.4l1.1,7l-39.2,24.4l2.4,15l-6.9,4.3l1.2,7.8l4,1.8l0.8,5l-3.2,1.9l0.6,3.8l7.6,3.4l0.8,5.1l8.7,3.9
		l0.9,6.2l22.1,9.8l1.1,7.2l36.8,16.3l0.4,2.4l-6.8,4.2l0.9,0.4l7.1-4.4l-0.4-2.9l-36.5-16.3l-1.1-7.2l-22.1-9.8l-1-6.1l-8.6-3.9
		l-0.8-5.1l-7.7-3.4l-0.5-3.3l3.2-1.9l-0.8-5.5l-4-1.8l-1.3-7.4l6.9-4.3l-2.3-14.9l39.3-24.4l-1.2-7.5l-9.9-4.4L555,276l-8.1-3.6
		l-0.5-2.3l-5-2.2l-0.4-2.2l4.3-2.8l3.8,0.1l0.9,0.8l4.1-0.2L553.9,261.4L553.9,261.4z M610.2,290l-19.6,0.8l-6-2.7l-0.4-2.2
		l1.5-0.5l-0.3-2.2l-4.1,0.2l0.3,2.2l0.8,0.2l0.4,2.8l7.2,3.2l19.6-0.8l28.9,12.9l0.9,5.5l-1.3,0.5l0.3,2.3l4.3-0.2l-0.4-2.3
		l-1.2-0.3l-0.9-5.9L610.2,290L610.2,290L610.2,290z M724,341.6l-7.3,0.3l0.6,3.8l7.3-0.3L724,341.6L724,341.6z M615.9,295.6
		l-17.6,0.8l-18.5-8.2l-0.8-5l0.8-0.4l-0.3-2.2l-4.1,0.2l0.3,2.2l1.5,0.3l0.8,5.2l19.7,8.7l17.6-0.8l7.5,3.3l5,31.4l-16.5,10.3
		l2.4,15.5l11.1,4.9l1.7,11l-9.4,5.9l-3.9,0.4l0.4,2.3l4.3-0.2l0.5-1.7l10.2-6.3l-1.8-11.8l-11.1-4.9l-2.3-14.8l16.5-10.3l-5.1-32.2
		L615.9,295.6L615.9,295.6z M377.1,189.8l-4.6,0.2l-0.6,0.6H371l-15.6-6.9l-32.1,1.4l-28,17.4l-72.1,3.2l-7.2,4.5l-21.3,0.9
		l-2.7,1.7l-3.8,0.2l0.3,2.1l4-0.2l0.4-1.6l2.4-1.5l21.3-0.9l7.2-4.5l72.2-3.2l28-17.4l31.1-1.4l15.6,6.9h1.1l1.1,1.1l4.6-0.2
		L377.1,189.8L377.1,189.8L377.1,189.8z M409.9,204.4l-4.6,0.2l0.4,2.4l4.6-0.2L409.9,204.4L409.9,204.4z M418.4,208.2l-4.6,0.2
		l0.4,2.4l4.6-0.2L418.4,208.2L418.4,208.2z M426.2,211.7l-4.6,0.2l0.4,2.4l4.6-0.2L426.2,211.7L426.2,211.7z M434.3,215.3l-4.6,0.2
		l0.4,2.4l4.6-0.2L434.3,215.3L434.3,215.3z M386,194l-4-0.1l-1.4-0.6l-7.1,0.3l-19.2-8.5l-30.6,1.3l-27.8,17.2l-71.3,3.1l-7.4,4.6
		l-18.9,0.8l-8.1,5l-7.4,0.3l-0.8-0.6l-4,0.2l0.3,2.1l4-0.2l0.7-0.8l7.9-0.3l8-5l18.9-0.8l7.4-4.6l71.3-3.1l27.8-17.3l29.6-1.3
		l19.2,8.5l7.1-0.3l1,0.4l0.7,2.2l4.6-0.2L386,194L386,194L386,194z M539.3,262.3l-3.9,0.3l0.3,2.2l0.5,0.2l0.5,3.7l6.1,2.7l0.2,1.5
		l8.5,3.8l6.8,43l10,4.4l0.9,5.7l-44.8,27.8l0.4,2.7l-27.2,16.9l1.3,8.7l13,5.8l0.6,4l27,12l0.5,3.5l27.3,12.2l1.1,7l37.2,16.5
		l0.3,1.7l-5.6,3.5l0.9,0.4l5.9-3.7l-0.3-2.3l-37.2-16.5l-0.9-7l-27.3-12.1l-0.5-3.6l-27-12l-0.6-4l-13-5.8l-1.3-8.2l27.2-16.9
		l-0.4-2.7l44.8-27.8l-1-6.3l-10-4.4l-6.8-43l-8.5-3.8l-0.2-1.5l-6.1-2.7l-0.5-3.2l2.4-0.6l-0.3-2.2l-0.2-0.1L539.3,262.3
		L539.3,262.3z M546.9,265.6l-3.9,0.3l0.3,2.2h3.7l0.5,0.2l0.5,3l16.2,7.2l1.4,8.8l38.5,17.1l5.4-0.2l0.8,0.5l0,0l-2.3,1.5l4.6,29.2
		l-11.2,7l5.5,34.8l-7.5,4.7l2.8,18.2l8.8,3.9l10.7-0.5l32.1,14.3l4.5,28.6l5.8,2.4l1.9,12.1l-8.6,5.3l1.2,7.8l-3.3,2.1l0.9,0.4
		l3.7-2.3l-1.2-7.9l8.6-5.3l-2-12.7l-5.5-2.4l-4.5-28.6l-32.9-14.6l-10.7,0.4l-8-3.6l-2.9-17.6l7.5-4.7l-5.5-34.8l11.2-7l-4.6-29.2
		l2.2-1.4l3.2-0.5l-0.4-2.3l-4.3,0.2l-0.7,1.1l-4.7,0.2L566.7,287l-1.4-8.8l-16.2-7.2l-0.5-3l-0.9-0.4l-0.7-1.9L546.9,265.6
		L546.9,265.6L546.9,265.6z M554.6,269.1l-3.9,0.3l0.3,2.2l3.8-0.1l11.6,5.2l1.5,9.8l33.6,14.9l12.9-0.5l0.9,0.7l3.1,0.3l4.7,29.4
		l-15.5,9.6l2.7,17.1l10.7,4.8l1.5,9.5l-3.6,2.2l-3.2,0.1l-11,6.8l2.7,17.2l2.8,1.2l0.6,2.2l4.5-0.2l-0.4-2.4l-5.8-1.3l-2.6-16.4
		l10-6.2l3.2-0.1l4.6-2.8l-1.6-10.3l-10.7-4.8l-2.6-16.3l15.5-9.6l-5.7-32.4l-4.3,0.2l-0.6,0.6l-12.1,0.5L569.8,286l-1.5-9.8
		l-12.4-5.6l-0.9-1.5L554.6,269.1L554.6,269.1L554.6,269.1z M452.3,225.3l-7.5,0.3l-51,31.7l-2.3,0.4l-28.3,17.5l3.9,24.5l13.6,6
		l1.1,6.8l-19.4,12.1l-21.3,0.9l-0.9-0.9l-3.7,0.2l0.3,1.9l3.7-0.2l0.5-0.4l22.1-1l20.1-12.5l-1.1-7.4l-13.6-6l-3.8-23.9l29.9-17.6
		h0.2l50.9-31.6l6.5-0.3l9.4,4.2l0.5,3.1l-1.3,0.8l-3.8,0.4l0.4,2.3l4.3-0.2l0.1-2l1.7-1l-0.5-3.7l-10.1-4.5L452.3,225.3
		L452.3,225.3z M450.6,227l-3.6,0.1l-53.4,33.2l-2.8,0.1L367,275.2l3.8,24l13.6,6l1.2,7.3l-26.7,16.6l-31.4,1.4l3.3,1.5l29.6-1.3
		l28.3-17.6l-1.4-8.6l-13.6-6l-3.6-22.7l22.2-13.8l2.8-0.1l53.4-33.2h1.1l4.7,2.1h-0.1l0.4,2.3l4.3-0.2l-0.3-2.2l0,0L450.6,227
		L450.6,227L450.6,227z M400.5,205l-4.6,0.2l-0.2,2l-6.4,4l-62.4,2.7l-14.7,9.1l-13.9,0.6l-42.1,26.1l-25.4,1.1l-0.7-0.5l-3.7,0.2
		l0.3,2l3.8-0.2l0.5-0.6l26.1-1.1l42.1-26.1l13.9-0.6l14.7-9.1l62.4-2.7l6.9-4.3l3.7-0.5L400.5,205L400.5,205L400.5,205z M505.6,252
		l-4.4,0.2l-0.9-0.7l-4.6,0.2l0.4,2.4l4.6-0.2l0.8-1.1l3.7-0.2l5.2,2.3l2.2,14.2l3,1.4l0.6,3.6l6.1,2.7l0.2,1.1l8.2,3.6l7.9,49.7
		l-42.7,26.4l0.4,2.5l4.8-0.2l-0.4-2.5l-2-0.4l41.2-25.6l-8-50.2l-8.2-3.6l-0.1-1.1l-6.2-2.7l-0.6-3.6l-3-1.3l-2.2-14.2L505.6,252
		L505.6,252L505.6,252z M476.3,240.6l-4.9,0.2l0.4,2.6l1.7,0.4l0.5,2.9l-6.1,3.8l1.4,9.1l-8,5l4.5,28.7l-9.8,6.1l0.6,4.2l-79.2,49.2
		l0.9,0.4l79.6-49.5l-0.6-4.2l9.8-6.1l-4.5-28.6l8-5l-1.4-9.1l6.1-3.8l-0.5-3.1l0,0l2-0.6L476.3,240.6L476.3,240.6L476.3,240.6z
		 M484.5,244.3l-4.9,0.2l-0.7,1.6l0.7,0.7l-3.8,2.4l0.8,5.2l4.3,1.9l0.3,2.1l-14,8.7l4.2,26.7l-9.9,6.2l0.6,4.3l-80.7,50.1l0.9,0.4
		l81-50.4l-0.6-4.3l10-6.2l-4.2-26.7l13.9-8.7l-0.4-2.7l-4.3-1.9l-0.8-4.7l3.5-2.2l4.4-0.4L484.5,244.3L484.5,244.3L484.5,244.3z
		 M696.5,338.7l-4.1,0.3l-0.3,0.2l-5.1,0.2l-13.4,8.3l1.2,7.7l10,4.4l20.2-0.9l2.9,1.3l6.8-4.2l-7.9-3.5l-6.8,4.2l1.7,0.8l-15.9,0.7
		l-8.1-3.6l-1-6.4l11.8-7.3l3.6-0.2l0.7,0.4l4.3-0.2l-0.4-2.3L696.5,338.7L696.5,338.7z M492.5,248.1l-4.9,0.2l0.4,2.6l1.9,0.4
		l0.3,2l5.6,2.5l0.4,2.3l-9.1,5.6l0.6,4.1l-9.7,6.1l2.1,13.2l12,5.4l1,6.2l-9.5,5.9l1.6,10.4l-80.4,50l0.9,0.4l80.7-50.2l-1.6-10.4
		l9.5-5.9l-1-6.7l-12-5.3l-2-12.7l9.6-5.9l-0.6-4.3l9-5.6l-0.4-2.9l-5.7-2.4l-0.3-1.7l1.9-0.6L492.5,248.1L492.5,248.1z M435.5,223
		l-4.6,0.2l0.4,2.4l4.6-0.2L435.5,223L435.5,223z M508,255.2l-4.5,0.2l0.4,2.4l1.6,0.4l0.4,2.5l-5.6,3.5l0.2,1.3l4.6,2.1l0.3,2.1
		l-2.6,1.7l0.3,2.5l11.3,5l0.3,1.9l-3.6,2.2l0.3,2.4l9.9,4.4l5.4,34l-25.5,15.8l-21.4,0.9l-48.8,30.3l1,6.1l1.3,0.6l-1-6.5
		l48.1-29.9l21.4-0.9l26.1-16.2l-5.5-34.6l-9.9-4.4l-0.3-1.9l3.6-2.2l-0.3-2.4l-11.3-5l-0.3-2l2.7-1.6l-0.4-2.7l-4.6-2.1l-0.1-0.8
		l5.5-3.5l-0.4-2.7l1.7-0.5L508,255.2L508,255.2z M403.4,208.8l-4.6,0.2l0.4,2.4l1.6,0.4l0.7,4.2l-62.3,38.7l0.6,3.8l-12.8,8
		l-4.4,0.2l-1-0.8l-4.6,0.2l0.4,2.4l4.6-0.2l0.8-1l4.8-0.2l13.5-8.4l-0.6-3.8l62.3-38.7l-0.7-4.5l1.7-0.6L403.4,208.8L403.4,208.8
		L403.4,208.8z M467.9,237.5l-4.3,0.2l0.4,2.3l1.9,0.4l0.4,2.2l-6.9,4.3l1.1,7.1l-28.8,17.9l0.4,2.8l-11.9,7.4l1.8,11.7l3.5,1.5
		l0.5,3l-71.3,44.3l0.9,0.4l71.6-44.5l-0.5-3.6l-3.4-1.5l-1.8-11.1l11.9-7.4l-0.4-2.8l28.8-17.9l-1.1-7.1l6.9-4.3l-0.4-2.6l1.2-0.4
		L467.9,237.5L467.9,237.5L467.9,237.5z M362.7,190.8l-4.3,0.3l-0.7,0.9l-4.2,0.2l-8.7-3.9l-18.9,0.8L298,206.4l-71.2,3.1l-7.6,4.7
		l-9.1,0.4l-1,0.6l-3.6,0.3l0.3,2.1l4-0.2l0.2-1.8l0.8-0.5l9.1-0.4l7.6-4.7l71.3-3.1l27.8-17.3l17.9-0.8l8.7,3.9l4.7-0.2l1,0.9
		l4.6-0.2l-0.4-2.4L362.7,190.8L362.7,190.8L362.7,190.8z M354.4,187.2l-4-0.1l-1.2-0.5l-24.5,1.1l-28.2,17.6l-70.6,3.1l-7.6,4.7
		l-14.1,0.6l-6.3,3.9l-3.5,0.3l0.3,2.1l3.9-0.2l0.1-1.8l6-3.7l14.1-0.6l7.6-4.7l70.6-3.1l28.2-17.6l23.4-1l0.8,0.4l0.6,2.2l4.6-0.2
		L354.4,187.2L354.4,187.2L354.4,187.2z M637,313l-4.3,0.2l0.4,2.3l0.7,0.2l2.4,14.7l-19.4,12l2,13.5l11.6,5.2l2.3,14.2l-4.5,2.8
		l-3.4,0.5l0.4,2.3l4.3-0.2l0.7-1.3l5.7-3.6l-2.4-15.5l-11.6-5.2l-1.9-12.2l19.4-12l-2.5-15.3l0.6-0.3L637,313L637,313L637,313z
		 M451.2,230.6l-4.3,0.2l0.3,2.3l1,0.3l0.3,1.8l6.8,3l0.3,1.9l-1.6,1l1.8,11.8L426.6,271l0.4,2.8l-15.7,9.8l0.1,0.7l-1,0.4l0.3,2
		l3.7-0.2l-0.3-1.9l-1.5-0.3l-0.1-0.4l15.7-9.8l-0.4-2.8l29.4-18.2l-1.8-11.8l1.6-1l-0.4-2.4l-6.8-3l-0.2-1.4l2.1-0.6L451.2,230.6
		L451.2,230.6L451.2,230.6z M754.3,366.3l-13.4,0.6l1.1,7l13.4-0.6L754.3,366.3L754.3,366.3z M789.8,382.1l-10.4-0.7l-4,2.1
		l-0.7,0.9l-0.4,1.9l1,1.8l5.6,2.5l10.1-1.5l1.1-0.8l1.2-2.3L793,385L789.8,382.1L789.8,382.1L789.8,382.1z M389.5,205.3l-4.6,0.2
		l-0.4,1.9l-2.7,1.7l-56.1,2.4l-14.7,9.1l-14,0.6L271.8,237l-33.2,1.5l-35,21.8l-15.7,0.7l-7.1,4.4l1.4,0.6l6.6-4.1l15.7-0.7
		l34.9-21.7l33.2-1.4l25.3-15.7l14-0.6l14.7-9.1l56-2.5l3.1-1.9l4.1-0.4L389.5,205.3L389.5,205.3L389.5,205.3z M380.8,205.2
		l-4.3,0.3l-0.7,0.7l-4.9,0.2l-2.2,1.3l-44.6,1.9l-14.7,9.1l-14.4,0.6l-24.8,15.4l-13.6,0.6l-4-1.8l-0.4-2.4l1.4-0.5l-0.3-2.1
		l-4,0.2l0.3,2.1l0.6,0.2l0.5,3l5.1,2.2l15.1-0.6l24.8-15.4l14.4-0.6l14.7-9.1l44.6-1.9l2.2-1.3l4.1-0.2l1,0.7l4.6-0.2l-0.4-2.4
		L380.8,205.2L380.8,205.2L380.8,205.2z M485.8,252.1l-4.9,0.2l0.4,2.6l1.8,0.4l0.6,4.2l-2.6,1.6l0.9,5.9l-9.2,5.7l3.5,22.2
		l-10.3,6.4l0.6,4l3.3,1.5l1,6.6l-76,47.2l0.9,0.4l76.4-47.4l-1.1-7.1l-3.2-1.5l-0.6-3.5l10.3-6.4l-3.5-22.1l9.2-5.7l-0.9-5.9
		l2.7-1.7l-0.7-4.4l1.9-0.6l-0.4-2.6L485.8,252.1L485.8,252.1z M397,212.7l-4.6,0.2l0.4,2.4l1.3,0.4l0.4,2.4L335.1,255l0.6,3.8
		l-3,1.9l-3.6,0.2l-1-0.7l-4.6,0.2l0.4,2.4l4.6-0.2l0.8-1l4-0.2l3.6-2.3l-0.6-3.8l59.4-36.9l-0.4-2.6l2-0.6L397,212.7L397,212.7z
		 M501.5,259.2l-4.6,0.2l0.4,2.4l0,0l-0.7,0.4l0.6,3.8l-14,8.7l1.7,11.1l20.4,9.1l1.3,8l-5.3,3.3l3,19.1l-9.9,6.2l-20.4,0.9
		l-59.1,36.8l1.2,0.5l0-0.3l58.6-36.4l20.6-0.9l10.6-6.6l-3-19.1l5.3-3.3l-1.3-8.6l-20.4-9.1l-1.8-10.5l14-8.7l-0.6-3.8l0.5-0.3
		l3.5-0.5L501.5,259.2L501.5,259.2L501.5,259.2z M509.7,262.9l-4.6,0.2l0.4,2.4l2.3,0.4l0.5,3l4.9,2.2l0.5,3.5l6.3,2.8l0.1,0.9
		l7.7,3.4l7.8,49l-20.5,12.8l-31.4,1.4L440,372.2l1.4,8.9l1.3,0.6l-1.5-9.3l43.1-26.8l31.4-1.4l21.2-13.2l-7.9-49.6l-7.6-3.4
		l-0.1-0.9l-6.3-2.8l-0.5-3.5l-4.9-2.2l-0.4-2.9l1.1-0.4L509.7,262.9L509.7,262.9L509.7,262.9z M461.5,241.8l-4.3,0.2v2l-0.3,0.3
		l1.4,9l-29.4,18.3l0.4,2.7l-11.6,7.2l2,13l2.9,1.3l0.3,1.8l-70.7,43.9l0.9,0.4l71-44.1l-0.3-2.4l-2.8-1.3l-2-12.5l11.7-7.2
		l-0.4-2.7l29.3-18.2l-1.4-9.1l3.8-0.4L461.5,241.8L461.5,241.8L461.5,241.8z M493.3,256l-4.6,0.2l0.1,2.2l-5.5,3.4l0.9,5.7
		l-8.9,5.5l2.3,14.6l12,5.3l0.9,5.6l-10,6.2l1.5,9.9L402.7,364l0.9,0.4l79.7-49.5l-1.5-9.9l10-6.2l-0.9-6.1l-12-5.3l-2.2-14l8.9-5.5
		l-0.9-5.7l5.2-3.2l3.9-0.4L493.3,256L493.3,256L493.3,256z M469.1,245.3l-4.1,0.2l-0.1,1.9l-2,1.2l1.2,7.6l2.3,1l0.3,1.9l-24,14.9
		l0.5,3.1l19.3,8.6l1.1,6.7l-10,6.2l0.6,4.4l-78.6,48.8l0.9,0.4l78.9-49l-0.5-4.3l10-6.2l-1.1-7.2l-19.3-8.6l-0.4-2.6l24-14.9
		l-0.3-2.4l-2.3-1l-1.1-7.1l1.7-1l3.6-0.3l-0.3-2.2L469.1,245.3L469.1,245.3z M356.1,195.1l-4-0.1l-11.4-5.1l-13.6,0.6l-27.9,17.3
		l-71.4,3.1l-13.9,8.7l-6.8,0.3l0,0l-0.9-0.7l-4,0.2l0.3,2.1l4-0.2l0.6-0.7l7.3-0.3l13.9-8.6l71.4-3.1l27.9-17.4l12.6-0.6l10.9,4.9
		l0.6,2.2l4.6-0.2L356.1,195.1L356.1,195.1z M412.7,220.2l-13.7-0.7l-55.7,34.6l0.7,3.8l-19.9,12.4l-4.5,0.2l-0.9-0.6l-4.6,0.2
		l0.4,2.4l4.6-0.2l0.8-1.1l4.9-0.2l20.4-12.8l-0.6-3.8l55-34.1l7.4-0.3l1.4,0.6h0l0.4,2.4l4.6-0.2l-0.4-2.4L412.7,220.2L412.7,220.2
		L412.7,220.2z M420.7,223.8l-4.6,0.2l-0.7,0.8l-4,0.2l-6.4-2.8l-6.9,0.3l-51.2,31.9l0.6,3.8L321,273.9l0.4,2.4l4.6-0.2l-0.4-2.4
		l-1.1-0.3l24.3-15.1l-0.6-3.9l50.5-31.4l6-0.3l6.4,2.8l4.4-0.2l1.1,1l4.6-0.2L420.7,223.8L420.7,223.8L420.7,223.8z M428.7,227.4
		l-4.6,0.2l-0.6,0.6l-4.2,0.2l-5,3.1l-9.7,0.4L375.4,250l-2.3,0.1l-31.8,19.8l6.7,41.9l-4.1,2.6l-3.2,0.3l0.3,2l3.7-0.2l0.1-1.7
		l4.5-2.8l-6.6-41.9l31.1-19.4l2.3-0.1l29.1-18.1l9.7-0.4l5.1-3.1l3.6-0.1l1.1,1.1l4.6-0.2l-0.4-2.4L428.7,227.4L428.7,227.4z
		 M452.2,237.9l-4.1,0.3l0.4,2.3l2.7,1.1l1.7,11l-29.4,18.3l0.4,2.8l-18.1,11.2l0.3,2.3l6.1,2.7l0.7,1.6l3.7-0.2l-0.3-2H413
		l-5.7-2.5l-0.3-1.7l18-11.2l-0.4-2.8l29.4-18.3l-1.8-11.5l-1-0.4l1.4-0.5l-0.4-2.3L452.2,237.9L452.2,237.9L452.2,237.9z
		 M444.8,234.7l-4.3,0.2l0.4,2.3l1.7,0.4l0.3,2.1l5.5,2.4l1.6,10.2l-29.7,18.5l0.4,2.7l-17.4,10.8l0.9,5.8h0.5l0.8,1.5l3.7-0.2
		l-0.3-2l-3.5,0.1l-0.8-5l17.3-10.8l-0.4-2.8l29.7-18.5l-1.7-10.7l-5.5-2.4l-0.3-1.9l1.4-0.5L444.8,234.7L444.8,234.7L444.8,234.7z
		 M372.5,202.7l-4.6,0.2l-0.4,1.9l-2,1.2l-42.9,1.8l-14.5,9l-27.2,1.2l-24.6,14.1l0.3,2.1l4-0.2v-1.9l21.2-13.2l27.2-1.2l14.5-9
		l43-1.9l2.4-1.5l4-0.4L372.5,202.7L372.5,202.7L372.5,202.7z M654.8,329l-4.3,0.2l0.4,2.3l4.3-0.2L654.8,329L654.8,329z
		 M605.1,309.5l-4.3,0.2l0.4,2.3l4.3-0.2L605.1,309.5L605.1,309.5z M564.7,291.9l-4.1,0.3l0.4,2.3l4.3-0.2l-0.4-2.3L564.7,291.9
		L564.7,291.9L564.7,291.9z M570.1,294.9l-4.3,0.2l0.4,2.3l4.1-0.1l26,11.6l0.5,3.5l-0.8,0.4l0.3,2.3l4.3-0.2l-0.4-2.3l-1.7-0.4
		l-0.6-3.8l-26.9-11.9L570.1,294.9L570.1,294.9L570.1,294.9z M807.4,401.5l-4.3,0.2l0,0l-27.3,14.9l0.7,4.1l7.9-0.3l1.1-2.7
		l22.3-13.9L807.4,401.5L807.4,401.5L807.4,401.5L807.4,401.5z M495,263.6l-4.3,0.3v2.2l-1.2,0.7l0.2,1.4l-8.9,5.5l2,12.7l19.7,8.8
		l1.2,7.5l-4.9,3.1l2.2,13.5l-16,10l-10,0.4l-62.2,38.6l0.9,0.4l61.9-38.4l10-0.4l16.7-10.4l-2.2-13.5l4.8-3h0.1l-1.2-8.1l-19.8-8.8
		l-1.9-12.1l8.9-5.5l-0.2-1.4l0.8-0.5l4-0.4l-0.4-2.4L495,263.6L495,263.6L495,263.6z M478.8,256.6l-4.9,0.2l-0.3,2.2l-9.2,5.7
		l4.6,28.8l-9.9,6.1l0.7,4.3l-80,49.7l0.9,0.4l80.3-49.9l-0.7-4.3l9.9-6.1l-4.5-28.8l8.8-5.5l4.8-0.3L478.8,256.6L478.8,256.6
		L478.8,256.6z M511.1,271l-4.6,0.2l0.4,2.4l2.1,0.4v0.3l8.1,3.6l0.2,1.2l8.2,3.7l7.6,47.6l-18.9,11.7l-31.6,1.4L437,371.8l1.2,8
		l1.3,0.6l-1.2-8.3l44.9-27.9l31.6-1.4l19.5-12.1l-7.6-48.1l-8.2-3.7l-0.2-1.2l-8.2-3.6v-0.1l1.3-0.5L511.1,271L511.1,271z
		 M406.1,224.6l-4.6,0.2l-0.7,0.7l-5.3,0.2l-45.9,28.5l0.6,4.1L329,271.6l0.5,3.2l-6.1,3.8l0.4,2.6l-13,8.1l0.2,1.3l5.7,1.8l3.2-2
		h1.1l8.4,3.7l0.6,1.7l3.7-0.2l-0.3-2l-3.2-0.1l-8.8-3.9l-2.2,0.1l-3.1,1.9l-3.9-1.4l-0.1-0.8l13-8.1l-0.4-2.6l6.1-3.8l-0.5-3.2
		l21.2-13.2l-0.6-4.1l45.3-28.1l4.6-0.2l1.1,1.1l4.6-0.2L406.1,224.6L406.1,224.6L406.1,224.6z M414,228l-4.6,0.2l-0.7,0.8l-3.8,0.2
		l-9.4,5.9l-1.4,0.2l-55.7,34.6l3.6,22.5l-3,1.9l1,6.1l-1.1,0.4l0.3,1.9l3.7-0.1l-0.3-2l-1.5-0.3l-0.9-5.8l3.1-1.9l-3.6-22.5
		l56.5-34.6h0.1l9.2-5.7l3.2-0.1l1.1,1l4.6-0.2L414,228L414,228L414,228z M422,231.6l-4.6,0.2l-0.7,1.5l-10.9,0.5l-28.1,17.5
		l-3.4,0.1l-28.8,17.9l6.7,42.6l2.1,0.9l0.4,1.9l3.7-0.2l-0.3-2l-4.7-1.1l-6.7-42.1l28.1-17.5l3.4-0.1l28.1-17.4l10.9-0.5l0.5,0.2
		l4.6-0.2L422,231.6L422,231.6L422,231.6z M445.9,242.2l-4.3,0.2l0.4,2.3l2.4,0.3l0.3,2l-5.7,3.5l0.2,1.2l-24.4,15.2l0.9,5.8
		l-19.1,11.9l1.4,9.3l12.2,5.4l5.5-0.2l1.3-0.8l3.2-0.3l-0.3-2l-3.7,0.2l-0.1,1.7l-1,0.6l-4.5,0.2l-11.4-5.1l-1.4-8.7l19.1-11.9
		l-0.9-5.8l24.4-15.2l-0.2-1.2l5.7-3.6l-0.4-2.4l0.8-0.3L445.9,242.2L445.9,242.2z M389.8,217.3l-4.6,0.2l-0.8,1.1l-5.3,0.2
		l-63.1,39.2l0.3,2l-10.3,6.4l1.3,8.1l2.4,1.1l0.7,2.2l4.6-0.2l-0.4-2.4l-4.1,0l-2.1-0.9l-1.2-7.6l10.4-6.4l-0.3-2l62.4-38.8
		l4.9-0.2l0.9,0.6l4.6-0.2L389.8,217.3L389.8,217.3L389.8,217.3z M438.2,238.8l-4.3,0.2l0.4,2.3l1.3,0.3l0.4,2.2l-5.2,3.2l0.6,3.8
		l-23.2,14.4l0.2,1.1l-28.5,17.7l0.9,6.1l7.2,3.2l0.3,1.9l-3.7,2.3l-3.1,0.4l0.3,1.9l3.7-0.2l0.5-1.2l-0.5-0.5l4-2.5l-0.4-2.5
		l-7.1-3.2l-0.9-5.6l28.5-17.7l-0.2-1.1l23.2-14.4l-0.6-3.8l5.2-3.2l-0.4-2.4l1.9-0.5L438.2,238.8L438.2,238.8L438.2,238.8z
		 M502.9,267.6l-4.6,0.2l0.3,2.4l-0.3,0.2l0.5,3.5l-9,5.6l0.8,5.1l20.2,9l1.7,10.4l-3.9,2.4l3,19l-14.5,9.1l-21.3,0.9l-55.2,34.3
		l0.4,2.3l1.3,0.6l-0.4-2.7l54.5-33.9l21.3-0.9l15.3-9.5l-3-19l3.9-2.4l-1.7-11l-20.2-9l-0.7-4.5l9.1-5.6l-0.5-3.5l0.1-0.1l3.6-0.5
		L502.9,267.6L502.9,267.6L502.9,267.6z M381.6,213.9l-4.6,0.2l-0.6,0.6l-4,0.1l-11.8,7.3l-1.3,0.1l-3.4-1.5l-2.5,0.1l-2.9,1.8
		l0.1,1.1l3.4,1.5l0.1,0.7l-1.9,1.2l-1.3,0.1l-3.2-1.3l-2.2,0.1l-38.5,23.9l1.1,7l-1.3,0.5l0.4,2.4l4.6-0.2l-0.4-2.4l-2.1-0.4
		l-1.1-6.7l37.9-23.5h1.2l3.2,1.4l2.3-0.1l2.6-1.6l-0.1-1.3l-3.4-1.5l-0.1-0.6l2.2-1.4l1.5-0.1l3.4,1.5l2.3-0.1l11.8-7.3l3.3-0.1
		l1.1,1.1l4.6-0.2L381.6,213.9L381.6,213.9z M569.9,298.3l-3.8,0.1l-0.8-0.6l-4.3,0.2l0.4,2.3l4.3-0.2l0.7-0.8l3-0.1l23.9,10.6
		l0.2,1.3l-2.3,1.5l1.1,2.6l-1.2,0.5l0.4,2.3l4.3-0.2l-0.4-2.3l-1.3-0.3L593,313l2.2-1.5l-0.3-2.1L569.9,298.3L569.9,298.3
		L569.9,298.3z M645.5,335.2l-4.3,0.2l0.4,2.3l4.3-0.2L645.5,335.2L645.5,335.2L645.5,335.2z M572.9,303.9l-4.1,0.3l0.4,2.3l5.2,0.9
		l4.7,29.8l18.4,8.2l4.8,30.1l-8.2,5.1l3.4,21.2l9.5,4.2l0.9,1.9l4.5-0.2l-0.4-2.4l-11.7-4.3l-3.1-19.9l8.1-5l-4.9-31.4l-18.4-8.2
		l-4.8-29.8L572.9,303.9L572.9,303.9L572.9,303.9z M181.8,131.5l-3.8,0.2l0.7,5.2l30.3,13.5L213,175l-61,37.9l2.5,15.9l-0.4,0.2
		l0.3,2l3.8-0.2l-2.4-17.3l61-37.9l-4.2-26.2l-30.4-13.5l-0.4-2.3l0.2-0.1L181.8,131.5L181.8,131.5L181.8,131.5z M520.2,282.1
		l-4.3,0.3l0.4,2.4h4.2l3.1,1.4l7,43.9l-17.3,10.7l-31.7,1.4l-47.3,29.4l1,6.7l1.3,0.6l-1.1-7.1l46.7-29l31.7-1.4l17.9-11.1l-7-44.5
		l-3.5-1.5l-0.8-2.1L520.2,282.1L520.2,282.1z M399.4,228.6l-4.6,0.2l-0.2,2.1l-41.8,26l0.3,1.7l-21,13l3,18.9l-0.8,0.3l0.3,1.9
		l3.7-0.2l-0.3-2l-1.7-0.3l-3-18.5l21-13l-0.2-1.7l41.4-25.7l4.2-0.3L399.4,228.6L399.4,228.6L399.4,228.6z M512.5,278.9l-4.6,0.2
		l-0.1,2.1l-4.7,2.9l0.4,2.8l12.1,5.4l1.9,12.2l-3.9,2.4l3,19L498.8,337l-20.6,0.9l-52.7,32.7l0.6,3.7l1.3,0.6l-0.6-4l52-32.3
		l20.6-0.9l18.5-11.5l-3-19l3.9-2.4l-2-12.7l-12.1-5.4l-0.4-2.3l4.4-2.7l4.2-0.4L512.5,278.9L512.5,278.9L512.5,278.9z M383.4,221.5
		l-4.6,0.2l-0.4,1.9l-69.2,43l0.9,5.8l7.4,3.3l0.8,5.3l-3.3,2l-2.9,0.1l-64.7-28.8l-7.2,0.3l-34.6,21.5l1.4,0.6l34.1-21.1l5.8-0.3
		l64.7,28.8l4.5-0.2l4.2-2.6l-0.9-6.1l-7.4-3.3l-0.8-5l68.6-42.6l4.1-0.4L383.4,221.5L383.4,221.5L383.4,221.5z M439.4,246.4
		l-4.3,0.2l0.4,2.3l0.7,0.2l0.3,2L385.1,283l0.5,3.5l-0.8,0.3l0.3,1.9l3.7-0.2l-0.3-1.9l-1.7-0.3l-0.5-3.1l51.3-31.9l-0.3-2.1
		l2.4-0.6L439.4,246.4L439.4,246.4z M431.4,242.9l-4.1,0.3l0.4,2.3l0.8,0.2L428,246l0.5,3.6l-23.7,14.7l0.3,2l-27.9,17.4l1.1,7.3
		l3,1.4l0.2,1.4l-1.1,0.4l0.3,1.9l3.7-0.1l-0.3-2l-1.4-0.3l-0.2-1.6l-3-1.3l-1.1-6.8l27.9-17.4l-0.3-2l23.7-14.7l-0.6-3.6l2.8-1
		l-0.4-2.3L431.4,242.9L431.4,242.9L431.4,242.9z M504.7,275.5l-4.6,0.2l-0.3,2l-5.8,3.6l0.5,3.5l17.8,7.9l1.8,11.6l-3.6,2.2
		l3.1,19.4l-15.8,9.8l-21.2,0.9L423.1,370l0.5,3.2l1.3,0.6l-0.6-3.6l52.9-32.9l21.2-0.9l16.4-10.2l-3.1-19.4l3.6-2.2l-1.9-12.2
		l-17.8-7.9l-0.5-3l5.4-3.3l4.5-0.2L504.7,275.5L504.7,275.5z M415.3,235.8l-4.6,0.2l-0.7,0.9l-4.7,0.2l-5,3.1l0.1,0.8l-19.1,11.9
		l-6,0.2l-26.1,16.2l0.6,4.3l1.2,0.5l5.9,36.8l5.7,2.5l4.6-0.2l3.4-2.1l-0.4-2.3l1.2-0.4l-0.3-2l-3.7,0.2l0.3,1.9l1.2,0.3l0.3,2
		l-2.8,1.7l-3.6,0.1l-4.9-2.2l-5.9-36.8l-1.3-0.6l-0.6-3.7l25.4-15.8l6-0.2l19.7-12.3l-0.1-0.7l4.3-2.7l4.2-0.2l1,0.9l4.6-0.2
		L415.3,235.8L415.3,235.8L415.3,235.8z M495.9,271.7l-4.6,0.2v2.2l-5,3.1l1.2,7.8l20.4,9l1.5,9.4l-3.7,2.3l3,19.2l-12.9,8
		l-21.1,0.9l-57.1,35.5l0.2,1.4l1.3,0.6l-0.3-1.7l56.4-35l21.1-0.9l13.5-8.4l-3-19.2l3.7-2.3l-1.5-9.9l-20.4-9.1l-1.2-7.3l4.6-2.9
		l4-0.4L495.9,271.7L495.9,271.7L495.9,271.7z M375.2,218.1l-4.6,0.2l-0.1,2.1l-57,35.4l0.6,4l-11.4,7.1l1.5,9.4l6.9,3.1l0.7,2.2
		l4.6-0.2L316,279l-4-0.1l-6.5-2.9l-1.4-8.9l11.4-7.1l-0.6-4l56.6-35.2l4.1-0.4L375.2,218.1L375.2,218.1L375.2,218.1z M447.7,250.3
		l-4.3,0.2l-0.5,1.7l-25.5,15.9l0.8,5.1l-18,11.1l1.1,7.2l7.5,3.4l0.6,1.7l3.7-0.2l-0.3-1.9l-3.2-0.1l-7.2-3.2l-1.1-6.8l18-11.2
		l-0.8-5.1l25-15.5l4.4-0.2L447.7,250.3L447.7,250.3L447.7,250.3z M463.4,257.3l-4.3,0.2v2.1l-24.1,15l-0.3,1.1l-11.1,6.9l1.7,10.9
		l2.5,1.1l0.6,3.8l-72.2,44.9l0.9,0.4l72.6-45.1l-0.6-4.3l-2.5-1.1l-1.7-10.4l11-6.8l0.3-1L460,260l3.8-0.4L463.4,257.3L463.4,257.3
		L463.4,257.3z M366.4,214.5l-4.6,0.2l-0.7,0.8l-4.9,0.2L300,250.7l1.4,8.9l-0.9,0.4l0.4,2.4l4.6-0.2l-0.4-2.4l-1.9-0.4l-1.3-8.3
		l55.3-34.4l4.2-0.2l0.9,0.6l4.6-0.2L366.4,214.5L366.4,214.5L366.4,214.5z M479.1,264.6l-4.6,0.2l0.4,2.4l-5.1,3.1l3.8,23.9
		l-9.8,6.1l0.7,4.3l-81.4,50.6l0.9,0.4l81.7-50.8l-0.7-4.3l9.8-6.1l-3.8-23.9l4.9-3l3.6-0.5L479.1,264.6L479.1,264.6L479.1,264.6z
		 M696.5,362.8l-7.3,0.3l0.6,3.8l7.3-0.3L696.5,362.8L696.5,362.8L696.5,362.8z M731.3,380.7l-13.4,0.6l1.1,7l6,1.2l1.1,7.3
		l30.9,13.8l0.3,1.9l-5.5,3.4l5.4,33.9h0.3l1.9-1.2l-5.1-32.2l5.5-3.4l-0.4-2.9l-30.9-13.7l-1.1-6.8l5-1.6L731.3,380.7L731.3,380.7
		L731.3,380.7z M766.7,396.4l-13.4,0.6l1.1,7l13.4-0.6L766.7,396.4L766.7,396.4L766.7,396.4z M652.3,347.4l-7.3,0.3l0.6,3.8l7.3-0.3
		L652.3,347.4L652.3,347.4L652.3,347.4z M408.7,239.9l-4.6,0.2v2.2L385.2,254l-9,0.4l-23.9,14.8l0.4,3.1l2.2,1l5.6,35.4l1.9,0.8
		l0.5,1.8l3.7-0.2l-0.3-1.9l-4.6-0.8l-5.6-35.4l-2.2-1l-0.4-2.6l23.3-14.4l9-0.4l19.2-11.9l4-0.4L408.7,239.9L408.7,239.9
		L408.7,239.9z M603,330l-4.3,0.2l0.3,2.3l4.3-0.2L603,330L603,330z M800.3,423l-7.7,0.6l0.1,4.1L800.3,423L800.3,423z M679.5,369.4
		l-6.8,4.2l7.9,3.5l6.8-4.2L679.5,369.4L679.5,369.4z M664.3,363.1l-4.3,0.2l0.4,2.3l4.3-0.2L664.3,363.1L664.3,363.1z M601,335.6
		l-7.4,0.3l0.6,3.9l7.4-0.3L601,335.6L601,335.6z M132.5,127.9l-1.1,0.7l0.2,1.1l-8.2,5l-1.2-0.4l-0.8,0.5l2.1,0.6l9.3-5.4
		L132.5,127.9L132.5,127.9L132.5,127.9z M521.8,306.5l-3.7,0.2l0.3,2l1.4,0.3l2.6,16.1l-21.8,13.5l-21.9,0.9l-50.3,31.2l0.8,5
		l1.3,0.6l-0.9-5.4l49.6-30.8l21.9-1l22.4-13.9l-2.6-16.4l1.1-0.4L521.8,306.5L521.8,306.5L521.8,306.5z M562.1,325.3l-3.8,0.2
		l0.3,2l3.7-0.2L562.1,325.3L562.1,325.3L562.1,325.3z M501.8,300.7l-3.7,0.2l0.3,1.9l1.4,0.3l-3.2,2l2.2,13.8l-14.2,8.8l-10.6,0.5
		l-63.2,39.3l0.9,0.4l62.9-39.1l10.5-0.4l14.8-9.2l-2.2-13.8l4.4-2.8l0,0L501.8,300.7L501.8,300.7L501.8,300.7z M484.5,294.4
		l-3.7,0.2l0.3,2l1.1,0.3l0.7,4.4l-4.8,3l1.6,10.3l-78.4,48.7l0.9,0.4l78.8-49l-1.6-10.2l4.8-3l-0.7-4.7l1.4-0.5L484.5,294.4
		L484.5,294.4L484.5,294.4z M708.9,394.6l-13.4,0.6l1.1,7l13.4-0.6L708.9,394.6L708.9,394.6L708.9,394.6z M737.1,407.3l-11.7,7.2
		l13.8,6.1l11.7-7.2L737.1,407.3L737.1,407.3z M573.3,334.5l-3.8,0.2l0.3,2l4.9,1.3l1,6.1l-21.1,13.1l0.9,5.9l22.2,9.9l0.9,5.3
		l-19.3,12l0.4,2.8l9,4l0.6,4.1l-7.1,4.4l0.4,3.1l9.7,4.3l10.9-0.5l14.7,6.5l0.3,1.9l40.3,16.3L641,451l-2.7,1.7l1.3,8.4l4.8,2.1
		l0.6,3.6l-4.5,2.8l1.4,0.6l5-3.1l-0.6-4.4l-4.8-2.1l-1.2-7.6l2.7-1.7l-2.2-14.6l-40.4-16.3l-0.3-1.9l-15.7-7l-10.9,0.5l-8.5-3.8
		l-0.4-2.4l7-4.4l-0.7-4.9l-9-4l-0.3-2l19.3-12l-1-6.1l-22.2-9.9l-0.8-5.2l21-13.1l-1-6.8l-2.6-1.3l-0.6-1.8L573.3,334.5
		L573.3,334.5z M442.2,277.3l-3.7,0.2l0.3,1.9l1.1,0.3l0.7,4.5l-8.5,5.2l0.2,1.7l3.1,1.4l1.2,7.4L362.5,346l0.9,0.4l74.6-46.3
		l-1.2-8l-3.1-1.4l-0.2-1.1l8.4-5.2l-0.7-4.6l1.4-0.5L442.2,277.3L442.2,277.3L442.2,277.3z M669.9,379.7l-8.2,0.4l0.7,4.3l8.2-0.4
		L669.9,379.7L669.9,379.7z M584.4,342l-7.4,4.6l8.8,3.9l7.4-4.6L584.4,342L584.4,342z M460.2,286.9l-3.7,0.1l0.3,2l1.4,0.3l0.7,4.4
		l-7.6,4.7l0.6,4.1L373.8,351l0.9,0.4l78.4-48.7l-0.6-4.1l7.6-4.7l-0.7-4.6l1.1-0.4L460.2,286.9L460.2,286.9z M450.1,282.8l-3.7,0.2
		l0.3,1.9l0.9,0.3l0.7,4.4l-6.2,3.9l1.2,7.8l-75.7,47l0.9,0.4l76-47.2l-1.2-7.8l6.2-3.9l-0.7-4.6l1.6-0.5L450.1,282.8L450.1,282.8
		L450.1,282.8z M494.4,303.1l-3.7,0.2l0.3,1.9l2.8,0.2l2.1,13.1l-12.9,8l-10.4,0.5l-63.8,39.6l0.9,0.4l63.4-39.4l10.4-0.4l13.6-8.4
		L494.4,303.1L494.4,303.1L494.4,303.1z M479.1,297.8l-3.7,0.2l0.3,1.9l1.3,0.3l0.4,2.2l-2.5,1.5l1.6,9.9l-77.6,48.2l0.9,0.4
		l78-48.5l-1.5-9.9l2.5-1.5l-0.4-2.5l1.2-0.4L479.1,297.8L479.1,297.8L479.1,297.8z M780.8,432l-7.3,4.5l3,1.3l7.3-4.5L780.8,432
		L780.8,432L780.8,432z M568.2,337.7l-3.7,0.2l0.3,2h3.5l3.5,1.6l0.4,2.4l-21,13l1,6.5l22.1,9.8l0.8,4.9L555,390.5l0.4,2.9l10,4.4
		l0.6,3.6l-6.8,4.2l0.5,3.7l13.2,5.8l10.4-0.4l11.8,5.2l0.3,2.2l9.1,4l4.7-0.2l26.4,11.7l2,12.8l-3.3,2.1l1.4,9.4l4.6,2l0.3,2.1
		l-3.4,2.1l1.4,0.6l3.9-2.4l-0.4-2.9l-4.6-2l-1.4-8.6l3.3-2.1l-2.1-13.6l-27.6-12.3l-4.7,0.2l-7.9-3.5l-0.3-2.1l-12.9-5.8l-10.3,0.4
		l-12-5.3l-0.5-2.9l6.8-4.2l-0.6-4.4l-10-4.4l-0.3-2.1l20.2-12.5l-0.8-5.6l-22.3-9.8l-0.9-5.7l20.9-13l-0.5-3.2l-4.4-1.9
		L568.2,337.7L568.2,337.7z M116.7,137.7l-0.8,0.5l4.2,1.9l0.2,0.4l-0.4,0.5l-0.8,0.3l-4.9-1.9l-0.8,0.5l5.9,2.1l1.6-0.5l0.7-0.9
		l-0.6-0.9L116.7,137.7L116.7,137.7L116.7,137.7z M436.8,280.7l-3.7,0.2l0.3,1.9l0.9,0.3l0.4,2.5l-5.6,3.5l0.4,2.8l2.8,1.3l1,6.2
		L360,344.9l0.9,0.4l73.7-45.8l-1-6.7l-2.8-1.3l-0.4-2.3l5.6-3.5l-0.4-2.7l1.5-0.5L436.8,280.7L436.8,280.7L436.8,280.7z
		 M337.6,236.9l-4.6,0.2l0.4,2.4l4.6-0.2L337.6,236.9L337.6,236.9z M311.5,225.3l-4.6,0.2l0.4,2.4l4.6-0.2L311.5,225.3L311.5,225.3
		L311.5,225.3z M325.4,231.5l-4.6,0.2l0.4,2.4l4.6-0.2L325.4,231.5L325.4,231.5L325.4,231.5z M381.2,256.3l-4.6,0.2l0.4,2.4l4.6-0.2
		L381.2,256.3L381.2,256.3L381.2,256.3z M397,263.6l-4.3,0.2l0.4,2.3l4.3-0.2L397,263.6L397,263.6z M412.1,271l-4.3,0.2l0.4,2.3
		l4.3-0.2L412.1,271L412.1,271z M454.9,290.3l-3.7,0.2l0.3,1.9l1.4,0.3l0.4,2.4l-4.6,2.9l0.6,4l-77.5,48.1l0.9,0.4l77.8-48.3l-0.6-4
		l4.6-2.9l-0.4-2.7l1.1-0.4L454.9,290.3L454.9,290.3L454.9,290.3z M491.5,306.7l-3.7,0.2l0.3,1.9l1.1,0.3l0.7,4.6l-83.5,51.9
		l0.9,0.4l83.8-52.1l-0.7-4.8l1.3-0.4L491.5,306.7L491.5,306.7L491.5,306.7z M444.8,286.2l-3.7,0.2l0.3,1.9l1.7,0.3l0.3,2l-3.3,2
		l1.3,8.1L366,347.6l0.9,0.4l75.7-47.1l-1.3-8.1l3.3-2l-0.4-2.4l0.8-0.3L444.8,286.2L444.8,286.2L444.8,286.2z M563.8,340.5
		l-3.7,0.2l0.3,2l1.6,0.3l0.5,3.2l-15.7,9.7l3.7,23.7l-6,3.7l0.5,3.4l6.3,2.8l0.8,4.9l-5.5,3.4l0.5,3.6l7.1,3.1l1,5.8l17.2,7.7
		l9.1-0.4l49.3,21.8l1.6,9.7l-10.5,6.5l-11.3,0.5l2,0.9l10.3-0.4l11.5-7.1l-1.6-10.5l-50.3-22.4l-9.1,0.4l-16.2-7.1l-1-5.8L549,401
		l-0.5-2.8l5.5-3.4l-0.8-5.6l-6.3-2.8l-0.4-2.6l5.9-3.7l-3.8-23.7l15.6-9.8l-0.6-3.9l0.4-0.2L563.8,340.5L563.8,340.5L563.8,340.5z
		 M474.6,300.9l-3.7,0.2l0.3,1.9l1.2,0.3L474,314l-76.6,47.6l0.9,0.4l76.9-47.8l-1.7-10.9l1.3-0.4L474.6,300.9L474.6,300.9
		L474.6,300.9z M112,140.6l-0.8,0.5l4.2,1.9l0.2,0.4l-0.4,0.5l-0.8,0.3l-4.9-2l-0.8,0.5l5.9,2.1l1.6-0.5l0.7-0.9l-0.6-0.9L112,140.6
		L112,140.6L112,140.6z M432.2,283.7l-3.7,0.2l-0.2,1.6l-1.8,1.1l0.9,6.1l2.6,1.2l0.8,5l-72.7,45.2l0.9,0.4l73.1-45.5l-0.8-5.5
		l-2.6-1.1l-0.9-5.6l1.4-0.9l3.3-0.3L432.2,283.7L432.2,283.7L432.2,283.7z M584.7,352.7l-3.8,0.2l0.3,2l3.8-0.2L584.7,352.7
		L584.7,352.7z M450.2,293.4l-3.7,0.2v1.8l-1,0.6l0.9,5.9L370,349.3l0.9,0.4l76.9-47.8l-0.9-5.9l0.7-0.4l3-0.4L450.2,293.4
		L450.2,293.4L450.2,293.4z M440.1,289.3l-3.7,0.2l0.3,2l1.6,0.3l-1.2,0.7l1.3,8.2l-74.2,46.1l0.9,0.4l74.6-46.3l-1.3-8.2l1.8-1.1
		l-0.2-0.1l0.4-0.2L440.1,289.3L440.1,289.3L440.1,289.3z M618.5,368.8l-7.4,0.3l0.7,3.9l7.4-0.3L618.5,368.8L618.5,368.8z
		 M593.6,358l-3.8,0.2l0.3,2l3.7-0.2L593.6,358L593.6,358z M558.6,343.7l-3.8,0.2l0.3,2l1.1,0.3l-0.2,0.5l-14.9,9.3l4.6,23.2
		l-4.4,2.6l0.3,5.2l6.4,3l0.6,3.9L542,398l0.7,4.6l7.3,3.2l0.8,5.3l19.8,8.8l10-0.4l46.9,20.8l1.3,8.3l-8.4,5.2l-14,0.6l2,0.9
		l13-0.5l9.4-5.8l-1.4-9.1l-48-21.4l-10,0.4l-18.7-8.3l-0.8-5.3l-7.3-3.2l-0.6-3.9l6.6-4.1l-0.7-4.6l-6.3-3l-0.3-4.5l4.5-2.6
		l-4.6-23.2l14.7-9.1l0.3-1l0.8-0.3l-0.3-2L558.6,343.7L558.6,343.7z M524.8,329.9l-3.8,0.2l0.3,2l3.8-0.2L524.8,329.9L524.8,329.9z
		 M652,386.4l-7.4,4.6l8.7,3.9l1.8-1.1l16,7.1l0.8,5.2l61.5,27.3l4.4,27.8l1.1,0l4.5-2.8l-4.2-26.5l-61.5-27.3l-0.8-5.2l-18-8l1.6-1
		L652,386.4L652,386.4z M769.6,442.1l-6.1,0.7l-0.2,3.3L769.6,442.1L769.6,442.1z M467,307.9l-3.7,0.2l0.3,1.9l1.4,0.3l0.7,4.3
		l-72.5,45.1l0.9,0.4l72.9-45.3l-0.7-4.6l1.1-0.4L467,307.9L467,307.9L467,307.9z M462,311.1l-3.7,0.2l-0.6,0.6l-1.6,0.1l-71,44.1
		l0.9,0.4l70.7-43.9l1,0l0.8,0.7l3.7-0.2L462,311.1L462,311.1L462,311.1z M573,361l-3.8,0.2l0.3,2l1,0.3l0.5,3.2l11,4.9l1.6,9.7
		l-6.8,4.2l1.2,7.5l-5.3,3.3l0.7,4.9l29.6,13.1l6.4-0.2l34.8,15.5l3.4,21.3l-5.6,2l0.4,2.5l4.9-0.2l-0.3-2.5l2.5-1.5l-3.5-22.1
		l-36-16l-6.4,0.3l-28.4-12.6l-0.6-4.1l5.4-3.4l-1.2-7.5l6.8-4.2l-1.7-10.5l-11.1-4.9l-0.4-2.9l0.9-0.4L573,361L573,361L573,361z
		 M582.9,365.7l-3.7,0.2l0.3,2l3.8-0.2L582.9,365.7L582.9,365.7L582.9,365.7z M563,357l-3.8,0.2l0.3,2l3.7-0.2L563,357L563,357z
		 M592.2,370l-3.8,0.2l0.2,1.9l-2,1.3l1.4,8.7l-6.4,4l1.1,7.2l-5.8,3.6l0.5,3.4l26.4,11.7l5.1-0.2l39.4,17.5l3.8,24l-2.4,0.6
		l0.4,2.6l4.9-0.2l-0.4-2.5l-1.3-0.4l-3.9-24.4L609.1,411l-5.1,0.2l-25.6-11.4l-0.5-2.9l5.9-3.6l-1.1-7.2l6.4-4l-1.4-8.6l1.8-1.1
		l2.9-0.4L592.2,370L592.2,370L592.2,370z M597.7,372.5l-3.8,0.2l0.3,2l3.8-0.1L597.7,372.5L597.7,372.5z M393,282.9l-3.7,0.2
		l0.3,1.9l3.7-0.1L393,282.9L393,282.9z M377.1,275.9l-3.7,0.2l0.3,1.9l3.7-0.2L377.1,275.9L377.1,275.9z M494.7,328.1l-3.8,0.2
		l0.3,2l3.8-0.2L494.7,328.1L494.7,328.1L494.7,328.1z M514.1,336.8l-3.8,0.2l0.3,2l3.8-0.2L514.1,336.8L514.1,336.8L514.1,336.8z
		 M482.8,323.1l-3.7,0.2l0.3,1.9l3.7-0.1L482.8,323.1L482.8,323.1z M360.8,268.9l-4.6,0.2l0.4,2.4l4.6-0.2L360.8,268.9L360.8,268.9z
		 M291.4,238.2l-4.6,0.2l0.4,2.4l4.6-0.2L291.4,238.2L291.4,238.2L291.4,238.2z M305.3,244.3l-4.6,0.2l0.4,2.4l4.6-0.2L305.3,244.3
		L305.3,244.3z M317.2,249.6l-4.6,0.2l0.4,2.4l4.6-0.2L317.2,249.6L317.2,249.6L317.2,249.6z M333.3,256.8l-4.6,0.2l0.4,2.4l4.6-0.2
		L333.3,256.8L333.3,256.8z M271.9,229.9l-4,0.2l0.3,2.1l4-0.2L271.9,229.9L271.9,229.9L271.9,229.9z M459.2,314.9l-3.7,0.2
		l-0.1,1.7l-66.1,41.1l0.9,0.4l66.1-41.1l3.1-0.4L459.2,314.9L459.2,314.9z M642.4,397.2l-7.5,0.3l0.6,4l7.5-0.3L642.4,397.2
		L642.4,397.2z M684,416.4l-7.6,4.7l9.3,4.1l7.6-4.7L684,416.4L684,416.4z M723.9,434.8l-4.3,0.2l0.4,2.3l4.3-0.2L723.9,434.8
		L723.9,434.8L723.9,434.8z M87.7,155.7l-1.2,0.7l75,33.3l0.1,0.7l-0.9,0.6l-41.3-17.1l-2,0.7l-1,1l1.2,1.6l37.3,16.6l0.1,0.5
		l-0.8,0.5H153l-38.8-16.4l-2.7,0.7l-0.6,1.6l37.5,17.6l-0.4,0.6l-0.9,0.3l-40-16.6l-2.2,0.8l-0.9,1.3l37.8,17.7l-0.4,0.5l-0.8,0.4
		l-39.4-16.5l-2.1,0.6l-1.1,1.3l1.3,1.5l36,16.3l-0.3,0.4l-0.3,0.2l-1.8,0.1l-38.2-16.4l-2.7,0.6l-1,1.4l37.8,17.7l-0.2,0.5
		l-1.4,0.5L88,194.7l-2.6,0.6l-0.9,1.4l38.1,17.9l-0.4,0.6l-1.1,0.3l-37.8-16.4l-4.6,0.3l0,0l-1,1.2l0.9,1.3l37.3,16.8l-0.2,0.6
		l-1,0.4l-37.4-16.4l-4.6,0.3l-1.2,1.2l0.8,1.4l60.3,26.8l2.6-0.1l16.6,7.3l13.3-0.6l25.9-16.1h1l1.6,0.7l0.1,0.6l-12.1,7.6l0.2,1.7
		l1.8,0.8l3.4-0.1l14.3-8.9l1.5-0.1l1,0.4l0.1,0.9l-7.7,4.8l-0.4,1.3l2.5,1.1l2.6-0.1l9.2-5.7l0.9-0.1l1.2,0.5l0.1,0.9l-5.7,3.4
		l0.2,1.5l1.5,0.7l0.8,1.5l3.7-0.2l-0.3-2l-3.1-0.1l-0.9-0.4l-0.1-0.7l5.7-3.5l-0.2-1.7l-2.3-1l-2.5,0.1l-9.2,5.7l-1.1,0.1l-1.1-0.5
		l0.1-0.5l7.9-4.9l-0.2-1.6l-2.1-1l-3,0.1l-14.3,8.9l-1.9,0.1l-0.7-0.3l-0.2-0.9l12.1-7.5l-0.2-1.3l-2.7-1.3l-2.5,0.1l-25.9,16.1
		l-11.8,0.5l-16.6-7.4l-2.6,0.1l-59.9-26.4l-0.2-0.4l0.8-0.8l2-0.2l38.8,16.6l2.1-0.7l0.6-1.4l-37.9-17.3l-0.3-0.4l0.6-0.7l0,0l0,0
		l2-0.1l36.6,16.1l4.8-0.1l0.9-1.5l-38.1-17.8l0.5-0.7l1-0.2l39.4,16.8l2.7-0.9l0.6-1.2l-37.7-17.7l0.6-0.7l1.2-0.3l37.1,16.1
		l4.3-0.2l0.3-0.2l0.7-1.1l-37.3-17.6l0.7-0.7l1-0.3l39.5,16.5l1.9-0.7l0.9-1.1l-37.8-17.8l0.5-0.6l1.2-0.4l39.8,16.6l2.1-0.6
		l0.9-1.2l-37.6-17.8l0.3-0.9l2.7-0.2l36.6,16.3l2.7-0.1l1.7-1.1l-0.1-1.2l-37.9-16.8l-0.7-0.7l0.6-0.6l1.2-0.4l41.5,17.1l2.1-1.3
		l-0.2-1.5L87.7,155.7L87.7,155.7L87.7,155.7z M618.3,394.9l-4.5,0.2l0.4,2.4l4.5-0.2L618.3,394.9L618.3,394.9z M590.8,390.6
		l-4.9,0.2l0.4,2.6l6.8,1.4l1.3,8.8l13.7,6.1l4.5-0.2l6.4-4l2.1-0.1l28.6,12.7l5.6,35.4l4.6,2l1,6.3l-6.8,4.2l1.1,7.3l-2.5,1.6
		l1.4,0.6l3.1-1.9l-1.2-7.3l6.8-4.2l-1.1-7.1l-4.6-2l-5.6-35.4l-29.8-13.2l-3.6,0.1l-6.4,4l-3,0.1l-12.5-5.6l-1.3-8.8l-3.3-1.5
		L590.8,390.6L590.8,390.6L590.8,390.6z M620.5,406.2l-7,4.3l8.1,3.6l7-4.4L620.5,406.2L620.5,406.2z M669.4,429.8l-8.7,0.4l0.7,4.6
		l8.7-0.4L669.4,429.8L669.4,429.8z M526.8,367.5l-8.6,0.4l0.7,4.5l1.7,0.5l0.5,3.9l-9.8,6.1l0.9,5.6l10.3,4.6l0.8,1.4l3.8-0.2
		l-0.3-2l-11.1-4.8l-0.6-4l9.8-6.1l-0.6-4.5l3.2-1L526.8,367.5L526.8,367.5z M542.4,374.4l-8.6,0.4l0.7,4.5l8.6-0.4L542.4,374.4
		L542.4,374.4z M559.5,382l-8.6,0.4l0.7,4.5l8.6-0.4L559.5,382L559.5,382z M574.4,388.6l-8.6,0.4l0.7,4.5l8.6-0.4L574.4,388.6
		L574.4,388.6L574.4,388.6z M590.6,395.8l-8.6,0.4l0.7,4.5l8.6-0.4L590.6,395.8L590.6,395.8L590.6,395.8z M487.6,351.6l-0.1,0
		l-4.5,0.3l0.4,2.5l3.2,0.3l0.5,3.2l-2.2,1.4l0.6,3.8l-7.9,4.9l0.9,5.5l-2.2,1.4l2.3,14.5l-6,3.8l0.3,1.9l1,0.4l-0.4-2.2l6.1-3.8
		l-2.3-14.5l2.2-1.4l-0.9-5.5l7.9-4.9l-0.6-3.8l2.2-1.4l-0.5-3.6l0.7-0.3l-0.4-2.5L487.6,351.6L487.6,351.6L487.6,351.6z M480,351.6
		l-4.8,0.2l0.4,2.5l4.6-0.1l3.4,1.5l0.4,2.4l-2.3,1.5l0.5,3.6l-7.8,4.9l0.4,2.5l-17,10.5l1.2,7.9l1.3,0.6l-1.3-8.3l17-10.6l-0.4-2.5
		l7.8-4.8l-0.5-3.6l2.3-1.4l-0.4-2.9l-3.8-1.7L480,351.6L480,351.6L480,351.6z M494.9,361l-4.8,0.2l0.4,2.5l4.8-0.2L494.9,361
		L494.9,361L494.9,361z M481.2,355.8l-4.8,0.2l0.4,2.5l2.5,0.4l0.6,3.7l-6.3,3.9l-7,0.3l-15.3,9.5l1.5,9.8l1.3,0.6l-1.6-10.1
		l14.7-9.1l7-0.3l6.9-4.3l-0.6-4.1l0,0l1.1-0.4L481.2,355.8L481.2,355.8z M61.6,171.9l-1.7,1l6.6,41.6l2,0.9L61.6,171.9L61.6,171.9
		L61.6,171.9z M611,416.4l-8.1,0.4l0.7,4.3l8.1-0.4L611,416.4L611,416.4z M473.4,355.8l-4.8,0.2l0.4,2.5l4.5-0.1l3.4,1.5l0.4,2.2
		l-4.2,2.6l-7.9,0.3l-16.9,10.5l1.4,9.1l1.3,0.6l-1.5-9.5l16.3-10.1l7.9-0.3l4.9-3l-0.4-2.7l-3.9-1.6L473.4,355.8L473.4,355.8z
		 M513.1,376l-8.6,0.4l0.7,4.5l8.6-0.4L513.1,376L513.1,376z M528.6,382.9l-8.6,0.4l0.7,4.5l8.6-0.4L528.6,382.9L528.6,382.9z
		 M545.7,390.5l-8.6,0.4l0.7,4.5l8.6-0.4L545.7,390.5L545.7,390.5z M560.6,397.1l-8.6,0.4l0.7,4.5l8.6-0.4L560.6,397.1L560.6,397.1z
		 M576.9,404.3l-8.6,0.4l0.7,4.5l8.6-0.4L576.9,404.3L576.9,404.3z M219.6,246.3l-3.8,0.2l0.3,2l3.7-0.2L219.6,246.3L219.6,246.3z
		 M474.6,359.9l-4.8,0.2l0.1,2.4l-2,1.2l-7.8,0.3l-15,9.3l1.6,10.1l1.3,0.6l-1.7-10.5l14.3-8.9l7.8-0.3l2.3-1.5l4.1-0.4L474.6,359.9
		L474.6,359.9L474.6,359.9z M56.4,175.1l-1.7,1l5.7,35.6l2,0.9L56.4,175.1L56.4,175.1L56.4,175.1z M466.9,359.8l-4.8,0.2l-19.7,12.5
		l1.5,9.7l1.3,0.6l-1.6-10l17.8-11l1,0.8l4.8-0.2L466.9,359.8L466.9,359.8L466.9,359.8z M52.1,177.8l-1.7,1l4.9,30.6l2,0.9
		L52.1,177.8L52.1,177.8L52.1,177.8z M471.9,368.2l-4.8,0.2l0,2.3l-13.1,8.1l1.3,8.4l1.3,0.6l-1.4-8.8l12.8-8l4.1-0.4L471.9,368.2
		L471.9,368.2L471.9,368.2z M47,181l-1.7,1l3.9,24.8l2,0.9L47,181L47,181z M618.4,437l-8,0.4l0.7,4.2l8-0.4L618.4,437L618.4,437z
		 M580.9,421.1l-6.7,4.2l7.9,3.5l2.5-1.5l14.3,6.3l1.1,7l20.1,9.4l4.9-0.2l-0.4-2.6l-4.2-0.1l-16.9-7.5l-1.1-7l-15.5-6.9l1.9-1.2
		L580.9,421.1L580.9,421.1L580.9,421.1z M42.2,184l-1.7,1l3,19.3l2,0.9L42.2,184L42.2,184L42.2,184z M472.9,375.7l-4.5,0.3l0.4,2.5
		l4.8-0.2l-0.4-2.5L472.9,375.7L472.9,375.7L472.9,375.7z M189.3,250.2l0.7,4.2l-7.9,0.4l-0.7-4.2L189.3,250.2L189.3,250.2z
		 M673.1,465.5l-8,0.4l0.7,4.2l8-0.4L673.1,465.5L673.1,465.5z M688.9,472.5l-8,0.4l0.7,4.2l8-0.4L688.9,472.5L688.9,472.5z
		 M705.7,480l-8,0.4l0.7,4.2l2,0.6l6.7-4.2L705.7,480L705.7,480L705.7,480z M656.5,458.9l-8,0.4l0.7,4.2l8-0.4L656.5,458.9
		L656.5,458.9L656.5,458.9z M187,251.5l-3.8,0.2l0.3,2l3.8-0.2L187,251.5L187,251.5z M533.2,405.9l-3.8,0.2l0.3,2l3.7-0.2
		L533.2,405.9L533.2,405.9z M520.3,400.6l-3.7,0.2l0.3,2l3.8-0.2L520.3,400.6L520.3,400.6z M474.1,380.3l-4.8,0.2l-8.7,5.4l0.6,4.1
		l1.3,0.6l-0.7-4.4l6.7-4.2l1.1,1.1l4.8-0.2L474.1,380.3L474.1,380.3L474.1,380.3z M37.8,186.7l-1.7,1l2.3,14.3l2,0.9L37.8,186.7
		L37.8,186.7L37.8,186.7z M551.7,419.2l-8.5,5.3l10,4.5l8.5-5.3L551.7,419.2L551.7,419.2z M492.3,393.3l-9,0.4l0.8,4.7l9-0.4
		L492.3,393.3L492.3,393.3L492.3,393.3z M469.2,385.3l-3.8,0.1l0.3,2l6.5,1.6l0.3,1.8l-2.7,1.7l0.2,1.2l1.3,0.6l-0.3-1.6l2.7-1.7
		l-0.3-2.4l-3.7-1.6L469.2,385.3L469.2,385.3L469.2,385.3z M189.2,263.9l-4.8,3l7.9,3.5l4.8-3L189.2,263.9L189.2,263.9z
		 M635.2,463.1l-8.4,0.4l9,4l0.1,0L635.2,463.1L635.2,463.1L635.2,463.1z M589.7,442.9l-3.8,2.4l8.5,3.8l3.8-2.4L589.7,442.9
		L589.7,442.9z M651.5,470.4l-8.3,0.4l0,0l9,4l0,0L651.5,470.4L651.5,470.4L651.5,470.4z M667.5,477.5l-8.3,0.4l0,0l9,4l0,0
		L667.5,477.5L667.5,477.5L667.5,477.5z M469.2,389.5l-3.7,0.2l0.3,2l1.4,0.3l0.1,0.6l1.3,0.6l-0.2-1.2l1.2-0.4L469.2,389.5
		L469.2,389.5L469.2,389.5z"/>
</g>
</svg>
