<svg xmlns="http://www.w3.org/2000/svg" viewBox="0 0 450.48 340.86">
  <defs>
    <style>
      .a {
        fill: none;
        stroke: #fff;
        stroke-miterlimit: 10;
        stroke-width: 1.5px;
      }

      .b {
        fill: #fff;
      }
    </style>
  </defs>
  <title>Asset 10</title>
  <g>
    <g>
      <polyline class="a" points="360.67 246.11 360.67 133.86 393.67 134.11"/>
      <circle class="a" cx="360.67" cy="253.11" r="7"/>
      <g>
        <path class="b" d="M402.59,142.55h-1.26l2.57-3.42L401.49,136h1.4l1.7,2.21,1.66-2.21h1.24l-2.27,3,2.7,3.52h-1.4l-2-2.59Z" transform="translate(-0.33 -1.18)"/>
        <path class="b" d="M411.8,133.18a2.65,2.65,0,0,1,2.37,1.31,8,8,0,0,1,0,7,2.81,2.81,0,0,1-4.74,0,8,8,0,0,1,0-7A2.65,2.65,0,0,1,411.8,133.18ZM410,139.94l3.14-4.92a1.78,1.78,0,0,0-.64-.74,1.54,1.54,0,0,0-2.21.9,6.46,6.46,0,0,0-.51,2.75c0,.26,0,.53,0,.82A8.59,8.59,0,0,0,410,139.94Zm3.54-3.84-3.12,5a1.92,1.92,0,0,0,.58.64,1.32,1.32,0,0,0,.73.21,1.63,1.63,0,0,0,1.58-1.24,7.83,7.83,0,0,0,.47-2.76A6.76,6.76,0,0,0,413.56,136.1Z" transform="translate(-0.33 -1.18)"/>
        <path class="b" d="M419,133.18a2.64,2.64,0,0,1,2.37,1.31,8,8,0,0,1,0,7,2.8,2.8,0,0,1-4.73,0,7.94,7.94,0,0,1,0-7A2.62,2.62,0,0,1,419,133.18Zm-1.78,6.76,3.15-4.92a1.8,1.8,0,0,0-.65-.74,1.55,1.55,0,0,0-.72-.19,1.61,1.61,0,0,0-1.49,1.09,6.46,6.46,0,0,0-.51,2.75c0,.26,0,.53,0,.82A7.09,7.09,0,0,0,417.22,139.94Zm3.54-3.84-3.12,5a1.92,1.92,0,0,0,.58.64,1.32,1.32,0,0,0,.73.21,1.63,1.63,0,0,0,1.58-1.24,7.83,7.83,0,0,0,.47-2.76A6.76,6.76,0,0,0,420.76,136.1Z" transform="translate(-0.33 -1.18)"/>
        <path class="b" d="M425.93,141.64v-7a7.26,7.26,0,0,1-.95.67,8,8,0,0,1-1.27.56v-1a7.89,7.89,0,0,0,2.22-1.42H427v8.19h2.19v.91h-5.5v-.91Z" transform="translate(-0.33 -1.18)"/>
        <path class="b" d="M433.4,133.18a2.62,2.62,0,0,1,2.37,1.31,8,8,0,0,1,0,7,2.8,2.8,0,0,1-4.73,0,7.94,7.94,0,0,1,0-7A2.62,2.62,0,0,1,433.4,133.18Zm-1.77,6.76,3.14-4.92a1.8,1.8,0,0,0-.65-.74,1.55,1.55,0,0,0-.72-.19,1.61,1.61,0,0,0-1.49,1.09,6.46,6.46,0,0,0-.51,2.75c0,.26,0,.53,0,.82A6.34,6.34,0,0,0,431.63,139.94Zm3.53-3.84-3.12,5a1.92,1.92,0,0,0,.58.64,1.32,1.32,0,0,0,.73.21,1.63,1.63,0,0,0,1.58-1.24,7.83,7.83,0,0,0,.47-2.76A6.76,6.76,0,0,0,435.16,136.1Z" transform="translate(-0.33 -1.18)"/>
        <path class="b" d="M440.33,141.64v-7a6.65,6.65,0,0,1-.95.67,7.59,7.59,0,0,1-1.27.56v-1a7.75,7.75,0,0,0,2.22-1.42h1.09v8.19h2.19v.91h-5.5v-.91Z" transform="translate(-0.33 -1.18)"/>
        <path class="b" d="M447.54,141.64v-7a7.32,7.32,0,0,1-1,.67,7.59,7.59,0,0,1-1.27.56v-1a7.94,7.94,0,0,0,2.23-1.42h1.08v8.19h2.19v.91h-5.5v-.91Z" transform="translate(-0.33 -1.18)"/>
      </g>
    </g>
    <g>
      <polyline class="a" points="96.67 141.11 96.67 28.86 59.67 29.11"/>
      <circle class="a" cx="96.67" cy="148.11" r="7"/>
      <g>
        <path class="b" d="M1.59,37.55H.33L2.9,34.13.49,31h1.4l1.7,2.21L5.25,31H6.49L4.22,34l2.7,3.52H5.52L3.53,35Z" transform="translate(-0.33 -1.18)"/>
        <path class="b" d="M10.8,28.18a2.65,2.65,0,0,1,2.37,1.31A6.61,6.61,0,0,1,14,33a6.62,6.62,0,0,1-.81,3.52,2.64,2.64,0,0,1-2.37,1.3,2.64,2.64,0,0,1-2.37-1.3A6.62,6.62,0,0,1,7.62,33a6.61,6.61,0,0,1,.81-3.51A2.65,2.65,0,0,1,10.8,28.18ZM9,34.94,12.16,30a1.78,1.78,0,0,0-.64-.74,1.54,1.54,0,0,0-2.21.9,6.46,6.46,0,0,0-.51,2.75c0,.26,0,.53,0,.82A8.59,8.59,0,0,0,9,34.94Zm3.54-3.84-3.12,5a1.92,1.92,0,0,0,.58.64,1.32,1.32,0,0,0,.73.21,1.63,1.63,0,0,0,1.58-1.24,7.83,7.83,0,0,0,.47-2.76A6.76,6.76,0,0,0,12.56,31.1Z" transform="translate(-0.33 -1.18)"/>
        <path class="b" d="M18,28.18a2.64,2.64,0,0,1,2.37,1.31A6.61,6.61,0,0,1,21.18,33a6.62,6.62,0,0,1-.81,3.52A2.63,2.63,0,0,1,18,37.82a2.61,2.61,0,0,1-2.36-1.3A6.53,6.53,0,0,1,14.82,33a6.51,6.51,0,0,1,.82-3.51A2.62,2.62,0,0,1,18,28.18Zm-1.78,6.76L19.37,30a1.8,1.8,0,0,0-.65-.74,1.55,1.55,0,0,0-.72-.19,1.61,1.61,0,0,0-1.49,1.09A6.46,6.46,0,0,0,16,32.93c0,.26,0,.53,0,.82A7.09,7.09,0,0,0,16.22,34.94Zm3.54-3.84-3.12,5a1.92,1.92,0,0,0,.58.64,1.32,1.32,0,0,0,.73.21,1.63,1.63,0,0,0,1.58-1.24A7.83,7.83,0,0,0,20,32.91,6.76,6.76,0,0,0,19.76,31.1Z" transform="translate(-0.33 -1.18)"/>
        <path class="b" d="M24.93,36.64v-7a7.26,7.26,0,0,1-.95.67,8,8,0,0,1-1.27.56v-1a7.89,7.89,0,0,0,2.22-1.42H26v8.19h2.19v.91h-5.5v-.91Z" transform="translate(-0.33 -1.18)"/>
        <path class="b" d="M32.13,36.64v-7a7.26,7.26,0,0,1-1,.67,7.59,7.59,0,0,1-1.27.56v-1a7.89,7.89,0,0,0,2.22-1.42h1.09v8.19h2.19v.91h-5.5v-.91Z" transform="translate(-0.33 -1.18)"/>
        <path class="b" d="M39.6,28.18A2.62,2.62,0,0,1,42,29.49,6.6,6.6,0,0,1,42.79,33,6.62,6.62,0,0,1,42,36.52a2.8,2.8,0,0,1-4.73,0A6.53,6.53,0,0,1,36.42,33a6.51,6.51,0,0,1,.82-3.51A2.62,2.62,0,0,1,39.6,28.18Zm-1.77,6.76L41,30a1.8,1.8,0,0,0-.65-.74,1.55,1.55,0,0,0-.72-.19,1.61,1.61,0,0,0-1.49,1.09,6.63,6.63,0,0,0-.5,2.75c0,.26,0,.53,0,.82A6.34,6.34,0,0,0,37.83,34.94Zm3.53-3.84-3.12,5a1.92,1.92,0,0,0,.58.64,1.32,1.32,0,0,0,.73.21,1.63,1.63,0,0,0,1.58-1.24,7.62,7.62,0,0,0,.47-2.76A6.76,6.76,0,0,0,41.36,31.1Z" transform="translate(-0.33 -1.18)"/>
        <path class="b" d="M46.54,36.64v-7a7.32,7.32,0,0,1-1,.67,7.59,7.59,0,0,1-1.27.56v-1a7.94,7.94,0,0,0,2.23-1.42h1.08v8.19h2.19v.91h-5.5v-.91Z" transform="translate(-0.33 -1.18)"/>
      </g>
    </g>
    <g>
      <polyline class="a" points="184.67 326.11 184.67 1.11 217.67 1.36"/>
      <circle class="a" cx="184.67" cy="333.11" r="7"/>
      <g>
        <path class="b" d="M226.59,10.55h-1.26l2.57-3.42L225.49,4h1.4l1.7,2.21L230.25,4h1.24l-2.27,3,2.7,3.52h-1.4l-2-2.59Z" transform="translate(-0.33 -1.18)"/>
        <path class="b" d="M235.8,1.18a2.65,2.65,0,0,1,2.37,1.31A6.61,6.61,0,0,1,239,6a6.62,6.62,0,0,1-.81,3.52,2.81,2.81,0,0,1-4.74,0A6.62,6.62,0,0,1,232.62,6a6.61,6.61,0,0,1,.81-3.51A2.65,2.65,0,0,1,235.8,1.18ZM234,7.94,237.16,3a1.78,1.78,0,0,0-.64-.74,1.54,1.54,0,0,0-2.21.9,6.46,6.46,0,0,0-.51,2.75c0,.26,0,.53,0,.82A8.59,8.59,0,0,0,234,7.94Zm3.54-3.84-3.12,5a1.92,1.92,0,0,0,.58.64,1.32,1.32,0,0,0,.73.21,1.63,1.63,0,0,0,1.58-1.24,7.83,7.83,0,0,0,.47-2.76A6.76,6.76,0,0,0,237.56,4.1Z" transform="translate(-0.33 -1.18)"/>
        <path class="b" d="M242.73,9.64v-7a8,8,0,0,1-.95.67,7.75,7.75,0,0,1-1.28.56v-1a7.8,7.8,0,0,0,2.23-1.42h1.09V9.64H246v.91H240.5V9.64Z" transform="translate(-0.33 -1.18)"/>
        <path class="b" d="M250.2,1.18a2.62,2.62,0,0,1,2.37,1.31A6.61,6.61,0,0,1,253.38,6a6.62,6.62,0,0,1-.81,3.52,2.8,2.8,0,0,1-4.73,0A6.53,6.53,0,0,1,247,6a6.51,6.51,0,0,1,.82-3.51A2.62,2.62,0,0,1,250.2,1.18Zm-1.78,6.76L251.57,3a1.8,1.8,0,0,0-.65-.74,1.55,1.55,0,0,0-.72-.19,1.61,1.61,0,0,0-1.49,1.09,6.46,6.46,0,0,0-.51,2.75c0,.26,0,.53,0,.82A7.09,7.09,0,0,0,248.42,7.94ZM252,4.1l-3.12,5a1.92,1.92,0,0,0,.58.64,1.32,1.32,0,0,0,.73.21,1.63,1.63,0,0,0,1.58-1.24,7.83,7.83,0,0,0,.47-2.76A6.76,6.76,0,0,0,252,4.1Z" transform="translate(-0.33 -1.18)"/>
        <path class="b" d="M257.4,1.18a2.62,2.62,0,0,1,2.37,1.31A6.61,6.61,0,0,1,260.58,6a6.62,6.62,0,0,1-.81,3.52,2.8,2.8,0,0,1-4.73,0A6.53,6.53,0,0,1,254.22,6,6.51,6.51,0,0,1,255,2.49,2.62,2.62,0,0,1,257.4,1.18Zm-1.77,6.76L258.77,3a1.8,1.8,0,0,0-.65-.74,1.55,1.55,0,0,0-.72-.19,1.61,1.61,0,0,0-1.49,1.09,6.46,6.46,0,0,0-.51,2.75c0,.26,0,.53,0,.82A6.34,6.34,0,0,0,255.63,7.94Zm3.53-3.84-3.12,5a1.92,1.92,0,0,0,.58.64,1.32,1.32,0,0,0,.73.21,1.63,1.63,0,0,0,1.58-1.24,7.83,7.83,0,0,0,.47-2.76A6.76,6.76,0,0,0,259.16,4.1Z" transform="translate(-0.33 -1.18)"/>
        <path class="b" d="M264.33,9.64v-7a6.65,6.65,0,0,1-.95.67,7.59,7.59,0,0,1-1.27.56v-1a7.75,7.75,0,0,0,2.22-1.42h1.09V9.64h2.19v.91h-5.5V9.64Z" transform="translate(-0.33 -1.18)"/>
        <path class="b" d="M271.8,1.18a2.62,2.62,0,0,1,2.37,1.31A6.6,6.6,0,0,1,275,6a6.62,6.62,0,0,1-.82,3.52,2.8,2.8,0,0,1-4.73,0A6.62,6.62,0,0,1,268.62,6a6.6,6.6,0,0,1,.82-3.51A2.63,2.63,0,0,1,271.8,1.18ZM270,7.94,273.17,3a1.73,1.73,0,0,0-.65-.74,1.55,1.55,0,0,0-.72-.19,1.59,1.59,0,0,0-1.48,1.09,6.46,6.46,0,0,0-.51,2.75c0,.26,0,.53,0,.82A7.3,7.3,0,0,0,270,7.94Zm3.53-3.84-3.12,5a1.92,1.92,0,0,0,.58.64,1.35,1.35,0,0,0,.73.21,1.62,1.62,0,0,0,1.58-1.24,7.62,7.62,0,0,0,.47-2.76A6.76,6.76,0,0,0,273.56,4.1Z" transform="translate(-0.33 -1.18)"/>
      </g>
    </g>
    <g>
      <polyline class="a" points="254.67 263.11 254.67 58.11 287.67 58.36"/>
      <circle class="a" cx="254.67" cy="270.11" r="7"/>
      <g>
        <path class="b" d="M296.59,67.55h-1.26l2.57-3.42L295.49,61h1.4l1.7,2.21L300.25,61h1.24l-2.27,3,2.7,3.52h-1.4l-2-2.59Z" transform="translate(-0.33 -1.18)"/>
        <path class="b" d="M305.8,58.18a2.65,2.65,0,0,1,2.37,1.31A6.61,6.61,0,0,1,309,63a6.62,6.62,0,0,1-.81,3.52,2.81,2.81,0,0,1-4.74,0,6.62,6.62,0,0,1-.81-3.52,6.61,6.61,0,0,1,.81-3.51A2.65,2.65,0,0,1,305.8,58.18ZM304,64.94,307.16,60a1.78,1.78,0,0,0-.64-.74,1.54,1.54,0,0,0-2.21.9,6.46,6.46,0,0,0-.51,2.75c0,.26,0,.53,0,.82A8.59,8.59,0,0,0,304,64.94Zm3.54-3.84-3.12,5a1.92,1.92,0,0,0,.58.64,1.32,1.32,0,0,0,.73.21,1.63,1.63,0,0,0,1.58-1.24,7.83,7.83,0,0,0,.47-2.76A6.76,6.76,0,0,0,307.56,61.1Z" transform="translate(-0.33 -1.18)"/>
        <path class="b" d="M313,58.18a2.64,2.64,0,0,1,2.37,1.31,6.61,6.61,0,0,1,.81,3.51,6.62,6.62,0,0,1-.81,3.52,2.8,2.8,0,0,1-4.73,0,6.53,6.53,0,0,1-.82-3.52,6.51,6.51,0,0,1,.82-3.51A2.62,2.62,0,0,1,313,58.18Zm-1.78,6.76L314.37,60a1.8,1.8,0,0,0-.65-.74,1.55,1.55,0,0,0-.72-.19,1.61,1.61,0,0,0-1.49,1.09,6.46,6.46,0,0,0-.51,2.75c0,.26,0,.53,0,.82A7.09,7.09,0,0,0,311.22,64.94Zm3.54-3.84-3.12,5a1.92,1.92,0,0,0,.58.64,1.32,1.32,0,0,0,.73.21,1.63,1.63,0,0,0,1.58-1.24,7.83,7.83,0,0,0,.47-2.76A6.76,6.76,0,0,0,314.76,61.1Z" transform="translate(-0.33 -1.18)"/>
        <path class="b" d="M319.93,66.64v-7a7.26,7.26,0,0,1-.95.67,8,8,0,0,1-1.27.56v-1a7.89,7.89,0,0,0,2.22-1.42H321v8.19h2.19v.91h-5.5v-.91Z" transform="translate(-0.33 -1.18)"/>
        <path class="b" d="M327.4,58.18a2.62,2.62,0,0,1,2.37,1.31,6.61,6.61,0,0,1,.81,3.51,6.62,6.62,0,0,1-.81,3.52,2.8,2.8,0,0,1-4.73,0,6.53,6.53,0,0,1-.82-3.52,6.51,6.51,0,0,1,.82-3.51A2.62,2.62,0,0,1,327.4,58.18Zm-1.77,6.76L328.77,60a1.8,1.8,0,0,0-.65-.74,1.55,1.55,0,0,0-.72-.19,1.61,1.61,0,0,0-1.49,1.09,6.46,6.46,0,0,0-.51,2.75c0,.26,0,.53,0,.82A6.34,6.34,0,0,0,325.63,64.94Zm3.53-3.84-3.12,5a1.92,1.92,0,0,0,.58.64,1.32,1.32,0,0,0,.73.21,1.63,1.63,0,0,0,1.58-1.24,7.83,7.83,0,0,0,.47-2.76A6.76,6.76,0,0,0,329.16,61.1Z" transform="translate(-0.33 -1.18)"/>
        <path class="b" d="M334.33,66.64v-7a6.65,6.65,0,0,1-.95.67,7.59,7.59,0,0,1-1.27.56v-1a7.75,7.75,0,0,0,2.22-1.42h1.09v8.19h2.19v.91h-5.5v-.91Z" transform="translate(-0.33 -1.18)"/>
        <path class="b" d="M341.54,66.64v-7a7.32,7.32,0,0,1-1,.67,7.59,7.59,0,0,1-1.27.56v-1a7.94,7.94,0,0,0,2.23-1.42h1.08v8.19h2.19v.91h-5.5v-.91Z" transform="translate(-0.33 -1.18)"/>
      </g>
    </g>
  </g>
</svg>
